<svg width="80" height="80" viewBox="0 0 80 80" fill="none" xmlns="http://www.w3.org/2000/svg">
<rect width="80" height="80" rx="10" fill="black"/>
<path d="M45.3905 24.8379H67.4965C69.1763 27.5592 70.5202 31.7166 70.5202 34.7403H62.5244C62.1884 33.5308 61.8525 32.6993 61.5837 32.0946C60.979 31.1875 60.3742 30.4316 59.5679 29.978C58.7616 29.4489 57.8881 29.2221 56.9475 29.2221C54.7301 29.2221 53.0504 30.356 51.9081 32.5481C51.0346 34.2111 50.5643 36.8568 50.5643 40.4095C50.5643 44.7938 51.1018 47.8174 52.1769 49.4048C53.2519 51.0678 54.663 51.8993 56.6115 51.8993C58.4257 51.8993 59.8367 51.219 60.7774 49.8584C61.7181 48.5733 62.2556 47.6662 62.6588 45.0962L70.9905 45.1717C71.2593 48.8757 69.8483 52.9576 68.6388 54.9985C67.3622 56.9639 65.8839 58.5513 64.0698 59.534C62.2556 60.5922 59.9711 61.1214 57.149 61.1214C53.7223 61.1214 50.9674 60.441 48.8173 59.2316C46.6671 57.9465 44.7858 55.7544 43.2404 52.5796C41.695 49.4048 40.8887 45.3985 40.8887 40.4095C40.8887 33.8332 42.2997 28.8442 45.0546 25.2914C45.1217 25.1403 45.2561 24.9891 45.3905 24.8379Z" fill="#26156E" stroke="#F8ED0D"/>
<path d="M67.4967 24.8378C67.0263 24.0819 66.4888 23.4772 65.9513 23.0236C63.7339 20.9827 60.6431 20 56.6788 20C51.9082 20 48.1455 21.5874 45.3906 24.8378H67.4967Z" fill="#F8ED0D" stroke="#F8ED0D"/>
<path d="M10.2688 24.8379H32.3077C33.4499 26.6521 34.1219 28.9954 34.3906 31.8678L25.3198 32.5481C25.1182 30.734 24.5807 29.4489 23.8415 28.6174C23.0352 27.7859 21.9602 27.408 20.6164 27.408C19.4741 27.408 18.6678 27.7103 18.0631 28.3151C17.5255 28.8442 17.2568 29.6001 17.2568 30.5072C17.2568 31.1119 17.4583 31.7166 17.9287 32.1702C18.3318 32.6993 19.4069 33.2284 21.1539 33.682C25.387 34.8158 28.3434 36.0253 30.2248 37.1591C32.0389 38.3686 33.3156 39.8048 34.1891 41.619C34.9954 43.3576 35.3985 45.3229 35.3985 47.5151C35.3985 50.0095 34.861 52.3528 33.7859 54.545C32.6436 56.6615 31.0982 58.3245 29.1497 59.4584C27.1339 60.5922 24.6478 61.1214 21.6242 61.1214C16.3161 61.1214 12.6206 59.8363 10.6048 57.1906C8.52186 54.6206 7.37961 51.2946 7.11084 47.2883L16.2489 46.5324C16.4505 48.4221 16.8536 49.8584 17.4583 50.841C18.4662 52.504 19.8772 53.2599 21.7586 53.2599C23.1024 53.2599 24.1775 52.882 24.9166 52.0505C25.6557 51.219 26.0589 50.2363 26.0589 49.178C26.0589 48.1198 25.7229 47.2127 24.9838 46.3812C24.3119 45.6253 22.6321 44.8694 20.0788 44.1135C15.8457 42.904 12.8221 41.3166 11.008 39.2757C9.19378 37.3103 8.32029 34.7403 8.32029 31.641C8.32029 29.6001 8.72344 27.6347 9.66412 25.8206C9.8657 25.4426 10.0673 25.1403 10.2688 24.8379Z" fill="#26156E" stroke="#F8ED0D"/>
<path d="M32.3079 24.8378C31.8375 24.0819 31.3 23.4016 30.6953 22.7969C28.6124 20.9071 25.5215 20 21.5572 20C18.332 20 15.7788 20.5291 13.8974 21.5118C12.352 22.3433 11.1425 23.4772 10.269 24.8378H32.3079Z" fill="#F8ED0D" stroke="#F8ED0D"/>
</svg>
