<svg width="285" height="55" viewBox="0 0 285 55" fill="none" xmlns="http://www.w3.org/2000/svg">
<path d="M22.3921 18.3037H38.7746V21.3763H28.5355V25.9044H36.9827V31.6723H28.5355V37.2785H39.0732V43.6933H22.3921V18.3037Z" fill="#26156E" stroke="#F8ED0D"/>
<path fill-rule="evenodd" clip-rule="evenodd" d="M59.2954 18.3037H42.4863V43.6933H48.6298V32.1575H49.1417C49.6963 32.1575 50.2083 32.3731 50.6776 32.8583C50.9762 33.1817 51.3602 33.8825 51.7868 35.0145L55.0292 43.6933H61.9832L58.9968 35.4997C58.8262 35.0684 58.5702 34.4754 58.1435 33.7208C57.7169 32.9661 57.3756 32.427 57.1623 32.2114C56.821 31.888 56.3091 31.5106 55.5838 31.1872C56.4797 30.8638 57.205 30.4864 57.7169 30.0552C58.5275 29.3544 59.1675 28.438 59.6367 27.2521C60.106 26.1201 60.362 24.7724 60.362 23.2091C60.362 21.3763 60.0634 19.8131 59.4234 18.5732L59.4234 18.5732C59.3808 18.4654 59.3381 18.3576 59.2954 18.3037ZM52.043 26.8212H48.6299V21.0533H52.1709C53.2802 21.0533 54.0481 21.2689 54.4747 21.8079C54.8587 22.2931 55.072 22.9939 55.072 23.9103C55.072 24.665 54.8587 25.4735 54.3467 25.9587C53.7495 26.6056 52.7256 26.8212 52.043 26.8212Z" fill="#26156E"/>
<path d="M42.4863 18.3037V17.8037H41.9863V18.3037H42.4863ZM59.2954 18.3037L59.6875 17.9934L59.5374 17.8037H59.2954V18.3037ZM42.4863 43.6933H41.9863V44.1933H42.4863V43.6933ZM48.6298 43.6933V44.1933H49.1298V43.6933H48.6298ZM48.6298 32.1575V31.6575H48.1298V32.1575H48.6298ZM50.6776 32.8583L51.045 32.519L51.037 32.5106L50.6776 32.8583ZM51.7868 35.0145L52.2552 34.8395L52.2547 34.8382L51.7868 35.0145ZM55.0292 43.6933L54.5608 43.8683L54.6822 44.1933H55.0292V43.6933ZM61.9832 43.6933V44.1933H62.6976L62.453 43.5221L61.9832 43.6933ZM58.9968 35.4997L59.4667 35.3284L59.4617 35.3157L58.9968 35.4997ZM58.1435 33.7208L58.5788 33.4747L58.5788 33.4747L58.1435 33.7208ZM57.1623 32.2114L57.5178 31.8598L57.5121 31.854L57.5062 31.8485L57.1623 32.2114ZM55.5838 31.1872L55.414 30.7169L54.2466 31.1383L55.3801 31.6438L55.5838 31.1872ZM57.7169 30.0552L58.0391 30.4376L58.0439 30.4334L57.7169 30.0552ZM59.6367 27.2521L59.1748 27.0606L59.1718 27.0681L59.6367 27.2521ZM59.4234 18.5732L58.9586 18.7574L58.9677 18.7805L58.9791 18.8026L59.4234 18.5732ZM59.4234 18.5732L58.9585 18.7572L58.9586 18.7574L59.4234 18.5732ZM48.6299 26.8212H48.1299V27.3212H48.6299V26.8212ZM48.6299 21.0533V20.5533H48.1299V21.0533H48.6299ZM54.4747 21.8079L54.0827 22.1182L54.0827 22.1182L54.4747 21.8079ZM54.3467 25.9587L54.0028 25.5958L53.9907 25.6072L53.9794 25.6195L54.3467 25.9587ZM42.4863 18.8037H59.2954V17.8037H42.4863V18.8037ZM42.9863 43.6933V18.3037H41.9863V43.6933H42.9863ZM48.6298 43.1933H42.4863V44.1933H48.6298V43.1933ZM48.1298 32.1575V43.6933H49.1298V32.1575H48.1298ZM49.1417 31.6575H48.6298V32.6575H49.1417V31.6575ZM51.037 32.5106C50.4836 31.9386 49.8458 31.6575 49.1417 31.6575V32.6575C49.5469 32.6575 49.9329 32.8076 50.3182 33.2059L51.037 32.5106ZM52.2547 34.8382C51.8256 33.6995 51.4141 32.9189 51.0449 32.5191L50.3102 33.1975C50.5383 33.4445 50.8948 34.0654 51.3189 35.1908L52.2547 34.8382ZM55.4975 43.5184L52.2552 34.8395L51.3184 35.1895L54.5608 43.8683L55.4975 43.5184ZM61.9832 43.1933H55.0292V44.1933H61.9832V43.1933ZM58.527 35.6709L61.5134 43.8646L62.453 43.5221L59.4666 35.3284L58.527 35.6709ZM57.7083 33.9668C58.1211 34.697 58.3675 35.2683 58.5319 35.6836L59.4617 35.3157C59.2848 34.8685 59.0193 34.2539 58.5788 33.4747L57.7083 33.9668ZM56.8069 32.563C56.8744 32.6313 56.9895 32.7821 57.1529 33.0351C57.3107 33.2796 57.4973 33.5937 57.7083 33.9668L58.5788 33.4747C58.3631 33.0932 58.1658 32.7603 57.993 32.4927C57.8258 32.2337 57.6636 32.0071 57.5178 31.8598L56.8069 32.563ZM55.3801 31.6438C56.0527 31.9438 56.5174 32.2891 56.8184 32.5743L57.5062 31.8485C57.1246 31.4868 56.5654 31.0775 55.7874 30.7305L55.3801 31.6438ZM57.3948 29.6728C56.9454 30.0513 56.2807 30.404 55.414 30.7169L55.7536 31.6575C56.6787 31.3235 57.4646 30.9215 58.039 30.4376L57.3948 29.6728ZM59.1718 27.0681C58.7284 28.1887 58.1322 29.0352 57.3899 29.6769L58.0439 30.4334C58.9228 29.6736 59.6065 28.6873 60.1017 27.436L59.1718 27.0681ZM59.862 23.2091C59.862 24.7183 59.6149 25.9992 59.1749 27.0606L60.0986 27.4436C60.5972 26.2409 60.862 24.8265 60.862 23.2091H59.862ZM58.9791 18.8026C59.5706 19.9485 59.862 21.4254 59.862 23.2091H60.862C60.862 21.3272 60.5561 19.6777 59.8677 18.3439L58.9791 18.8026ZM58.9586 18.7574L58.9586 18.7574L59.8883 18.389L59.8882 18.389L58.9586 18.7574ZM58.9034 18.614C58.8908 18.5981 58.8864 18.589 58.8894 18.5946C58.8917 18.5987 58.8965 18.608 58.9039 18.6243C58.9193 18.6584 58.9361 18.7005 58.9585 18.7572L59.8883 18.3892C59.8681 18.3381 59.8422 18.2724 59.815 18.2122C59.7911 18.1594 59.7492 18.0714 59.6875 17.9934L58.9034 18.614ZM48.6299 27.3212H52.043V26.3212H48.6299V27.3212ZM48.1299 21.0533V26.8212H49.1299V21.0533H48.1299ZM52.1709 20.5533H48.6299V21.5533H52.1709V20.5533ZM54.8668 21.4976C54.289 20.7676 53.3102 20.5533 52.1709 20.5533V21.5533C53.2501 21.5533 53.8072 21.7702 54.0827 22.1182L54.8668 21.4976ZM55.572 23.9103C55.572 22.9217 55.3422 22.0983 54.8668 21.4976L54.0827 22.1182C54.3752 22.4879 54.572 23.0661 54.572 23.9103H55.572ZM54.6907 26.3216C55.3441 25.7024 55.572 24.7313 55.572 23.9103H54.572C54.572 24.5986 54.3733 25.2447 54.0028 25.5958L54.6907 26.3216ZM52.043 27.3212C52.7847 27.3212 53.9788 27.0943 54.7141 26.2979L53.9794 25.6195C53.5201 26.1169 52.6664 26.3212 52.043 26.3212V27.3212Z" fill="#F8ED0D"/>
<path d="M84.936 4.18066L79.5178 43.6397H69.2788L63.6899 18.304H71.1133L74.5689 39.5429L77.8113 4.23457L84.936 4.18066Z" fill="#26156E" stroke="#F8ED0D"/>
<path d="M90.7808 18.3037H96.9242V43.316H90.7808V18.3037Z" fill="#26156E" stroke="#F8ED0D"/>
<path d="M102.598 18.3037H116.634C117.701 20.2443 118.554 23.2091 118.554 25.3654H113.477C113.264 24.5029 113.051 23.9099 112.88 23.4787C112.496 22.8318 112.112 22.2927 111.6 21.9693C111.088 21.592 110.533 21.4302 109.936 21.4302C108.528 21.4302 107.462 22.2388 106.736 23.8021C106.182 24.988 105.883 26.8747 105.883 29.4083C105.883 32.5348 106.224 34.6911 106.907 35.8231C107.59 37.009 108.486 37.602 109.723 37.602C110.875 37.602 111.771 37.1168 112.368 36.1465C112.965 35.2301 113.306 34.5833 113.562 32.7505L118.853 32.8044C119.023 35.4458 118.127 38.3567 117.359 39.8121C116.549 41.2137 115.61 42.3457 114.458 43.0465C113.306 43.8011 111.856 44.1785 110.064 44.1785C107.888 44.1785 106.139 43.6933 104.774 42.8308C103.409 41.9144 102.214 40.3512 101.233 38.0871C100.252 35.8231 99.7397 32.9661 99.7397 29.4083C99.7397 24.7185 100.636 21.1607 102.385 18.6271C102.427 18.5193 102.513 18.4115 102.598 18.3037Z" fill="#26156E" stroke="#F8ED0D"/>
<path d="M120.645 18.3037H126.788V32.6427C126.788 34.152 127.087 35.3918 127.684 36.2543C128.281 37.1168 129.092 37.5481 130.158 37.5481C131.225 37.5481 132.035 37.1168 132.633 36.2543C133.23 35.3918 133.529 34.2059 133.529 32.6427V18.3037H137.624H139.672V32.2114C139.672 33.8825 139.459 35.4997 139.117 36.9551C138.734 38.4645 138.179 39.7582 137.368 40.8902C136.6 41.9684 135.79 42.7769 134.937 43.2082C133.742 43.8551 132.334 44.1785 130.628 44.1785C129.689 44.1785 128.622 44.0707 127.471 43.8551C126.361 43.6933 125.38 43.316 124.612 42.723C123.844 42.1301 123.162 41.3215 122.522 40.2973C121.882 39.2192 121.455 38.141 121.242 37.009C120.858 35.2301 120.645 33.613 120.645 32.2114V18.3037Z" fill="#26156E" stroke="#F8ED0D"/>
<path d="M164.715 18.3037H170.858V25.581H177.556V18.3037H183.7V44.0707H177.556V32.5887H170.858V44.0707H164.715V18.3037Z" fill="#26156E" stroke="#F8ED0D"/>
<path d="M187.455 18.3037H193.598V43.6933H187.455V18.3037Z" fill="#26156E" stroke="#F8ED0D"/>
<path d="M197.437 18.3037H203.026V36.6856H211.814V43.6933H197.437V18.3037Z" fill="#26156E" stroke="#F8ED0D"/>
<path d="M215.911 18.3037H221.286V36.6856H229.776V43.6933H215.911V18.3037Z" fill="#26156E" stroke="#F8ED0D"/>
<path d="M237.412 18.3037H245.689L252.302 43.6933H245.902L244.921 39.0035H237.967L236.986 43.6933H230.714L237.412 18.3037ZM243.598 32.8583L241.465 22.6701L239.29 32.8583H243.598Z" fill="#26156E" stroke="#F8ED0D"/>
<path d="M255.202 18.3037H269.238C269.921 19.5435 270.348 21.2146 270.561 23.263L264.759 23.8021C264.631 22.5084 264.29 21.5381 263.82 20.9451C263.308 20.406 262.626 20.0826 261.772 20.0826C261.09 20.0826 260.535 20.2982 260.151 20.7295C259.81 21.1607 259.639 21.6998 259.639 22.2927C259.639 22.7779 259.767 23.1552 260.066 23.5326C260.365 23.9099 261.047 24.2333 262.114 24.5568C264.802 25.4193 266.721 26.2279 267.873 27.0904C269.025 27.9528 269.878 28.9771 270.39 30.2169C270.902 31.4567 271.158 32.8583 271.158 34.4215C271.158 36.2543 270.817 37.9254 270.134 39.4887C269.409 40.998 268.428 42.184 267.191 42.9387C265.911 43.7472 264.332 44.1246 262.412 44.1246C259.042 44.1246 256.696 43.2082 255.416 41.3754C254.093 39.4887 253.368 37.1707 253.197 34.2598L258.999 33.7747C259.127 35.1223 259.383 36.1465 259.81 36.8473C260.407 37.9793 261.303 38.5723 262.498 38.5723C263.351 38.5723 264.034 38.2489 264.503 37.6559C264.972 37.1168 265.228 36.4161 265.228 35.6614C265.228 34.9067 265.015 34.2598 264.546 33.6669C264.119 33.0739 263.052 32.5348 261.431 31.9958C258.743 31.1872 256.824 30.0013 255.672 28.5997C254.52 27.1443 253.965 25.3115 253.965 23.1013C253.965 21.6459 254.264 20.2982 254.818 19.0045C254.946 18.735 255.074 18.5193 255.202 18.3037Z" fill="#26156E" stroke="#F8ED0D"/>
<path d="M89.1969 51.8586L90.2139 52.2918C90.0512 53.2668 89.8071 53.9167 89.441 54.35C89.0749 54.7833 88.6275 54.9999 88.058 54.9999C87.3665 54.9999 86.797 54.675 86.3496 53.9167C85.9428 53.1584 85.6987 52.0752 85.6987 50.7753C85.6987 49.3671 85.9428 48.3922 86.3496 47.6339C86.797 46.8757 87.4072 46.4424 88.1393 46.4424C88.7495 46.4424 89.2783 46.7674 89.6444 47.309C89.8885 47.7423 90.0918 48.1756 90.1732 48.8255L89.1563 49.2588C89.1156 48.8255 88.9529 48.5005 88.7902 48.2839C88.5868 47.9589 88.3427 47.8506 88.058 47.8506C87.6919 47.8506 87.3665 48.0672 87.1224 48.5005C86.8784 48.9338 86.7563 49.6921 86.7563 50.667C86.7563 51.7502 86.8784 52.5085 87.1224 52.9418C87.3665 53.3751 87.6512 53.5917 88.058 53.5917C88.3427 53.5917 88.5461 53.3751 88.7495 53.1584C88.9529 52.8335 89.1156 52.4002 89.1969 51.8586Z" fill="white"/>
<path d="M91.3423 46.4424H92.5046V51.0503C92.5046 51.7086 92.5046 52.2571 92.5493 52.4765C92.594 52.8057 92.6834 53.0251 92.8622 53.2445C93.0411 53.464 93.3093 53.5737 93.6222 53.5737C93.9351 53.5737 94.2034 53.464 94.3375 53.2445C94.5163 53.0251 94.6057 52.8057 94.6504 52.5863C94.6951 52.2571 94.6951 51.8183 94.6951 51.16V46.4424H95.8574V50.9406C95.8574 51.928 95.8127 52.5863 95.768 53.0251C95.6786 53.464 95.5892 53.7931 95.4104 54.1222C95.2316 54.3417 95.008 54.5611 94.7398 54.7805C94.4716 54.8902 94.114 54.9999 93.6669 54.9999C93.1305 54.9999 92.7281 54.8902 92.4152 54.7805C92.147 54.5611 91.9234 54.3417 91.7893 54.0125C91.6105 53.6834 91.5211 53.3542 91.4317 53.1348C91.387 52.5863 91.3423 51.928 91.3423 50.9406V46.4424Z" fill="white"/>
<path d="M100.485 51.8586L101.501 52.2918C101.339 53.2668 101.095 53.9167 100.729 54.35C100.363 54.7833 99.9151 54.9999 99.3456 54.9999C98.6541 54.9999 98.1253 54.675 97.6778 53.9167C97.2304 53.1584 96.9863 52.0752 96.9863 50.7753C96.9863 49.3671 97.2304 48.3922 97.6778 47.6339C98.1253 46.8757 98.6948 46.4424 99.4269 46.4424C100.037 46.4424 100.566 46.7674 100.973 47.309C101.217 47.7423 101.379 48.1756 101.501 48.8255L100.444 49.2588C100.403 48.8255 100.281 48.5005 100.078 48.2839C99.8744 47.9589 99.6303 47.8506 99.3863 47.8506C98.9795 47.8506 98.6541 48.0672 98.4507 48.5005C98.2066 48.9338 98.0846 49.6921 98.0846 50.667C98.0846 51.7502 98.2066 52.5085 98.4507 52.9418C98.6541 53.3751 98.9795 53.5917 99.3456 53.5917C99.6303 53.5917 99.8744 53.3751 100.078 53.1584C100.281 52.8335 100.403 52.4002 100.485 51.8586Z" fill="white"/>
<path d="M102.63 54.9999V46.4424H103.781V49.7765H105.995V46.4424H107.146V54.9999H105.995V51.2213H103.781V54.9999H102.63Z" fill="white"/>
<path d="M108.274 54.9999V46.4424H109.403V54.9999H108.274Z" fill="white"/>
<path d="M110.532 54.9999V46.4424H111.51V53.5361H113.918V54.9999H110.532Z" fill="white"/>
<path d="M115.047 54.9999V46.4424H115.998V53.5361H118.433V54.9999H115.047Z" fill="white"/>
<path d="M124.077 54.9999H122.842L122.357 52.9995H120.109L119.668 54.9999H118.433L120.638 46.4424H121.828L124.077 54.9999ZM122.005 51.5547L121.211 48.4428L120.461 51.5547H122.005Z" fill="white"/>
<path d="M124.077 52.1835L125.173 51.9669C125.217 52.6168 125.348 52.9418 125.568 53.2668C125.787 53.4834 126.05 53.5917 126.4 53.5917C126.751 53.5917 127.014 53.4834 127.19 53.2668C127.365 53.0501 127.453 52.7251 127.453 52.5085C127.453 52.2918 127.453 52.0752 127.365 51.9669C127.277 51.8586 127.146 51.7502 126.97 51.6419C126.839 51.5336 126.532 51.4253 126.05 51.2086C125.436 50.992 125.042 50.7753 124.779 50.4503C124.472 50.0171 124.296 49.3671 124.296 48.7172C124.296 48.2839 124.34 47.9589 124.516 47.5256C124.691 47.2006 124.91 46.8757 125.217 46.7674C125.524 46.5507 125.874 46.4424 126.313 46.4424C127.014 46.4424 127.54 46.659 127.891 47.0923C128.242 47.6339 128.417 48.1756 128.417 48.9338L127.321 49.0421C127.277 48.6088 127.146 48.2839 127.014 48.0672C126.839 47.9589 126.62 47.8506 126.313 47.8506C125.962 47.8506 125.699 47.9589 125.524 48.1756C125.392 48.2839 125.348 48.3922 125.348 48.6088C125.348 48.8255 125.392 49.0421 125.524 49.1505C125.655 49.3671 126.006 49.4754 126.532 49.6921C127.102 49.9087 127.496 50.1254 127.759 50.342C128.022 50.5587 128.242 50.7753 128.373 51.1003C128.505 51.5336 128.592 51.9669 128.592 52.5085C128.592 52.9418 128.505 53.3751 128.329 53.8084C128.154 54.2417 127.891 54.4583 127.584 54.675C127.277 54.8916 126.839 54.9999 126.357 54.9999C125.655 54.9999 125.129 54.7833 124.735 54.2417C124.384 53.8084 124.165 53.0501 124.077 52.1835Z" fill="white"/>
<path d="M131.979 54.9999V46.4424H133.107V54.9999H131.979Z" fill="white"/>
<path d="M134.236 54.9999V46.4424H135.309L137.679 52.2215V46.4424H138.751V54.9999H137.589L135.265 49.4431V54.9999H134.236Z" fill="white"/>
<path d="M139.88 46.4424H141.882C142.308 46.4424 142.649 46.5535 142.905 46.6647C143.203 46.7758 143.458 47.1092 143.714 47.4426C143.927 47.776 144.097 48.2206 144.225 48.7763C144.353 49.3319 144.396 49.9988 144.396 50.7767C144.396 51.5547 144.353 52.1104 144.225 52.6661C144.097 53.2217 143.884 53.7774 143.671 54.1108C143.458 54.4442 143.203 54.6665 142.905 54.7777C142.649 54.8888 142.308 54.9999 141.925 54.9999H139.88V46.4424ZM140.945 47.8872V53.5551H141.797C142.095 53.5551 142.308 53.5551 142.436 53.444C142.606 53.3329 142.777 53.2217 142.862 53.1106C142.99 52.8883 143.075 52.6661 143.16 52.3326C143.245 51.8881 143.288 51.3324 143.288 50.7767C143.288 50.1099 143.245 49.5542 143.16 49.2208C143.075 48.8874 142.99 48.554 142.862 48.4428C142.734 48.2206 142.564 48.1094 142.351 47.9983C142.181 47.9983 141.882 47.8872 141.456 47.8872H140.945Z" fill="white"/>
<path d="M145.524 46.4424H146.396V51.0503C146.396 51.7086 146.396 52.2571 146.429 52.4765C146.463 52.8057 146.53 53.0251 146.664 53.2445C146.798 53.464 146.999 53.5737 147.234 53.5737C147.469 53.5737 147.67 53.464 147.77 53.2445C147.904 53.0251 147.971 52.8057 148.005 52.5863C148.039 52.2571 148.039 51.8183 148.039 51.16V46.4424H148.91V50.9406C148.91 51.928 148.877 52.5863 148.843 53.0251C148.776 53.464 148.709 53.7931 148.575 54.1222C148.441 54.3417 148.273 54.5611 148.072 54.7805C147.871 54.8902 147.603 54.9999 147.267 54.9999C146.865 54.9999 146.563 54.8902 146.329 54.7805C146.127 54.5611 145.96 54.3417 145.859 54.0125C145.725 53.6834 145.658 53.3542 145.591 53.1348C145.557 52.5863 145.524 51.928 145.524 50.9406V46.4424Z" fill="white"/>
<path d="M150.039 52.1835L151.124 51.9669C151.211 52.6168 151.342 52.9418 151.515 53.2668C151.732 53.4834 151.993 53.5917 152.34 53.5917C152.687 53.5917 152.948 53.4834 153.165 53.2668C153.339 53.0501 153.425 52.7251 153.425 52.5085C153.425 52.2918 153.382 52.0752 153.295 51.9669C153.208 51.8586 153.078 51.7502 152.904 51.6419C152.774 51.5336 152.47 51.4253 152.036 51.2086C151.428 50.992 150.994 50.7753 150.777 50.4503C150.43 50.0171 150.256 49.3671 150.256 48.7172C150.256 48.2839 150.343 47.9589 150.517 47.5256C150.647 47.2006 150.907 46.8757 151.168 46.7674C151.472 46.5507 151.862 46.4424 152.253 46.4424C152.948 46.4424 153.469 46.659 153.816 47.0923C154.163 47.6339 154.337 48.1756 154.381 48.9338L153.252 49.0421C153.208 48.6088 153.122 48.2839 152.948 48.0672C152.818 47.9589 152.557 47.8506 152.253 47.8506C151.949 47.8506 151.689 47.9589 151.515 48.1756C151.385 48.2839 151.342 48.3922 151.342 48.6088C151.342 48.8255 151.385 49.0421 151.472 49.1505C151.645 49.3671 151.949 49.4754 152.514 49.6921C153.035 49.9087 153.469 50.1254 153.729 50.342C153.946 50.5587 154.163 50.7753 154.337 51.1003C154.467 51.5336 154.554 51.9669 154.554 52.5085C154.554 52.9418 154.467 53.3751 154.294 53.8084C154.077 54.2417 153.86 54.4583 153.512 54.675C153.208 54.8916 152.818 54.9999 152.34 54.9999C151.645 54.9999 151.081 54.7833 150.734 54.2417C150.343 53.8084 150.126 53.0501 150.039 52.1835Z" fill="white"/>
<path d="M156.957 54.9999V47.8872H155.683V46.4424H159.069V47.8872H157.829V54.9999H156.957Z" fill="white"/>
<path d="M160.198 54.9999V46.4424H162.337C162.852 46.4424 163.248 46.5535 163.486 46.6647C163.763 46.8869 163.961 47.1092 164.08 47.5538C164.238 47.8872 164.317 48.3317 164.317 48.8874C164.317 49.5542 164.198 49.9988 163.961 50.4433C163.763 50.8879 163.446 51.1101 162.971 51.2213C163.208 51.4435 163.406 51.6658 163.525 51.8881C163.684 52.2215 163.882 52.6661 164.119 53.3329L164.713 54.9999H163.486L162.773 53.1106C162.495 52.4438 162.337 51.9992 162.218 51.8881C162.139 51.6658 162.02 51.5547 161.941 51.5547C161.822 51.4435 161.664 51.4435 161.426 51.4435H161.228V54.9999H160.198ZM161.228 50.1099H161.981C162.456 50.1099 162.773 49.9988 162.891 49.9988C163.01 49.8876 163.09 49.7765 163.169 49.6654C163.248 49.4431 163.248 49.2208 163.248 48.9985C163.248 48.6651 163.208 48.4428 163.129 48.3317C163.05 48.1094 162.891 47.9983 162.733 47.9983C162.654 47.8872 162.416 47.8872 162.02 47.8872H161.228V50.1099Z" fill="white"/>
<path d="M165.842 54.9999V46.4424H166.971V54.9999H165.842Z" fill="white"/>
<path d="M172.615 54.9999H171.381L170.895 52.9995H168.647L168.206 54.9999H166.971L169.176 46.4424H170.366L172.615 54.9999ZM170.543 51.5547L169.749 48.4428L168.999 51.5547H170.543Z" fill="white"/>
<path d="M173.744 54.9999V46.4424H174.722V53.5361H177.13V54.9999H173.744Z" fill="white"/>
<path d="M178.259 54.9999V46.4424H181.575V47.8872H179.176V49.7765H181.398V51.2213H179.176V53.5551H181.645V54.9999H178.259Z" fill="white"/>
<path d="M182.774 52.1835L183.903 51.9669C183.946 52.6168 184.076 52.9418 184.293 53.2668C184.467 53.4834 184.728 53.5917 185.075 53.5917C185.422 53.5917 185.726 53.4834 185.9 53.2668C186.073 53.0501 186.16 52.7251 186.16 52.5085C186.16 52.2918 186.117 52.0752 186.03 51.9669C185.987 51.8586 185.856 51.7502 185.639 51.6419C185.509 51.5336 185.205 51.4253 184.771 51.2086C184.163 50.992 183.729 50.7753 183.512 50.4503C183.165 50.0171 182.991 49.3671 182.991 48.7172C182.991 48.2839 183.078 47.9589 183.251 47.5256C183.382 47.2006 183.642 46.8757 183.946 46.7674C184.207 46.5507 184.597 46.4424 185.031 46.4424C185.683 46.4424 186.204 46.659 186.551 47.0923C186.898 47.6339 187.115 48.1756 187.115 48.9338L185.987 49.0421C185.943 48.6088 185.856 48.2839 185.683 48.0672C185.552 47.9589 185.292 47.8506 184.988 47.8506C184.684 47.8506 184.424 47.9589 184.25 48.1756C184.12 48.2839 184.076 48.3922 184.076 48.6088C184.076 48.8255 184.12 49.0421 184.25 49.1505C184.38 49.3671 184.728 49.4754 185.249 49.6921C185.813 49.9087 186.204 50.1254 186.464 50.342C186.725 50.5587 186.898 50.7753 187.072 51.1003C187.202 51.5336 187.289 51.9669 187.289 52.5085C187.289 52.9418 187.202 53.3751 187.029 53.8084C186.855 54.2417 186.594 54.4583 186.291 54.675C185.943 54.8916 185.552 54.9999 185.075 54.9999C184.38 54.9999 183.859 54.7833 183.469 54.2417C183.078 53.8084 182.861 53.0501 182.774 52.1835Z" fill="white"/>
<path d="M89.1969 51.8586L90.2139 52.2918C90.0512 53.2668 89.8071 53.9167 89.441 54.35C89.0749 54.7833 88.6275 54.9999 88.058 54.9999C87.3665 54.9999 86.797 54.675 86.3496 53.9167C85.9428 53.1584 85.6987 52.0752 85.6987 50.7753C85.6987 49.3671 85.9428 48.3922 86.3496 47.6339C86.797 46.8757 87.4072 46.4424 88.1393 46.4424C88.7495 46.4424 89.2783 46.7674 89.6444 47.309C89.8885 47.7423 90.0918 48.1756 90.1732 48.8255L89.1563 49.2588C89.1156 48.8255 88.9529 48.5005 88.7902 48.2839C88.5868 47.9589 88.3427 47.8506 88.058 47.8506C87.6919 47.8506 87.3665 48.0672 87.1224 48.5005C86.8784 48.9338 86.7563 49.6921 86.7563 50.667C86.7563 51.7502 86.8784 52.5085 87.1224 52.9418C87.3665 53.3751 87.6512 53.5917 88.058 53.5917C88.3427 53.5917 88.5461 53.3751 88.7495 53.1584C88.9529 52.8335 89.1156 52.4002 89.1969 51.8586Z" fill="white"/>
<path d="M91.3423 46.4424H92.5046V51.0503C92.5046 51.7086 92.5046 52.2571 92.5493 52.4765C92.594 52.8057 92.6834 53.0251 92.8622 53.2445C93.0411 53.464 93.3093 53.5737 93.6222 53.5737C93.9351 53.5737 94.2034 53.464 94.3375 53.2445C94.5163 53.0251 94.6057 52.8057 94.6504 52.5863C94.6951 52.2571 94.6951 51.8183 94.6951 51.16V46.4424H95.8574V50.9406C95.8574 51.928 95.8127 52.5863 95.768 53.0251C95.6786 53.464 95.5892 53.7931 95.4104 54.1222C95.2316 54.3417 95.008 54.5611 94.7398 54.7805C94.4716 54.8902 94.114 54.9999 93.6669 54.9999C93.1305 54.9999 92.7281 54.8902 92.4152 54.7805C92.147 54.5611 91.9234 54.3417 91.7893 54.0125C91.6105 53.6834 91.5211 53.3542 91.4317 53.1348C91.387 52.5863 91.3423 51.928 91.3423 50.9406V46.4424Z" fill="white"/>
<path d="M100.485 51.8586L101.501 52.2918C101.339 53.2668 101.095 53.9167 100.729 54.35C100.363 54.7833 99.9151 54.9999 99.3456 54.9999C98.6541 54.9999 98.1253 54.675 97.6778 53.9167C97.2304 53.1584 96.9863 52.0752 96.9863 50.7753C96.9863 49.3671 97.2304 48.3922 97.6778 47.6339C98.1253 46.8757 98.6948 46.4424 99.4269 46.4424C100.037 46.4424 100.566 46.7674 100.973 47.309C101.217 47.7423 101.379 48.1756 101.501 48.8255L100.444 49.2588C100.403 48.8255 100.281 48.5005 100.078 48.2839C99.8744 47.9589 99.6303 47.8506 99.3863 47.8506C98.9795 47.8506 98.6541 48.0672 98.4507 48.5005C98.2066 48.9338 98.0846 49.6921 98.0846 50.667C98.0846 51.7502 98.2066 52.5085 98.4507 52.9418C98.6541 53.3751 98.9795 53.5917 99.3456 53.5917C99.6303 53.5917 99.8744 53.3751 100.078 53.1584C100.281 52.8335 100.403 52.4002 100.485 51.8586Z" fill="white"/>
<path d="M102.63 54.9999V46.4424H103.781V49.7765H105.995V46.4424H107.146V54.9999H105.995V51.2213H103.781V54.9999H102.63Z" fill="white"/>
<path d="M108.274 54.9999V46.4424H109.403V54.9999H108.274Z" fill="white"/>
<path d="M110.532 54.9999V46.4424H111.51V53.5361H113.918V54.9999H110.532Z" fill="white"/>
<path d="M115.047 54.9999V46.4424H115.998V53.5361H118.433V54.9999H115.047Z" fill="white"/>
<path d="M124.077 54.9999H122.842L122.357 52.9995H120.109L119.668 54.9999H118.433L120.638 46.4424H121.828L124.077 54.9999ZM122.005 51.5547L121.211 48.4428L120.461 51.5547H122.005Z" fill="white"/>
<path d="M124.077 52.1835L125.173 51.9669C125.217 52.6168 125.348 52.9418 125.568 53.2668C125.787 53.4834 126.05 53.5917 126.4 53.5917C126.751 53.5917 127.014 53.4834 127.19 53.2668C127.365 53.0501 127.453 52.7251 127.453 52.5085C127.453 52.2918 127.453 52.0752 127.365 51.9669C127.277 51.8586 127.146 51.7502 126.97 51.6419C126.839 51.5336 126.532 51.4253 126.05 51.2086C125.436 50.992 125.042 50.7753 124.779 50.4503C124.472 50.0171 124.296 49.3671 124.296 48.7172C124.296 48.2839 124.34 47.9589 124.516 47.5256C124.691 47.2006 124.91 46.8757 125.217 46.7674C125.524 46.5507 125.874 46.4424 126.313 46.4424C127.014 46.4424 127.54 46.659 127.891 47.0923C128.242 47.6339 128.417 48.1756 128.417 48.9338L127.321 49.0421C127.277 48.6088 127.146 48.2839 127.014 48.0672C126.839 47.9589 126.62 47.8506 126.313 47.8506C125.962 47.8506 125.699 47.9589 125.524 48.1756C125.392 48.2839 125.348 48.3922 125.348 48.6088C125.348 48.8255 125.392 49.0421 125.524 49.1505C125.655 49.3671 126.006 49.4754 126.532 49.6921C127.102 49.9087 127.496 50.1254 127.759 50.342C128.022 50.5587 128.242 50.7753 128.373 51.1003C128.505 51.5336 128.592 51.9669 128.592 52.5085C128.592 52.9418 128.505 53.3751 128.329 53.8084C128.154 54.2417 127.891 54.4583 127.584 54.675C127.277 54.8916 126.839 54.9999 126.357 54.9999C125.655 54.9999 125.129 54.7833 124.735 54.2417C124.384 53.8084 124.165 53.0501 124.077 52.1835Z" fill="white"/>
<path d="M131.979 54.9999V46.4424H133.107V54.9999H131.979Z" fill="white"/>
<path d="M134.236 54.9999V46.4424H135.309L137.679 52.2215V46.4424H138.751V54.9999H137.589L135.265 49.4431V54.9999H134.236Z" fill="white"/>
<path d="M139.88 46.4424H141.882C142.308 46.4424 142.649 46.5535 142.905 46.6647C143.203 46.7758 143.458 47.1092 143.714 47.4426C143.927 47.776 144.097 48.2206 144.225 48.7763C144.353 49.3319 144.396 49.9988 144.396 50.7767C144.396 51.5547 144.353 52.1104 144.225 52.6661C144.097 53.2217 143.884 53.7774 143.671 54.1108C143.458 54.4442 143.203 54.6665 142.905 54.7777C142.649 54.8888 142.308 54.9999 141.925 54.9999H139.88V46.4424ZM140.945 47.8872V53.5551H141.797C142.095 53.5551 142.308 53.5551 142.436 53.444C142.606 53.3329 142.777 53.2217 142.862 53.1106C142.99 52.8883 143.075 52.6661 143.16 52.3326C143.245 51.8881 143.288 51.3324 143.288 50.7767C143.288 50.1099 143.245 49.5542 143.16 49.2208C143.075 48.8874 142.99 48.554 142.862 48.4428C142.734 48.2206 142.564 48.1094 142.351 47.9983C142.181 47.9983 141.882 47.8872 141.456 47.8872H140.945Z" fill="white"/>
<path d="M145.524 46.4424H146.396V51.0503C146.396 51.7086 146.396 52.2571 146.429 52.4765C146.463 52.8057 146.53 53.0251 146.664 53.2445C146.798 53.464 146.999 53.5737 147.234 53.5737C147.469 53.5737 147.67 53.464 147.77 53.2445C147.904 53.0251 147.971 52.8057 148.005 52.5863C148.039 52.2571 148.039 51.8183 148.039 51.16V46.4424H148.91V50.9406C148.91 51.928 148.877 52.5863 148.843 53.0251C148.776 53.464 148.709 53.7931 148.575 54.1222C148.441 54.3417 148.273 54.5611 148.072 54.7805C147.871 54.8902 147.603 54.9999 147.267 54.9999C146.865 54.9999 146.563 54.8902 146.329 54.7805C146.127 54.5611 145.96 54.3417 145.859 54.0125C145.725 53.6834 145.658 53.3542 145.591 53.1348C145.557 52.5863 145.524 51.928 145.524 50.9406V46.4424Z" fill="white"/>
<path d="M150.039 52.1835L151.124 51.9669C151.211 52.6168 151.342 52.9418 151.515 53.2668C151.732 53.4834 151.993 53.5917 152.34 53.5917C152.687 53.5917 152.948 53.4834 153.165 53.2668C153.339 53.0501 153.425 52.7251 153.425 52.5085C153.425 52.2918 153.382 52.0752 153.295 51.9669C153.208 51.8586 153.078 51.7502 152.904 51.6419C152.774 51.5336 152.47 51.4253 152.036 51.2086C151.428 50.992 150.994 50.7753 150.777 50.4503C150.43 50.0171 150.256 49.3671 150.256 48.7172C150.256 48.2839 150.343 47.9589 150.517 47.5256C150.647 47.2006 150.907 46.8757 151.168 46.7674C151.472 46.5507 151.862 46.4424 152.253 46.4424C152.948 46.4424 153.469 46.659 153.816 47.0923C154.163 47.6339 154.337 48.1756 154.381 48.9338L153.252 49.0421C153.208 48.6088 153.122 48.2839 152.948 48.0672C152.818 47.9589 152.557 47.8506 152.253 47.8506C151.949 47.8506 151.689 47.9589 151.515 48.1756C151.385 48.2839 151.342 48.3922 151.342 48.6088C151.342 48.8255 151.385 49.0421 151.472 49.1505C151.645 49.3671 151.949 49.4754 152.514 49.6921C153.035 49.9087 153.469 50.1254 153.729 50.342C153.946 50.5587 154.163 50.7753 154.337 51.1003C154.467 51.5336 154.554 51.9669 154.554 52.5085C154.554 52.9418 154.467 53.3751 154.294 53.8084C154.077 54.2417 153.86 54.4583 153.512 54.675C153.208 54.8916 152.818 54.9999 152.34 54.9999C151.645 54.9999 151.081 54.7833 150.734 54.2417C150.343 53.8084 150.126 53.0501 150.039 52.1835Z" fill="white"/>
<path d="M156.957 54.9999V47.8872H155.683V46.4424H159.069V47.8872H157.829V54.9999H156.957Z" fill="white"/>
<path d="M160.198 54.9999V46.4424H162.337C162.852 46.4424 163.248 46.5535 163.486 46.6647C163.763 46.8869 163.961 47.1092 164.08 47.5538C164.238 47.8872 164.317 48.3317 164.317 48.8874C164.317 49.5542 164.198 49.9988 163.961 50.4433C163.763 50.8879 163.446 51.1101 162.971 51.2213C163.208 51.4435 163.406 51.6658 163.525 51.8881C163.684 52.2215 163.882 52.6661 164.119 53.3329L164.713 54.9999H163.486L162.773 53.1106C162.495 52.4438 162.337 51.9992 162.218 51.8881C162.139 51.6658 162.02 51.5547 161.941 51.5547C161.822 51.4435 161.664 51.4435 161.426 51.4435H161.228V54.9999H160.198ZM161.228 50.1099H161.981C162.456 50.1099 162.773 49.9988 162.891 49.9988C163.01 49.8876 163.09 49.7765 163.169 49.6654C163.248 49.4431 163.248 49.2208 163.248 48.9985C163.248 48.6651 163.208 48.4428 163.129 48.3317C163.05 48.1094 162.891 47.9983 162.733 47.9983C162.654 47.8872 162.416 47.8872 162.02 47.8872H161.228V50.1099Z" fill="white"/>
<path d="M165.842 54.9999V46.4424H166.971V54.9999H165.842Z" fill="white"/>
<path d="M172.615 54.9999H171.381L170.895 52.9995H168.647L168.206 54.9999H166.971L169.176 46.4424H170.366L172.615 54.9999ZM170.543 51.5547L169.749 48.4428L168.999 51.5547H170.543Z" fill="white"/>
<path d="M173.744 54.9999V46.4424H174.722V53.5361H177.13V54.9999H173.744Z" fill="white"/>
<path d="M178.259 54.9999V46.4424H181.575V47.8872H179.176V49.7765H181.398V51.2213H179.176V53.5551H181.645V54.9999H178.259Z" fill="white"/>
<path d="M182.774 52.1835L183.903 51.9669C183.946 52.6168 184.076 52.9418 184.293 53.2668C184.467 53.4834 184.728 53.5917 185.075 53.5917C185.422 53.5917 185.726 53.4834 185.9 53.2668C186.073 53.0501 186.16 52.7251 186.16 52.5085C186.16 52.2918 186.117 52.0752 186.03 51.9669C185.987 51.8586 185.856 51.7502 185.639 51.6419C185.509 51.5336 185.205 51.4253 184.771 51.2086C184.163 50.992 183.729 50.7753 183.512 50.4503C183.165 50.0171 182.991 49.3671 182.991 48.7172C182.991 48.2839 183.078 47.9589 183.251 47.5256C183.382 47.2006 183.642 46.8757 183.946 46.7674C184.207 46.5507 184.597 46.4424 185.031 46.4424C185.683 46.4424 186.204 46.659 186.551 47.0923C186.898 47.6339 187.115 48.1756 187.115 48.9338L185.987 49.0421C185.943 48.6088 185.856 48.2839 185.683 48.0672C185.552 47.9589 185.292 47.8506 184.988 47.8506C184.684 47.8506 184.424 47.9589 184.25 48.1756C184.12 48.2839 184.076 48.3922 184.076 48.6088C184.076 48.8255 184.12 49.0421 184.25 49.1505C184.38 49.3671 184.728 49.4754 185.249 49.6921C185.813 49.9087 186.204 50.1254 186.464 50.342C186.725 50.5587 186.898 50.7753 187.072 51.1003C187.202 51.5336 187.289 51.9669 187.289 52.5085C187.289 52.9418 187.202 53.3751 187.029 53.8084C186.855 54.2417 186.594 54.4583 186.291 54.675C185.943 54.8916 185.552 54.9999 185.075 54.9999C184.38 54.9999 183.859 54.7833 183.469 54.2417C183.078 53.8084 182.861 53.0501 182.774 52.1835Z" fill="white"/>
<path d="M284 44.8794H278.837V44.0169H283.402V40.8364H284V44.8794Z" fill="#FEFEFE"/>
<path d="M284 38.0329H279.435V40.1352H278.837V35.0142H279.435V37.1704H284V38.0329Z" fill="#FEFEFE"/>
<path d="M284 33.2895H278.837V31.0794C278.837 30.5403 278.88 30.163 278.923 29.8934C278.965 29.5161 279.093 29.1927 279.264 28.9231C279.52 28.5997 279.819 28.3302 280.16 28.1685C280.501 28.0067 280.928 27.8989 281.397 27.8989C281.781 27.8989 282.122 28.0067 282.421 28.1145C282.72 28.2224 282.976 28.3841 283.189 28.5458C283.36 28.7075 283.53 28.9231 283.658 29.1388C283.744 29.3544 283.829 29.6239 283.914 29.8934C283.957 30.2169 284 30.5403 284 30.9716V33.2895ZM283.402 32.427V31.0794C283.402 30.6481 283.36 30.2708 283.274 30.0552C283.232 29.7856 283.146 29.6239 283.018 29.4622C282.848 29.2466 282.634 29.0849 282.378 28.977C282.08 28.8692 281.781 28.8153 281.355 28.8153C280.843 28.8153 280.416 28.9231 280.117 29.1388C279.819 29.3544 279.648 29.6239 279.563 29.9473C279.477 30.2169 279.435 30.5403 279.435 31.0794V32.427H283.402Z" fill="#FEFEFE"/>
<path d="M284 26.6592L278.837 24.1257V23.2093L284 20.5679V21.5382L282.421 22.2929V25.0421L284 25.7428V26.6592ZM281.866 24.7725V22.5624L280.459 23.2093C280.032 23.4249 279.648 23.5866 279.349 23.6944C279.691 23.8022 280.032 23.91 280.373 24.0717L281.866 24.7725Z" fill="#FEFEFE"/>
<path d="M284 44.8794H278.837V44.0169H283.402V40.8364H284V44.8794Z" stroke="#FEFEFE" stroke-width="0.288"/>
<path d="M284 38.0329H279.435V40.1352H278.837V35.0142H279.435V37.1704H284V38.0329Z" stroke="#FEFEFE" stroke-width="0.288"/>
<path d="M284 33.2895H278.837V31.0794C278.837 30.5403 278.88 30.163 278.923 29.8934C278.965 29.5161 279.093 29.1927 279.264 28.9231C279.52 28.5997 279.819 28.3302 280.16 28.1685C280.501 28.0067 280.928 27.8989 281.397 27.8989C281.781 27.8989 282.122 28.0067 282.421 28.1145C282.72 28.2224 282.976 28.3841 283.189 28.5458C283.36 28.7075 283.53 28.9231 283.658 29.1388C283.744 29.3544 283.829 29.6239 283.914 29.8934C283.957 30.2169 284 30.5403 284 30.9716V33.2895ZM283.402 32.427V31.0794C283.402 30.6481 283.36 30.2708 283.274 30.0552C283.232 29.7856 283.146 29.6239 283.018 29.4622C282.848 29.2466 282.634 29.0849 282.378 28.977C282.08 28.8692 281.781 28.8153 281.355 28.8153C280.843 28.8153 280.416 28.9231 280.117 29.1388C279.819 29.3544 279.648 29.6239 279.563 29.9473C279.477 30.2169 279.435 30.5403 279.435 31.0794V32.427H283.402Z" stroke="#FEFEFE" stroke-width="0.288"/>
<path d="M284 26.6592L278.837 24.1257V23.2093L284 20.5679V21.5382L282.421 22.2929V25.0421L284 25.7428V26.6592ZM281.866 24.7725V22.5624L280.459 23.2093C280.032 23.4249 279.648 23.5866 279.349 23.6944C279.691 23.8022 280.032 23.91 280.373 24.0717L281.866 24.7725Z" stroke="#FEFEFE" stroke-width="0.288"/>
<path fill-rule="evenodd" clip-rule="evenodd" d="M145.559 18.0342H159.595C160.705 19.9748 161.515 22.9396 161.558 25.0958H156.438C156.268 24.2333 156.054 23.6404 155.841 23.2091C155.5 22.5623 155.073 22.0232 154.604 21.6998C154.092 21.3224 153.537 21.1607 152.94 21.1607C151.532 21.1607 150.466 21.9693 149.74 23.5326C149.143 24.7185 148.887 26.6052 148.887 29.1388C148.887 32.2653 149.228 34.4215 149.868 35.5536C150.551 36.7395 151.49 37.3325 152.684 37.3325C153.879 37.3325 154.775 36.8473 155.372 35.9309C155.969 34.9606 156.268 34.3137 156.566 32.4809L161.857 32.5348C162.027 35.1762 161.089 38.0871 160.321 39.5426C159.553 40.998 158.614 42.0762 157.42 42.7769C156.31 43.5316 154.817 43.909 153.068 43.909C150.892 43.909 149.143 43.4238 147.778 42.5613C146.413 41.6449 145.218 40.0816 144.237 37.8176C143.213 35.5536 142.744 32.6966 142.744 29.1927C142.744 24.5029 143.597 20.8912 145.346 18.3576C145.431 18.2498 145.517 18.142 145.559 18.0342Z" fill="#26156E" stroke="#F8ED0D"/>
<path d="M17.3576 18.519C17.059 17.926 16.7177 17.4948 16.2911 17.0636C14.9685 15.7159 13.0487 15.0151 10.5316 15.0151C8.44112 15.0151 6.81994 15.3925 5.62538 16.1472C4.6868 16.7401 3.91887 17.5487 3.36426 18.519H17.3576Z" fill="#F8ED0D" stroke="#F8ED0D"/>
<path d="M38.7746 18.3034V15.2847H22.3921V18.3034H38.7746Z" fill="#F8ED0D" stroke="#F8ED0D"/>
<path d="M59.2954 18.3034C58.6982 17.1714 57.9302 16.4167 57.0343 15.9854C56.0104 15.5003 54.5599 15.2847 52.6827 15.2847H42.4863V18.3034H59.2954Z" fill="#F8ED0D" stroke="#F8ED0D"/>
<path d="M84.9353 4.18044L77.8106 4.23435L78.1093 1.05391L85.4046 1L84.9353 4.18044ZM71.1126 18.3038L70.6433 15.285H63.0493L63.6893 18.3038H71.1126Z" fill="#F8ED0D" stroke="#F8ED0D"/>
<path d="M96.9242 18.3033V14.9072H90.7808V18.3033H96.9242Z" fill="#F8ED0D" stroke="#F8ED0D"/>
<path d="M116.634 18.304C116.336 17.7649 115.994 17.3337 115.653 17.0102C114.245 15.5548 112.283 14.854 109.765 14.854C106.736 14.854 104.347 15.986 102.598 18.304H116.634Z" fill="#F8ED0D" stroke="#F8ED0D"/>
<path d="M139.672 18.3034V15.2847H133.529V18.3034H137.624H139.672ZM126.788 18.3034V15.2847H120.645V18.3034H126.788Z" fill="#F8ED0D" stroke="#F8ED0D"/>
<path d="M170.858 18.3035V15.6621H164.715V18.3035H170.858ZM183.7 18.3035V15.6621H177.556V18.3035H183.7Z" fill="#F8ED0D" stroke="#F8ED0D"/>
<path d="M193.598 18.3034V15.2847H187.455V18.3034H193.598Z" fill="#F8ED0D" stroke="#F8ED0D"/>
<path d="M203.026 18.3034V15.2847H197.437V18.3034H203.026Z" fill="#F8ED0D" stroke="#F8ED0D"/>
<path d="M221.286 18.3034V15.2847H215.911V18.3034H221.286Z" fill="#F8ED0D" stroke="#F8ED0D"/>
<path d="M245.689 18.3034L244.879 15.2847H238.181L237.413 18.3034H245.689Z" fill="#F8ED0D" stroke="#F8ED0D"/>
<path d="M269.239 18.3042C268.94 17.7112 268.556 17.2261 268.172 16.8487C266.85 15.5011 264.93 14.8003 262.37 14.8003C260.322 14.8003 258.701 15.1776 257.506 15.9323C256.525 16.5253 255.757 17.3339 255.203 18.3042H269.239Z" fill="#F8ED0D" stroke="#F8ED0D"/>
<path fill-rule="evenodd" clip-rule="evenodd" d="M145.56 18.0344H159.596C159.297 17.4954 158.998 17.0641 158.657 16.7407C157.206 15.2852 155.244 14.5845 152.77 14.5845C149.698 14.5845 147.309 15.7165 145.56 18.0344Z" fill="#F8ED0D" stroke="#F8ED0D"/>
<path d="M3.23659 18.3037H17.23C17.9552 19.5974 18.3819 21.2685 18.5525 23.3169L12.793 23.8021C12.6651 22.5084 12.3238 21.592 11.8545 20.999C11.3425 20.406 10.6599 20.1365 9.80665 20.1365C9.08139 20.1365 8.56944 20.3521 8.18547 20.7834C7.84417 21.1607 7.67352 21.6998 7.67352 22.3466C7.67352 22.7779 7.80151 23.2091 8.10015 23.5326C8.35612 23.9099 9.03873 24.2873 10.148 24.6107C12.8357 25.4193 14.7129 26.2818 15.9074 27.0904C17.0593 27.9528 17.8699 28.9771 18.4245 30.2708C18.9365 31.5106 19.1925 32.9122 19.1925 34.4754C19.1925 36.2543 18.8512 37.9254 18.1686 39.4887C17.4433 40.998 16.462 42.184 15.2248 42.9926C13.9449 43.8011 12.3664 44.1785 10.4466 44.1785C7.07624 44.1785 4.72979 43.2621 3.44991 41.3754C2.12736 39.5426 1.4021 37.1707 1.23145 34.3137L7.03358 33.7747C7.16157 35.1223 7.41754 36.1465 7.80151 36.8473C8.44145 38.0332 9.33736 38.5723 10.5319 38.5723C11.3852 38.5723 12.0678 38.3028 12.5371 37.7098C13.0064 37.1168 13.2623 36.4161 13.2623 35.6614C13.2623 34.9067 13.049 34.2598 12.5797 33.6669C12.1531 33.1278 11.0865 32.5887 9.46535 32.0497C6.7776 31.1872 4.85778 30.0552 3.70588 28.5997C2.55399 27.1982 1.99937 25.3654 1.99937 23.1552C1.99937 21.6998 2.25535 20.2982 2.85263 19.0045C2.98062 18.735 3.10861 18.5193 3.23659 18.3037Z" fill="#26156E" stroke="#F8ED0D"/>
<path d="M17.2302 18.304C16.9316 17.7649 16.5903 17.2798 16.2063 16.8485C14.8837 15.5009 12.9213 14.854 10.4042 14.854C8.35634 14.854 6.73516 15.2313 5.5406 15.9321C4.55936 16.5251 3.79143 17.3337 3.23682 18.304H17.2302Z" fill="#F8ED0D" stroke="#F8ED0D"/>
</svg>
