<svg width="251" height="36" viewBox="0 0 251 36" fill="none" xmlns="http://www.w3.org/2000/svg">
<path d="M18.978 13.1323H33.4914V15.2867H24.4205V18.4615H31.904V22.5056H24.4205V26.4363H33.756V30.9339H18.978V13.1323Z" fill="#26156E" stroke="#BCB6B6" stroke-width="0.288"/>
<path fill-rule="evenodd" clip-rule="evenodd" d="M51.6706 13.1323H36.7793V30.9339H42.2218V22.8457H42.6754C43.1667 22.8457 43.6202 22.9969 44.036 23.337C44.3006 23.5638 44.6407 24.0552 45.0187 24.8489L47.8911 30.9339H54.0517L51.4061 25.189C51.2549 24.8867 51.0281 24.4709 50.6502 23.9418C50.2722 23.4126 49.9698 23.0347 49.7809 22.8835C49.4785 22.6567 49.025 22.3922 48.3824 22.1654C49.1761 21.9386 49.8187 21.6741 50.2722 21.3717C50.9903 20.8804 51.5572 20.2378 51.973 19.4063C52.3887 18.6126 52.6155 17.6678 52.6155 16.5717C52.6155 15.2867 52.3509 14.1906 51.784 13.3213C51.7462 13.2457 51.7084 13.1701 51.6706 13.1323ZM45.2458 19.1042H42.2222V15.0601H45.3592C46.3419 15.0601 47.0222 15.2112 47.4001 15.5892C47.7403 15.9293 47.9293 16.4207 47.9293 17.0632C47.9293 17.5923 47.7403 18.1593 47.2867 18.4994C46.7576 18.953 45.8505 19.1042 45.2458 19.1042Z" fill="#26156E"/>
<path d="M36.7793 13.1323V12.9883H36.6353V13.1323H36.7793ZM51.6706 13.1323L51.7725 13.0305L51.7303 12.9883H51.6706V13.1323ZM36.7793 30.9339H36.6353V31.0779H36.7793V30.9339ZM42.2218 30.9339V31.0779H42.3658V30.9339H42.2218ZM42.2218 22.8457V22.7017H42.0778V22.8457H42.2218ZM44.036 23.337L44.1297 23.2277L44.1272 23.2256L44.036 23.337ZM45.0187 24.8489L45.1489 24.7874L45.1487 24.7869L45.0187 24.8489ZM47.8911 30.9339L47.7609 30.9954L47.7998 31.0779H47.8911V30.9339ZM54.0517 30.9339V31.0779H54.2766L54.1825 30.8737L54.0517 30.9339ZM51.4061 25.189L51.5369 25.1288L51.5349 25.1246L51.4061 25.189ZM49.7809 22.8835L49.8709 22.771L49.8673 22.7683L49.7809 22.8835ZM48.3824 22.1654L48.3429 22.0269L47.9088 22.1509L48.3345 22.3012L48.3824 22.1654ZM50.2722 21.3717L50.3521 21.4915L50.3535 21.4905L50.2722 21.3717ZM51.973 19.4063L51.8454 19.3395L51.8442 19.3419L51.973 19.4063ZM51.784 13.3213L51.6552 13.3857L51.6589 13.3931L51.6634 13.4L51.784 13.3213ZM42.2222 19.1042H42.0782V19.2482H42.2222V19.1042ZM42.2222 15.0601V14.9161H42.0782V15.0601H42.2222ZM47.2867 18.4994L47.2002 18.384L47.193 18.3901L47.2867 18.4994ZM36.7793 13.2763H51.6706V12.9883H36.7793V13.2763ZM36.9233 30.9339V13.1323H36.6353V30.9339H36.9233ZM42.2218 30.7899H36.7793V31.0779H42.2218V30.7899ZM42.0778 22.8457V30.9339H42.3658V22.8457H42.0778ZM42.6754 22.7017H42.2218V22.9897H42.6754V22.7017ZM44.1272 23.2256C43.6853 22.8641 43.1994 22.7017 42.6754 22.7017V22.9897C43.134 22.9897 43.5552 23.1297 43.9448 23.4485L44.1272 23.2256ZM45.1487 24.7869C44.7689 23.9894 44.4182 23.475 44.1297 23.2277L43.9423 23.4464C44.1829 23.6526 44.5125 24.1209 44.8887 24.9108L45.1487 24.7869ZM48.0213 30.8724L45.1489 24.7874L44.8884 24.9103L47.7609 30.9954L48.0213 30.8724ZM54.0517 30.7899H47.8911V31.0779H54.0517V30.7899ZM51.2753 25.2493L53.9209 30.9941L54.1825 30.8737L51.5369 25.1288L51.2753 25.2493ZM50.533 24.0255C50.9057 24.5473 51.1287 24.9563 51.2773 25.2534L51.5349 25.1246C51.3811 24.817 51.1505 24.3946 50.7673 23.8581L50.533 24.0255ZM49.6909 22.9959C49.7728 23.0615 49.8876 23.1837 50.0331 23.3619C50.1768 23.5381 50.3449 23.7622 50.533 24.0255L50.7673 23.8581C50.5775 23.5922 50.4054 23.3627 50.2562 23.1799C50.1087 22.9991 49.9779 22.8567 49.8708 22.7711L49.6909 22.9959ZM48.3345 22.3012C48.9639 22.5233 49.4044 22.7811 49.6945 22.9987L49.8673 22.7683C49.5527 22.5323 49.086 22.261 48.4304 22.0296L48.3345 22.3012ZM50.1923 21.2519C49.7565 21.5424 49.1301 21.802 48.3429 22.0269L48.422 22.3039C49.2222 22.0752 49.8808 21.8057 50.3521 21.4915L50.1923 21.2519ZM51.8442 19.3419C51.4393 20.1518 50.8886 20.7755 50.1909 21.2529L50.3535 21.4905C51.0921 20.9852 51.6752 20.3239 52.1018 19.4707L51.8442 19.3419ZM52.4715 16.5717C52.4715 17.6476 52.249 18.569 51.8454 19.3395L52.1006 19.4732C52.5285 18.6563 52.7595 17.6879 52.7595 16.5717H52.4715ZM51.6634 13.4C52.2108 14.2393 52.4715 15.3056 52.4715 16.5717H52.7595C52.7595 15.2677 52.4911 14.1419 51.9046 13.2426L51.6634 13.4ZM51.5688 13.2341C51.5736 13.2389 51.5848 13.2534 51.6023 13.2841C51.6188 13.313 51.6359 13.347 51.6552 13.3857L51.9128 13.2569C51.8944 13.22 51.8736 13.1784 51.8524 13.1412C51.8321 13.1057 51.8055 13.0635 51.7725 13.0305L51.5688 13.2341ZM42.2222 19.2482H45.2458V18.9602H42.2222V19.2482ZM42.0782 15.0601V19.1042H42.3662V15.0601H42.0782ZM45.3592 14.9161H42.2222V15.2041H45.3592V14.9161ZM47.5019 15.4874C47.0792 15.0646 46.344 14.9161 45.3592 14.9161V15.2041C46.3397 15.2041 46.9651 15.3578 47.2983 15.691L47.5019 15.4874ZM48.0733 17.0632C48.0733 16.3918 47.875 15.8604 47.5019 15.4874L47.2983 15.691C47.6055 15.9983 47.7853 16.4496 47.7853 17.0632H48.0733ZM47.3731 18.6146C47.8741 18.2389 48.0733 17.6216 48.0733 17.0632H47.7853C47.7853 17.5631 47.6064 18.0797 47.2003 18.3842L47.3731 18.6146ZM45.2458 19.2482C45.5589 19.2482 45.9489 19.2092 46.3304 19.1114C46.7103 19.0139 47.0928 18.8554 47.3804 18.6088L47.193 18.3901C46.9516 18.597 46.6159 18.7408 46.2588 18.8324C45.9033 18.9236 45.5375 18.9602 45.2458 18.9602V19.2482Z" fill="#BCB6B6"/>
<path d="M74.386 3.22998L69.586 30.8961H60.5151L55.564 13.1323H62.1403L65.2018 28.0237L68.0742 3.26778L74.386 3.22998Z" fill="#26156E" stroke="#BCB6B6" stroke-width="0.288"/>
<path d="M79.564 13.1323H85.0065V30.6693H79.564V13.1323Z" fill="#26156E" stroke="#BCB6B6" stroke-width="0.288"/>
<path d="M90.0333 13.1323H102.468C103.413 14.493 104.169 16.5717 104.169 18.0835H99.6711C99.4821 17.4788 99.2931 17.063 99.1419 16.7607C98.8018 16.3071 98.4616 15.9292 98.0081 15.7024C97.5545 15.4378 97.0632 15.3244 96.534 15.3244C95.2868 15.3244 94.3419 15.8914 93.6994 16.9874C93.2081 17.8189 92.9435 19.1418 92.9435 20.9182C92.9435 23.1103 93.2459 24.6221 93.8506 25.4158C94.4553 26.2473 95.249 26.663 96.3451 26.663C97.3655 26.663 98.1592 26.3229 98.6884 25.6426C99.2175 25 99.5199 24.5465 99.7466 23.2615L104.433 23.2993C104.584 25.1512 103.791 27.1922 103.11 28.2126C102.392 29.1953 101.561 29.989 100.54 30.4804C99.5199 31.0095 98.2348 31.2741 96.6474 31.2741C94.7199 31.2741 93.1703 30.9339 91.9608 30.3292C90.7514 29.6867 89.6931 28.5906 88.8238 27.0032C87.9545 25.4158 87.501 23.4126 87.501 20.9182C87.501 17.63 88.2947 15.1355 89.8443 13.3591C89.8821 13.2835 89.9577 13.2079 90.0333 13.1323Z" fill="#26156E" stroke="#BCB6B6" stroke-width="0.288"/>
<path d="M106.021 13.1323H111.463V23.1859C111.463 24.2441 111.728 25.1134 112.257 25.7181C112.786 26.3229 113.504 26.6252 114.449 26.6252C115.394 26.6252 116.112 26.3229 116.641 25.7181C117.17 25.1134 117.435 24.2819 117.435 23.1859V13.1323H121.063H122.877V22.8835C122.877 24.0552 122.688 25.189 122.386 26.2095C122.046 27.2678 121.554 28.1748 120.836 28.9685C120.156 29.7244 119.438 30.2914 118.682 30.5937C117.624 31.0473 116.376 31.2741 114.865 31.2741C114.033 31.2741 113.088 31.1985 112.068 31.0473C111.085 30.9339 110.216 30.6693 109.535 30.2536C108.855 29.8378 108.25 29.2709 107.683 28.5528C107.117 27.7969 106.739 27.041 106.55 26.2473C106.209 25 106.021 23.8662 106.021 22.8835V13.1323Z" fill="#26156E" stroke="#BCB6B6" stroke-width="0.288"/>
<path d="M145.063 13.1323H150.506V18.2347H156.439V13.1323H161.882V31.1985H156.439V23.1481H150.506V31.1985H145.063V13.1323Z" fill="#26156E" stroke="#BCB6B6" stroke-width="0.288"/>
<path d="M165.208 13.1323H170.651V30.9339H165.208V13.1323Z" fill="#26156E" stroke="#BCB6B6" stroke-width="0.288"/>
<path d="M174.052 13.1323H179.003V26.0205H186.789V30.9339H174.052V13.1323Z" fill="#26156E" stroke="#BCB6B6" stroke-width="0.288"/>
<path d="M190.417 13.1323H195.18V26.0205H202.701V30.9339H190.417V13.1323Z" fill="#26156E" stroke="#BCB6B6" stroke-width="0.288"/>
<path d="M209.466 13.1323H216.798L222.657 30.9339H216.987L216.118 27.6457H209.957L209.088 30.9339H203.532L209.466 13.1323ZM214.946 23.337L213.057 16.1937L211.129 23.337H214.946Z" fill="#26156E" stroke="#BCB6B6" stroke-width="0.288"/>
<path d="M225.227 13.1323H237.661C238.266 14.0016 238.644 15.1733 238.833 16.6095L233.693 16.9874C233.579 16.0804 233.277 15.4 232.861 14.9843C232.408 14.6063 231.803 14.3796 231.047 14.3796C230.442 14.3796 229.951 14.5307 229.611 14.8331C229.308 15.1355 229.157 15.5134 229.157 15.9292C229.157 16.2693 229.271 16.5339 229.535 16.7985C229.8 17.063 230.405 17.2898 231.349 17.5166C233.731 18.1213 235.431 18.6882 236.452 19.293C237.472 19.8977 238.228 20.6158 238.682 21.4851C239.135 22.3544 239.362 23.337 239.362 24.4331C239.362 25.7182 239.06 26.8898 238.455 27.9859C237.812 29.0441 236.943 29.8756 235.847 30.4048C234.713 30.9717 233.315 31.2363 231.614 31.2363C228.628 31.2363 226.549 30.5937 225.416 29.3087C224.244 27.9859 223.601 26.3607 223.45 24.3197L228.59 23.9796C228.704 24.9245 228.931 25.6426 229.308 26.1339C229.838 26.9276 230.631 27.3433 231.69 27.3433C232.445 27.3433 233.05 27.1166 233.466 26.7008C233.882 26.3229 234.108 25.8315 234.108 25.3024C234.108 24.7733 233.919 24.3197 233.504 23.904C233.126 23.4882 232.181 23.1103 230.745 22.7323C228.364 22.1654 226.663 21.3339 225.642 20.3512C224.622 19.3307 224.131 18.0457 224.131 16.4961C224.131 15.4756 224.395 14.5307 224.886 13.6237C225 13.4347 225.113 13.2835 225.227 13.1323Z" fill="#26156E" stroke="#BCB6B6" stroke-width="0.288"/>
<path d="M78.5434 34.7511L79.4882 34.9023C79.3371 35.2424 79.1103 35.4692 78.7701 35.6204C78.43 35.7716 78.0142 35.8472 77.4851 35.8472C76.8426 35.8472 76.3134 35.7338 75.8977 35.4692C75.5197 35.2046 75.293 34.8267 75.293 34.3731C75.293 33.8818 75.5197 33.5416 75.8977 33.2771C76.3134 33.0125 76.8804 32.8613 77.5607 32.8613C78.1276 32.8613 78.619 32.9747 78.9591 33.1637C79.1859 33.3149 79.3749 33.4661 79.4504 33.6928L78.5056 33.844C78.4678 33.6928 78.3166 33.5794 78.1654 33.5038C77.9764 33.3905 77.7497 33.3527 77.4851 33.3527C77.1449 33.3527 76.8426 33.4283 76.6158 33.5794C76.389 33.7306 76.2756 33.9952 76.2756 34.3353C76.2756 34.7133 76.389 34.9779 76.6158 35.129C76.8426 35.2802 77.1071 35.3558 77.4851 35.3558C77.7497 35.3558 77.9386 35.2802 78.1276 35.2046C78.3166 35.0912 78.4678 34.9401 78.5434 34.7511Z" fill="#26156E"/>
<path d="M80.3198 32.8994H81.3025V34.4868C81.3025 34.7136 81.3025 34.9026 81.3403 34.9782C81.3781 35.0915 81.4537 35.1671 81.6049 35.2427C81.756 35.3183 81.9828 35.3561 82.2474 35.3561C82.512 35.3561 82.7387 35.3183 82.8521 35.2427C83.0033 35.1671 83.0789 35.0915 83.1167 35.0159C83.1545 34.9026 83.1545 34.7514 83.1545 34.5246V32.8994H84.1371V34.449C84.1371 34.7892 84.0994 35.0159 84.0616 35.1671C83.986 35.3183 83.9104 35.4317 83.7592 35.5451C83.608 35.6207 83.419 35.6963 83.1923 35.7719C82.9655 35.8097 82.6631 35.8474 82.2852 35.8474C81.8316 35.8474 81.4915 35.8097 81.2269 35.7719C81.0001 35.6963 80.8112 35.6207 80.6978 35.5073C80.5466 35.3939 80.471 35.2805 80.3954 35.2049C80.3576 35.0159 80.3198 34.7892 80.3198 34.449V32.8994Z" fill="#26156E"/>
<path d="M88.2187 34.7511L89.1635 34.9023C89.0124 35.2424 88.7856 35.4692 88.4454 35.6204C88.1053 35.7716 87.6895 35.8472 87.1604 35.8472C86.5179 35.8472 86.0265 35.7338 85.6108 35.4692C85.195 35.2046 84.9683 34.8267 84.9683 34.3731C84.9683 33.8818 85.195 33.5416 85.6108 33.2771C86.0265 33.0125 86.5557 32.8613 87.236 32.8613C87.8029 32.8613 88.2942 32.9747 88.6722 33.1637C88.899 33.3149 89.0502 33.4661 89.1635 33.6928L88.1809 33.844C88.1431 33.6928 88.0297 33.5794 87.8407 33.5038C87.6517 33.3905 87.425 33.3527 87.1982 33.3527C86.8202 33.3527 86.5179 33.4283 86.3289 33.5794C86.1021 33.7306 85.9887 33.9952 85.9887 34.3353C85.9887 34.7133 86.1021 34.9779 86.3289 35.129C86.5179 35.2802 86.8202 35.3558 87.1604 35.3558C87.425 35.3558 87.6517 35.2802 87.8407 35.2046C88.0297 35.0912 88.1431 34.9401 88.2187 34.7511Z" fill="#26156E"/>
<path d="M89.9951 35.8097V32.8994H90.9778V34.0333H92.8676V32.8994H93.8502V35.8097H92.8676V34.5246H90.9778V35.8097H89.9951Z" fill="#26156E"/>
<path d="M94.7954 35.8097V32.8994H95.7781V35.8097H94.7954Z" fill="#26156E"/>
<path d="M96.7227 35.8095V32.937H97.7053V35.3181H100.124V35.8095H96.7227Z" fill="#26156E"/>
<path d="M100.842 35.8095V32.937H101.787V35.3181H104.206V35.8095H100.842Z" fill="#26156E"/>
<path d="M109.233 35.8097H108.175L107.759 35.1293H105.831L105.453 35.8097H104.395L106.285 32.8994H107.305L109.233 35.8097ZM107.456 34.638L106.776 33.5797L106.134 34.638H107.456Z" fill="#26156E"/>
<path d="M109.498 34.8645L110.442 34.7889C110.48 35.0157 110.594 35.129 110.783 35.2424C110.972 35.318 111.198 35.3558 111.501 35.3558C111.803 35.3558 112.03 35.318 112.181 35.2424C112.332 35.1668 112.408 35.0535 112.408 34.9779C112.408 34.9023 112.408 34.8267 112.332 34.7889C112.257 34.7511 112.143 34.7133 111.992 34.6755C111.879 34.6377 111.614 34.5999 111.198 34.5243C110.669 34.4487 110.329 34.3731 110.102 34.2598C109.838 34.1086 109.687 33.8818 109.687 33.655C109.687 33.5038 109.724 33.3905 109.876 33.2393C110.027 33.1259 110.216 33.0125 110.48 32.9747C110.745 32.8991 111.047 32.8613 111.425 32.8613C112.03 32.8613 112.483 32.9369 112.786 33.0881C113.088 33.2771 113.239 33.4661 113.239 33.7306L112.294 33.7684C112.257 33.6172 112.143 33.5038 112.03 33.4283C111.879 33.3905 111.69 33.3527 111.425 33.3527C111.123 33.3527 110.896 33.3905 110.745 33.4661C110.631 33.5038 110.594 33.5416 110.594 33.6172C110.594 33.6928 110.631 33.7684 110.745 33.8062C110.858 33.8818 111.161 33.9196 111.614 33.9952C112.105 34.0708 112.446 34.1464 112.672 34.222C112.899 34.2975 113.088 34.3731 113.201 34.4865C113.315 34.6377 113.39 34.7889 113.39 34.9779C113.39 35.129 113.315 35.2802 113.164 35.4314C113.013 35.5826 112.786 35.6582 112.521 35.7338C112.257 35.8094 111.879 35.8472 111.463 35.8472C110.858 35.8472 110.405 35.7716 110.064 35.5826C109.762 35.4314 109.573 35.1668 109.498 34.8645Z" fill="#26156E"/>
<path d="M116.036 35.8097V32.8994H117.019V35.8097H116.036Z" fill="#26156E"/>
<path d="M117.964 35.8097V32.8994H118.871L120.874 34.8648V32.8994H121.781V35.8097H120.799L118.833 33.9199V35.8097H117.964Z" fill="#26156E"/>
<path d="M122.802 32.8994H124.578C124.956 32.8994 125.258 32.9372 125.485 32.975C125.75 33.0128 125.977 33.1262 126.203 33.2396C126.392 33.353 126.543 33.5041 126.657 33.6931C126.77 33.8821 126.808 34.1089 126.808 34.3734C126.808 34.638 126.77 34.827 126.657 35.0159C126.543 35.2049 126.355 35.3939 126.166 35.5073C125.977 35.6207 125.75 35.6963 125.485 35.7341C125.258 35.7719 124.956 35.8097 124.616 35.8097H122.802V32.8994ZM123.747 33.3908V35.3183H124.503C124.767 35.3183 124.956 35.3183 125.069 35.2805C125.221 35.2427 125.372 35.2049 125.447 35.1671C125.561 35.0915 125.636 35.0159 125.712 34.9026C125.788 34.7514 125.825 34.5624 125.825 34.3734C125.825 34.1467 125.788 33.9577 125.712 33.8443C125.636 33.7309 125.561 33.6175 125.447 33.5797C125.334 33.5041 125.183 33.4663 124.994 33.4285C124.843 33.4285 124.578 33.3908 124.2 33.3908H123.747Z" fill="#26156E"/>
<path d="M127.639 32.8994H128.622V34.4868C128.622 34.7136 128.622 34.9026 128.66 34.9782C128.697 35.0915 128.773 35.1671 128.924 35.2427C129.075 35.3183 129.302 35.3561 129.567 35.3561C129.831 35.3561 130.058 35.3183 130.171 35.2427C130.323 35.1671 130.398 35.0915 130.436 35.0159C130.474 34.9026 130.474 34.7514 130.474 34.5246V32.8994H131.456V34.449C131.456 34.7892 131.419 35.0159 131.381 35.1671C131.305 35.3183 131.23 35.4317 131.079 35.5451C130.927 35.6207 130.738 35.6963 130.512 35.7719C130.285 35.8097 129.982 35.8474 129.605 35.8474C129.151 35.8474 128.811 35.8097 128.546 35.7719C128.319 35.6963 128.13 35.6207 128.017 35.5073C127.866 35.3939 127.79 35.2805 127.715 35.2049C127.677 35.0159 127.639 34.7892 127.639 34.449V32.8994Z" fill="#26156E"/>
<path d="M132.212 34.8645L133.157 34.7889C133.233 35.0157 133.346 35.129 133.497 35.2424C133.686 35.318 133.913 35.3558 134.216 35.3558C134.518 35.3558 134.745 35.318 134.934 35.2424C135.085 35.1668 135.16 35.0535 135.16 34.9779C135.16 34.9023 135.123 34.8267 135.047 34.7889C134.971 34.7511 134.858 34.7133 134.707 34.6755C134.594 34.6377 134.329 34.5999 133.951 34.5243C133.422 34.4487 133.044 34.3731 132.855 34.2598C132.553 34.1086 132.401 33.8818 132.401 33.655C132.401 33.5038 132.477 33.3905 132.628 33.2393C132.742 33.1259 132.968 33.0125 133.195 32.9747C133.46 32.8991 133.8 32.8613 134.14 32.8613C134.745 32.8613 135.198 32.9369 135.501 33.0881C135.803 33.2771 135.954 33.4661 135.992 33.7306L135.009 33.7684C134.971 33.6172 134.896 33.5038 134.745 33.4283C134.631 33.3905 134.405 33.3527 134.14 33.3527C133.875 33.3527 133.649 33.3905 133.497 33.4661C133.384 33.5038 133.346 33.5416 133.346 33.6172C133.346 33.6928 133.384 33.7684 133.46 33.8062C133.611 33.8818 133.875 33.9196 134.367 33.9952C134.82 34.0708 135.198 34.1464 135.425 34.222C135.614 34.2975 135.803 34.3731 135.954 34.4865C136.068 34.6377 136.143 34.7889 136.143 34.9779C136.143 35.129 136.068 35.2802 135.916 35.4314C135.727 35.5826 135.538 35.6582 135.236 35.7338C134.971 35.8094 134.631 35.8472 134.216 35.8472C133.611 35.8472 133.119 35.7716 132.817 35.5826C132.477 35.4314 132.288 35.1668 132.212 34.8645Z" fill="#26156E"/>
<path d="M138.033 35.8097V33.3908H136.597V32.8994H140.414V33.3908H139.016V35.8097H138.033Z" fill="#26156E"/>
<path d="M141.057 35.8097V32.8994H143.098C143.589 32.8994 143.967 32.9372 144.194 32.975C144.458 33.0506 144.647 33.1262 144.761 33.2774C144.912 33.3908 144.987 33.5419 144.987 33.7309C144.987 33.9577 144.874 34.1089 144.647 34.26C144.458 34.4112 144.156 34.4868 143.702 34.5246C143.929 34.6002 144.118 34.6758 144.231 34.7514C144.383 34.8648 144.572 35.0159 144.798 35.2427L145.365 35.8097H144.194L143.513 35.1671C143.249 34.9404 143.098 34.7892 142.984 34.7514C142.909 34.6758 142.795 34.638 142.72 34.638C142.606 34.6002 142.455 34.6002 142.228 34.6002H142.039V35.8097H141.057ZM142.039 34.1467H142.757C143.211 34.1467 143.513 34.1089 143.627 34.1089C143.74 34.0711 143.816 34.0333 143.891 33.9955C143.967 33.9199 143.967 33.8443 143.967 33.7687C143.967 33.6553 143.929 33.5797 143.853 33.5419C143.778 33.4663 143.627 33.4285 143.476 33.4285C143.4 33.3908 143.173 33.3908 142.795 33.3908H142.039V34.1467Z" fill="#26156E"/>
<path d="M145.856 35.8097V32.8994H146.839V35.8097H145.856Z" fill="#26156E"/>
<path d="M152.093 35.8097H151.034L150.619 35.1293H148.691L148.313 35.8097H147.255L149.145 32.8994H150.165L152.093 35.8097ZM150.316 34.638L149.636 33.5797L148.993 34.638H150.316Z" fill="#26156E"/>
<path d="M152.622 35.8095V32.937H153.605V35.3181H156.024V35.8095H152.622Z" fill="#26156E"/>
<path d="M156.704 35.8097V32.8994H160.257V33.3908H157.687V34.0333H160.068V34.5246H157.687V35.3183H160.332V35.8097H156.704Z" fill="#26156E"/>
<path d="M160.899 34.8645L161.882 34.7889C161.92 35.0157 162.033 35.129 162.222 35.2424C162.373 35.318 162.6 35.3558 162.903 35.3558C163.205 35.3558 163.469 35.318 163.621 35.2424C163.772 35.1668 163.847 35.0535 163.847 34.9779C163.847 34.9023 163.81 34.8267 163.734 34.7889C163.696 34.7511 163.583 34.7133 163.394 34.6755C163.281 34.6377 163.016 34.5999 162.638 34.5243C162.109 34.4487 161.731 34.3731 161.542 34.2598C161.24 34.1086 161.088 33.8818 161.088 33.655C161.088 33.5038 161.164 33.3905 161.315 33.2393C161.429 33.1259 161.655 33.0125 161.92 32.9747C162.147 32.8991 162.487 32.8613 162.865 32.8613C163.432 32.8613 163.885 32.9369 164.188 33.0881C164.49 33.2771 164.679 33.4661 164.679 33.7306L163.696 33.7684C163.658 33.6172 163.583 33.5038 163.432 33.4283C163.318 33.3905 163.092 33.3527 162.827 33.3527C162.562 33.3527 162.336 33.3905 162.184 33.4661C162.071 33.5038 162.033 33.5416 162.033 33.6172C162.033 33.6928 162.071 33.7684 162.184 33.8062C162.298 33.8818 162.6 33.9196 163.054 33.9952C163.545 34.0708 163.885 34.1464 164.112 34.222C164.339 34.2975 164.49 34.3731 164.641 34.4865C164.755 34.6377 164.83 34.7889 164.83 34.9779C164.83 35.129 164.755 35.2802 164.603 35.4314C164.452 35.5826 164.225 35.6582 163.961 35.7338C163.658 35.8094 163.318 35.8472 162.903 35.8472C162.298 35.8472 161.844 35.7716 161.504 35.5826C161.164 35.4314 160.975 35.1668 160.899 34.8645Z" fill="#26156E"/>
<path d="M78.5434 34.7511L79.4882 34.9023C79.3371 35.2424 79.1103 35.4692 78.7701 35.6204C78.43 35.7716 78.0142 35.8472 77.4851 35.8472C76.8426 35.8472 76.3134 35.7338 75.8977 35.4692C75.5197 35.2046 75.293 34.8267 75.293 34.3731C75.293 33.8818 75.5197 33.5416 75.8977 33.2771C76.3134 33.0125 76.8804 32.8613 77.5607 32.8613C78.1276 32.8613 78.619 32.9747 78.9591 33.1637C79.1859 33.3149 79.3749 33.4661 79.4504 33.6928L78.5056 33.844C78.4678 33.6928 78.3166 33.5794 78.1654 33.5038C77.9764 33.3905 77.7497 33.3527 77.4851 33.3527C77.1449 33.3527 76.8426 33.4283 76.6158 33.5794C76.389 33.7306 76.2756 33.9952 76.2756 34.3353C76.2756 34.7133 76.389 34.9779 76.6158 35.129C76.8426 35.2802 77.1071 35.3558 77.4851 35.3558C77.7497 35.3558 77.9386 35.2802 78.1276 35.2046C78.3166 35.0912 78.4678 34.9401 78.5434 34.7511Z" stroke="#BCB6B6" stroke-width="0.288"/>
<path d="M80.3198 32.8994H81.3025V34.4868C81.3025 34.7136 81.3025 34.9026 81.3403 34.9782C81.3781 35.0915 81.4537 35.1671 81.6049 35.2427C81.756 35.3183 81.9828 35.3561 82.2474 35.3561C82.512 35.3561 82.7387 35.3183 82.8521 35.2427C83.0033 35.1671 83.0789 35.0915 83.1167 35.0159C83.1545 34.9026 83.1545 34.7514 83.1545 34.5246V32.8994H84.1371V34.449C84.1371 34.7892 84.0994 35.0159 84.0616 35.1671C83.986 35.3183 83.9104 35.4317 83.7592 35.5451C83.608 35.6207 83.419 35.6963 83.1923 35.7719C82.9655 35.8097 82.6631 35.8474 82.2852 35.8474C81.8316 35.8474 81.4915 35.8097 81.2269 35.7719C81.0001 35.6963 80.8112 35.6207 80.6978 35.5073C80.5466 35.3939 80.471 35.2805 80.3954 35.2049C80.3576 35.0159 80.3198 34.7892 80.3198 34.449V32.8994Z" stroke="#BCB6B6" stroke-width="0.288"/>
<path d="M88.2187 34.7511L89.1635 34.9023C89.0124 35.2424 88.7856 35.4692 88.4454 35.6204C88.1053 35.7716 87.6895 35.8472 87.1604 35.8472C86.5179 35.8472 86.0265 35.7338 85.6108 35.4692C85.195 35.2046 84.9683 34.8267 84.9683 34.3731C84.9683 33.8818 85.195 33.5416 85.6108 33.2771C86.0265 33.0125 86.5557 32.8613 87.236 32.8613C87.8029 32.8613 88.2942 32.9747 88.6722 33.1637C88.899 33.3149 89.0502 33.4661 89.1635 33.6928L88.1809 33.844C88.1431 33.6928 88.0297 33.5794 87.8407 33.5038C87.6517 33.3905 87.425 33.3527 87.1982 33.3527C86.8202 33.3527 86.5179 33.4283 86.3289 33.5794C86.1021 33.7306 85.9887 33.9952 85.9887 34.3353C85.9887 34.7133 86.1021 34.9779 86.3289 35.129C86.5179 35.2802 86.8202 35.3558 87.1604 35.3558C87.425 35.3558 87.6517 35.2802 87.8407 35.2046C88.0297 35.0912 88.1431 34.9401 88.2187 34.7511Z" stroke="#BCB6B6" stroke-width="0.288"/>
<path d="M89.9951 35.8097V32.8994H90.9778V34.0333H92.8676V32.8994H93.8502V35.8097H92.8676V34.5246H90.9778V35.8097H89.9951Z" stroke="#BCB6B6" stroke-width="0.288"/>
<path d="M94.7954 35.8097V32.8994H95.7781V35.8097H94.7954Z" stroke="#BCB6B6" stroke-width="0.288"/>
<path d="M96.7227 35.8095V32.937H97.7053V35.3181H100.124V35.8095H96.7227Z" stroke="#BCB6B6" stroke-width="0.288"/>
<path d="M100.842 35.8095V32.937H101.787V35.3181H104.206V35.8095H100.842Z" stroke="#BCB6B6" stroke-width="0.288"/>
<path d="M109.233 35.8097H108.175L107.759 35.1293H105.831L105.453 35.8097H104.395L106.285 32.8994H107.305L109.233 35.8097ZM107.456 34.638L106.776 33.5797L106.134 34.638H107.456Z" stroke="#BCB6B6" stroke-width="0.288"/>
<path d="M109.498 34.8645L110.442 34.7889C110.48 35.0157 110.594 35.129 110.783 35.2424C110.972 35.318 111.198 35.3558 111.501 35.3558C111.803 35.3558 112.03 35.318 112.181 35.2424C112.332 35.1668 112.408 35.0535 112.408 34.9779C112.408 34.9023 112.408 34.8267 112.332 34.7889C112.257 34.7511 112.143 34.7133 111.992 34.6755C111.879 34.6377 111.614 34.5999 111.198 34.5243C110.669 34.4487 110.329 34.3731 110.102 34.2598C109.838 34.1086 109.687 33.8818 109.687 33.655C109.687 33.5038 109.724 33.3905 109.876 33.2393C110.027 33.1259 110.216 33.0125 110.48 32.9747C110.745 32.8991 111.047 32.8613 111.425 32.8613C112.03 32.8613 112.483 32.9369 112.786 33.0881C113.088 33.2771 113.239 33.4661 113.239 33.7306L112.294 33.7684C112.257 33.6172 112.143 33.5038 112.03 33.4283C111.879 33.3905 111.69 33.3527 111.425 33.3527C111.123 33.3527 110.896 33.3905 110.745 33.4661C110.631 33.5038 110.594 33.5416 110.594 33.6172C110.594 33.6928 110.631 33.7684 110.745 33.8062C110.858 33.8818 111.161 33.9196 111.614 33.9952C112.105 34.0708 112.446 34.1464 112.672 34.222C112.899 34.2975 113.088 34.3731 113.201 34.4865C113.315 34.6377 113.39 34.7889 113.39 34.9779C113.39 35.129 113.315 35.2802 113.164 35.4314C113.013 35.5826 112.786 35.6582 112.521 35.7338C112.257 35.8094 111.879 35.8472 111.463 35.8472C110.858 35.8472 110.405 35.7716 110.064 35.5826C109.762 35.4314 109.573 35.1668 109.498 34.8645Z" stroke="#BCB6B6" stroke-width="0.288"/>
<path d="M116.036 35.8097V32.8994H117.019V35.8097H116.036Z" stroke="#BCB6B6" stroke-width="0.288"/>
<path d="M117.964 35.8097V32.8994H118.871L120.874 34.8648V32.8994H121.781V35.8097H120.799L118.833 33.9199V35.8097H117.964Z" stroke="#BCB6B6" stroke-width="0.288"/>
<path d="M122.802 32.8994H124.578C124.956 32.8994 125.258 32.9372 125.485 32.975C125.75 33.0128 125.977 33.1262 126.203 33.2396C126.392 33.353 126.543 33.5041 126.657 33.6931C126.77 33.8821 126.808 34.1089 126.808 34.3734C126.808 34.638 126.77 34.827 126.657 35.0159C126.543 35.2049 126.355 35.3939 126.166 35.5073C125.977 35.6207 125.75 35.6963 125.485 35.7341C125.258 35.7719 124.956 35.8097 124.616 35.8097H122.802V32.8994ZM123.747 33.3908V35.3183H124.503C124.767 35.3183 124.956 35.3183 125.069 35.2805C125.221 35.2427 125.372 35.2049 125.447 35.1671C125.561 35.0915 125.636 35.0159 125.712 34.9026C125.788 34.7514 125.825 34.5624 125.825 34.3734C125.825 34.1467 125.788 33.9577 125.712 33.8443C125.636 33.7309 125.561 33.6175 125.447 33.5797C125.334 33.5041 125.183 33.4663 124.994 33.4285C124.843 33.4285 124.578 33.3908 124.2 33.3908H123.747Z" stroke="#BCB6B6" stroke-width="0.288"/>
<path d="M127.639 32.8994H128.622V34.4868C128.622 34.7136 128.622 34.9026 128.66 34.9782C128.697 35.0915 128.773 35.1671 128.924 35.2427C129.075 35.3183 129.302 35.3561 129.567 35.3561C129.831 35.3561 130.058 35.3183 130.171 35.2427C130.323 35.1671 130.398 35.0915 130.436 35.0159C130.474 34.9026 130.474 34.7514 130.474 34.5246V32.8994H131.456V34.449C131.456 34.7892 131.419 35.0159 131.381 35.1671C131.305 35.3183 131.23 35.4317 131.079 35.5451C130.927 35.6207 130.738 35.6963 130.512 35.7719C130.285 35.8097 129.982 35.8474 129.605 35.8474C129.151 35.8474 128.811 35.8097 128.546 35.7719C128.319 35.6963 128.13 35.6207 128.017 35.5073C127.866 35.3939 127.79 35.2805 127.715 35.2049C127.677 35.0159 127.639 34.7892 127.639 34.449V32.8994Z" stroke="#BCB6B6" stroke-width="0.288"/>
<path d="M132.212 34.8645L133.157 34.7889C133.233 35.0157 133.346 35.129 133.497 35.2424C133.686 35.318 133.913 35.3558 134.216 35.3558C134.518 35.3558 134.745 35.318 134.934 35.2424C135.085 35.1668 135.16 35.0535 135.16 34.9779C135.16 34.9023 135.123 34.8267 135.047 34.7889C134.971 34.7511 134.858 34.7133 134.707 34.6755C134.594 34.6377 134.329 34.5999 133.951 34.5243C133.422 34.4487 133.044 34.3731 132.855 34.2598C132.553 34.1086 132.401 33.8818 132.401 33.655C132.401 33.5038 132.477 33.3905 132.628 33.2393C132.742 33.1259 132.968 33.0125 133.195 32.9747C133.46 32.8991 133.8 32.8613 134.14 32.8613C134.745 32.8613 135.198 32.9369 135.501 33.0881C135.803 33.2771 135.954 33.4661 135.992 33.7306L135.009 33.7684C134.971 33.6172 134.896 33.5038 134.745 33.4283C134.631 33.3905 134.405 33.3527 134.14 33.3527C133.875 33.3527 133.649 33.3905 133.497 33.4661C133.384 33.5038 133.346 33.5416 133.346 33.6172C133.346 33.6928 133.384 33.7684 133.46 33.8062C133.611 33.8818 133.875 33.9196 134.367 33.9952C134.82 34.0708 135.198 34.1464 135.425 34.222C135.614 34.2975 135.803 34.3731 135.954 34.4865C136.068 34.6377 136.143 34.7889 136.143 34.9779C136.143 35.129 136.068 35.2802 135.916 35.4314C135.727 35.5826 135.538 35.6582 135.236 35.7338C134.971 35.8094 134.631 35.8472 134.216 35.8472C133.611 35.8472 133.119 35.7716 132.817 35.5826C132.477 35.4314 132.288 35.1668 132.212 34.8645Z" stroke="#BCB6B6" stroke-width="0.288"/>
<path d="M138.033 35.8097V33.3908H136.597V32.8994H140.414V33.3908H139.016V35.8097H138.033Z" stroke="#BCB6B6" stroke-width="0.288"/>
<path d="M141.057 35.8097V32.8994H143.098C143.589 32.8994 143.967 32.9372 144.194 32.975C144.458 33.0506 144.647 33.1262 144.761 33.2774C144.912 33.3908 144.987 33.5419 144.987 33.7309C144.987 33.9577 144.874 34.1089 144.647 34.26C144.458 34.4112 144.156 34.4868 143.702 34.5246C143.929 34.6002 144.118 34.6758 144.231 34.7514C144.383 34.8648 144.572 35.0159 144.798 35.2427L145.365 35.8097H144.194L143.513 35.1671C143.249 34.9404 143.098 34.7892 142.984 34.7514C142.909 34.6758 142.795 34.638 142.72 34.638C142.606 34.6002 142.455 34.6002 142.228 34.6002H142.039V35.8097H141.057ZM142.039 34.1467H142.757C143.211 34.1467 143.513 34.1089 143.627 34.1089C143.74 34.0711 143.816 34.0333 143.891 33.9955C143.967 33.9199 143.967 33.8443 143.967 33.7687C143.967 33.6553 143.929 33.5797 143.853 33.5419C143.778 33.4663 143.627 33.4285 143.476 33.4285C143.4 33.3908 143.173 33.3908 142.795 33.3908H142.039V34.1467Z" stroke="#BCB6B6" stroke-width="0.288"/>
<path d="M145.856 35.8097V32.8994H146.839V35.8097H145.856Z" stroke="#BCB6B6" stroke-width="0.288"/>
<path d="M152.093 35.8097H151.034L150.619 35.1293H148.691L148.313 35.8097H147.255L149.145 32.8994H150.165L152.093 35.8097ZM150.316 34.638L149.636 33.5797L148.993 34.638H150.316Z" stroke="#BCB6B6" stroke-width="0.288"/>
<path d="M152.622 35.8095V32.937H153.605V35.3181H156.024V35.8095H152.622Z" stroke="#BCB6B6" stroke-width="0.288"/>
<path d="M156.704 35.8097V32.8994H160.257V33.3908H157.687V34.0333H160.068V34.5246H157.687V35.3183H160.332V35.8097H156.704Z" stroke="#BCB6B6" stroke-width="0.288"/>
<path d="M160.899 34.8645L161.882 34.7889C161.92 35.0157 162.033 35.129 162.222 35.2424C162.373 35.318 162.6 35.3558 162.903 35.3558C163.205 35.3558 163.469 35.318 163.621 35.2424C163.772 35.1668 163.847 35.0535 163.847 34.9779C163.847 34.9023 163.81 34.8267 163.734 34.7889C163.696 34.7511 163.583 34.7133 163.394 34.6755C163.281 34.6377 163.016 34.5999 162.638 34.5243C162.109 34.4487 161.731 34.3731 161.542 34.2598C161.24 34.1086 161.088 33.8818 161.088 33.655C161.088 33.5038 161.164 33.3905 161.315 33.2393C161.429 33.1259 161.655 33.0125 161.92 32.9747C162.147 32.8991 162.487 32.8613 162.865 32.8613C163.432 32.8613 163.885 32.9369 164.188 33.0881C164.49 33.2771 164.679 33.4661 164.679 33.7306L163.696 33.7684C163.658 33.6172 163.583 33.5038 163.432 33.4283C163.318 33.3905 163.092 33.3527 162.827 33.3527C162.562 33.3527 162.336 33.3905 162.184 33.4661C162.071 33.5038 162.033 33.5416 162.033 33.6172C162.033 33.6928 162.071 33.7684 162.184 33.8062C162.298 33.8818 162.6 33.9196 163.054 33.9952C163.545 34.0708 163.885 34.1464 164.112 34.222C164.339 34.2975 164.49 34.3731 164.641 34.4865C164.755 34.6377 164.83 34.7889 164.83 34.9779C164.83 35.129 164.755 35.2802 164.603 35.4314C164.452 35.5826 164.225 35.6582 163.961 35.7338C163.658 35.8094 163.318 35.8472 162.903 35.8472C162.298 35.8472 161.844 35.7716 161.504 35.5826C161.164 35.4314 160.975 35.1668 160.899 34.8645Z" stroke="#BCB6B6" stroke-width="0.288"/>
<path d="M250.738 31.7653H246.165V31.1606H250.209V28.9307H250.738V31.7653Z" fill="#FEFEFE"/>
<path d="M250.738 26.9652H246.694V28.4392H246.165V24.8486H246.694V26.3604H250.738V26.9652Z" fill="#FEFEFE"/>
<path d="M250.738 23.6394H246.165V22.0898C246.165 21.7118 246.203 21.4473 246.241 21.2583C246.278 20.9937 246.392 20.7669 246.543 20.578C246.77 20.3512 247.034 20.1622 247.337 20.0488C247.639 19.9355 248.017 19.8599 248.433 19.8599C248.773 19.8599 249.075 19.9355 249.34 20.011C249.604 20.0866 249.831 20.2 250.02 20.3134C250.171 20.4268 250.323 20.578 250.436 20.7292C250.511 20.8803 250.587 21.0693 250.663 21.2583C250.7 21.4851 250.738 21.7118 250.738 22.0142V23.6394ZM250.209 23.0347V22.0898C250.209 21.7874 250.171 21.5229 250.096 21.3717C250.058 21.1827 249.982 21.0693 249.869 20.9559C249.718 20.8047 249.529 20.6914 249.302 20.6158C249.037 20.5402 248.773 20.5024 248.395 20.5024C247.941 20.5024 247.563 20.578 247.299 20.7292C247.034 20.8803 246.883 21.0693 246.808 21.2961C246.732 21.4851 246.694 21.7118 246.694 22.0898V23.0347H250.209Z" fill="#FEFEFE"/>
<path d="M250.738 18.9906L246.165 17.2142V16.5717L250.738 14.7197V15.4L249.34 15.9292V17.8567L250.738 18.3481V18.9906ZM248.849 17.6678V16.1182L247.601 16.5717C247.223 16.7229 246.883 16.8363 246.619 16.9119C246.921 16.9874 247.223 17.063 247.526 17.1764L248.849 17.6678Z" fill="#FEFEFE"/>
<path d="M250.738 31.7653H246.165V31.1606H250.209V28.9307H250.738V31.7653Z" stroke="#FEFEFE" stroke-width="0.288"/>
<path d="M250.738 26.9652H246.694V28.4392H246.165V24.8486H246.694V26.3604H250.738V26.9652Z" stroke="#FEFEFE" stroke-width="0.288"/>
<path d="M250.738 23.6394H246.165V22.0898C246.165 21.7118 246.203 21.4473 246.241 21.2583C246.278 20.9937 246.392 20.7669 246.543 20.578C246.77 20.3512 247.034 20.1622 247.337 20.0488C247.639 19.9355 248.017 19.8599 248.433 19.8599C248.773 19.8599 249.075 19.9355 249.34 20.011C249.604 20.0866 249.831 20.2 250.02 20.3134C250.171 20.4268 250.323 20.578 250.436 20.7292C250.511 20.8803 250.587 21.0693 250.663 21.2583C250.7 21.4851 250.738 21.7118 250.738 22.0142V23.6394ZM250.209 23.0347V22.0898C250.209 21.7874 250.171 21.5229 250.096 21.3717C250.058 21.1827 249.982 21.0693 249.869 20.9559C249.718 20.8047 249.529 20.6914 249.302 20.6158C249.037 20.5402 248.773 20.5024 248.395 20.5024C247.941 20.5024 247.563 20.578 247.299 20.7292C247.034 20.8803 246.883 21.0693 246.808 21.2961C246.732 21.4851 246.694 21.7118 246.694 22.0898V23.0347H250.209Z" stroke="#FEFEFE" stroke-width="0.288"/>
<path d="M250.738 18.9906L246.165 17.2142V16.5717L250.738 14.7197V15.4L249.34 15.9292V17.8567L250.738 18.3481V18.9906ZM248.849 17.6678V16.1182L247.601 16.5717C247.223 16.7229 246.883 16.8363 246.619 16.9119C246.921 16.9874 247.223 17.063 247.526 17.1764L248.849 17.6678Z" stroke="#FEFEFE" stroke-width="0.288"/>
<path fill-rule="evenodd" clip-rule="evenodd" d="M128.093 12.9434H140.527C141.51 14.304 142.228 16.3827 142.266 17.8945H137.73C137.579 17.2898 137.39 16.8741 137.201 16.5717C136.899 16.1182 136.521 15.7402 136.105 15.5134C135.652 15.2489 135.16 15.1355 134.631 15.1355C133.384 15.1355 132.439 15.7024 131.797 16.7985C131.267 17.63 131.041 18.9528 131.041 20.7292C131.041 22.9213 131.343 24.4331 131.91 25.2268C132.515 26.0583 133.346 26.4741 134.404 26.4741C135.463 26.4741 136.256 26.1339 136.786 25.4914C137.315 24.8111 137.579 24.3575 137.844 23.0725L142.53 23.1103C142.682 24.9623 141.85 27.0032 141.17 28.0237C140.489 29.0441 139.658 29.8001 138.6 30.2914C137.617 30.8205 136.294 31.0851 134.745 31.0851C132.817 31.0851 131.267 30.7449 130.058 30.1402C128.849 29.4977 127.79 28.4016 126.921 26.8142C126.014 25.2268 125.598 23.2237 125.598 20.767C125.598 17.4788 126.354 14.9465 127.904 13.1701C127.979 13.0945 128.055 13.0189 128.093 12.9434Z" fill="#26156E" stroke="#BCB6B6" stroke-width="0.29"/>
<path d="M14.5179 13.2834C14.2534 12.8676 13.951 12.5652 13.5731 12.2629C12.4014 11.318 10.7006 10.8267 8.4707 10.8267C6.61873 10.8267 5.18251 11.0912 4.12424 11.6204C3.29275 12.0361 2.61243 12.603 2.12109 13.2834H14.5179Z" fill="#F8ED0D" stroke="#F8ED0D" stroke-width="0.288"/>
<path d="M33.4914 13.1322V11.0156H18.978V13.1322H33.4914Z" fill="#F8ED0D" stroke="#F8ED0D" stroke-width="0.288"/>
<path d="M51.6706 13.1322C51.1415 12.3385 50.4612 11.8093 49.6675 11.507C48.7604 11.1668 47.4754 11.0156 45.8124 11.0156H36.7793V13.1322H51.6706Z" fill="#F8ED0D" stroke="#F8ED0D" stroke-width="0.288"/>
<path d="M74.3856 3.22992L68.0737 3.26772L68.3383 1.0378L74.8013 1L74.3856 3.22992ZM62.1399 13.1323L61.7241 11.0157H54.9966L55.5635 13.1323H62.1399Z" fill="#F8ED0D" stroke="#F8ED0D" stroke-width="0.288"/>
<path d="M85.0065 13.1321V10.751H79.564V13.1321H85.0065Z" fill="#F8ED0D" stroke="#F8ED0D" stroke-width="0.288"/>
<path d="M102.468 13.1323C102.203 12.7543 101.901 12.452 101.599 12.2252C100.351 11.2047 98.6127 10.7134 96.3828 10.7134C93.6993 10.7134 91.5828 11.5071 90.0332 13.1323H102.468Z" fill="#F8ED0D" stroke="#F8ED0D" stroke-width="0.288"/>
<path d="M122.877 13.1322V11.0156H117.435V13.1322H121.063H122.877ZM111.463 13.1322V11.0156H106.021V13.1322H111.463Z" fill="#F8ED0D" stroke="#F8ED0D" stroke-width="0.288"/>
<path d="M150.506 13.1322V11.2803H145.063V13.1322H150.506ZM161.882 13.1322V11.2803H156.439V13.1322H161.882Z" fill="#F8ED0D" stroke="#F8ED0D" stroke-width="0.288"/>
<path d="M170.651 13.1322V11.0156H165.208V13.1322H170.651Z" fill="#F8ED0D" stroke="#F8ED0D" stroke-width="0.288"/>
<path d="M179.003 13.1322V11.0156H174.052V13.1322H179.003Z" fill="#F8ED0D" stroke="#F8ED0D" stroke-width="0.288"/>
<path d="M195.18 13.1322V11.0156H190.417V13.1322H195.18Z" fill="#F8ED0D" stroke="#F8ED0D" stroke-width="0.288"/>
<path d="M216.799 13.1322L216.08 11.0156H210.147L209.466 13.1322H216.799Z" fill="#F8ED0D" stroke="#F8ED0D" stroke-width="0.288"/>
<path d="M237.661 13.1325C237.397 12.7167 237.056 12.3766 236.716 12.112C235.545 11.1671 233.844 10.6758 231.576 10.6758C229.762 10.6758 228.326 10.9403 227.268 11.4695C226.398 11.8852 225.718 12.4522 225.227 13.1325H237.661Z" fill="#F8ED0D" stroke="#F8ED0D" stroke-width="0.288"/>
<path fill-rule="evenodd" clip-rule="evenodd" d="M128.093 12.9433H140.527C140.263 12.5654 139.998 12.263 139.696 12.0362C138.411 11.0158 136.672 10.5244 134.48 10.5244C131.759 10.5244 129.642 11.3181 128.093 12.9433Z" fill="#F8ED0D" stroke="#F8ED0D" stroke-width="0.29"/>
<path d="M2.00782 13.1323H14.4047C15.0472 14.0394 15.4251 15.2111 15.5763 16.6473L10.474 16.9874C10.3606 16.0804 10.0582 15.4378 9.64247 15.0221C9.18893 14.6063 8.5842 14.4174 7.8283 14.4174C7.18578 14.4174 6.73223 14.5685 6.39208 14.8709C6.08971 15.1355 5.93853 15.5134 5.93853 15.967C5.93853 16.2693 6.05192 16.5717 6.31648 16.7985C6.54326 17.063 7.14798 17.3276 8.13066 17.5544C10.5118 18.1213 12.1748 18.726 13.233 19.293C14.2535 19.8977 14.9716 20.6158 15.4629 21.5229C15.9165 22.3922 16.1433 23.3748 16.1433 24.4709C16.1433 25.7181 15.8409 26.8898 15.2362 27.9859C14.5936 29.0441 13.7244 29.8756 12.6283 30.4426C11.4944 31.0095 10.096 31.2741 8.39522 31.2741C5.4094 31.2741 3.33066 30.6315 2.1968 29.3087C1.02515 28.0237 0.382626 26.3607 0.231445 24.3575L5.3716 23.9796C5.48499 24.9244 5.71176 25.6426 6.05192 26.1339C6.61885 26.9654 7.41255 27.3433 8.47082 27.3433C9.22672 27.3433 9.83145 27.1544 10.2472 26.7386C10.6629 26.3229 10.8897 25.8315 10.8897 25.3024C10.8897 24.7733 10.7007 24.3197 10.285 23.904C9.90704 23.526 8.96215 23.1481 7.52593 22.7701C5.14483 22.1654 3.44404 21.3717 2.42357 20.3512C1.4031 19.3685 0.91176 18.0835 0.91176 16.5339C0.91176 15.5134 1.13853 14.5307 1.66767 13.6237C1.78105 13.4347 1.89444 13.2835 2.00782 13.1323Z" fill="#26156E" stroke="#BCB6B6" stroke-width="0.288"/>
<path d="M14.4047 13.1323C14.1401 12.7543 13.8377 12.4142 13.4976 12.1118C12.3259 11.1669 10.5873 10.7134 8.35742 10.7134C6.54325 10.7134 5.10703 10.9779 4.04876 11.4693C3.17947 11.885 2.49915 12.452 2.00781 13.1323H14.4047Z" fill="#F8ED0D" stroke="#F8ED0D" stroke-width="0.288"/>
</svg>
