<svg width="55" height="21" viewBox="0 0 55 21" fill="none" xmlns="http://www.w3.org/2000/svg">
<path d="M0.758523 12V3.27273H6.53693V4.79403H2.60369V6.87358H6.15341V8.39489H2.60369V12H0.758523ZM13.1687 3.27273H15.0138V8.94034C15.0138 9.5767 14.8619 10.1335 14.5579 10.6108C14.2567 11.0881 13.8349 11.4602 13.2923 11.7273C12.7496 11.9915 12.1175 12.1236 11.396 12.1236C10.6715 12.1236 10.038 11.9915 9.49538 11.7273C8.95277 11.4602 8.53089 11.0881 8.22976 10.6108C7.92862 10.1335 7.77805 9.5767 7.77805 8.94034V3.27273H9.62322V8.78267C9.62322 9.11506 9.69567 9.41051 9.84055 9.66903C9.98828 9.92756 10.1957 10.1307 10.4627 10.2784C10.7298 10.4261 11.0408 10.5 11.396 10.5C11.7539 10.5 12.065 10.4261 12.3292 10.2784C12.5962 10.1307 12.8022 9.92756 12.9471 9.66903C13.0948 9.41051 13.1687 9.11506 13.1687 8.78267V3.27273ZM18.0362 12H16.0589L19.0717 3.27273H21.4496L24.4581 12H22.4808L20.2947 5.26705H20.2266L18.0362 12ZM17.9126 8.5696H22.5831V10.0099H17.9126V8.5696ZM27.2386 3.27273L28.9986 6.24716H29.0668L30.8352 3.27273H32.919L30.2557 7.63636L32.9787 12H30.8565L29.0668 9.02131H28.9986L27.2088 12H25.0952L27.8267 7.63636L25.1463 3.27273H27.2386ZM35.9318 3.27273V12H34.0866V3.27273H35.9318ZM45.4698 7.63636C45.4698 8.58807 45.2894 9.39773 44.9286 10.0653C44.5707 10.733 44.082 11.2429 43.4627 11.5952C42.8462 11.9446 42.1531 12.1193 41.3832 12.1193C40.6076 12.1193 39.9116 11.9432 39.2951 11.5909C38.6786 11.2386 38.1914 10.7287 37.8335 10.0611C37.4755 9.39347 37.2965 8.58523 37.2965 7.63636C37.2965 6.68466 37.4755 5.875 37.8335 5.20739C38.1914 4.53977 38.6786 4.03125 39.2951 3.68182C39.9116 3.32955 40.6076 3.15341 41.3832 3.15341C42.1531 3.15341 42.8462 3.32955 43.4627 3.68182C44.082 4.03125 44.5707 4.53977 44.9286 5.20739C45.2894 5.875 45.4698 6.68466 45.4698 7.63636ZM43.5991 7.63636C43.5991 7.01989 43.5067 6.5 43.3221 6.0767C43.1403 5.65341 42.8832 5.33239 42.5508 5.11364C42.2184 4.89489 41.8292 4.78551 41.3832 4.78551C40.9371 4.78551 40.5479 4.89489 40.2156 5.11364C39.8832 5.33239 39.6246 5.65341 39.44 6.0767C39.2582 6.5 39.1673 7.01989 39.1673 7.63636C39.1673 8.25284 39.2582 8.77273 39.44 9.19602C39.6246 9.61932 39.8832 9.94034 40.2156 10.1591C40.5479 10.3778 40.9371 10.4872 41.3832 10.4872C41.8292 10.4872 42.2184 10.3778 42.5508 10.1591C42.8832 9.94034 43.1403 9.61932 43.3221 9.19602C43.5067 8.77273 43.5991 8.25284 43.5991 7.63636ZM54.1364 3.27273V12H52.5426L48.7457 6.5071H48.6818V12H46.8366V3.27273H48.456L52.223 8.76136H52.2997V3.27273H54.1364Z" fill="white"/>
<path d="M1.92614 20H0.379261V15.6364H1.93892C2.37784 15.6364 2.75568 15.7237 3.07244 15.8984C3.3892 16.0717 3.63281 16.321 3.80327 16.6463C3.97514 16.9716 4.06108 17.3608 4.06108 17.8139C4.06108 18.2685 3.97514 18.6591 3.80327 18.9858C3.63281 19.3125 3.38778 19.5632 3.06818 19.7379C2.75 19.9126 2.36932 20 1.92614 20ZM1.30185 19.2095H1.88778C2.16051 19.2095 2.38991 19.1612 2.57599 19.0646C2.76349 18.9666 2.90412 18.8153 2.99787 18.6108C3.09304 18.4048 3.14062 18.1392 3.14062 17.8139C3.14062 17.4915 3.09304 17.228 2.99787 17.0234C2.90412 16.8189 2.7642 16.6683 2.57812 16.5717C2.39205 16.4751 2.16264 16.4268 1.88991 16.4268H1.30185V19.2095ZM6.3645 20V15.6364H9.30484V16.397H7.28708V17.4368H9.15356V18.1974H7.28708V19.2393H9.31336V20H6.3645ZM12.4467 15.6364L13.5014 18.9517H13.5418L14.5987 15.6364H15.6214L14.1171 20H12.9282L11.4218 15.6364H12.4467ZM17.7666 20V15.6364H20.7069V16.397H18.6892V17.4368H20.5557V18.1974H18.6892V19.2393H20.7155V20H17.7666ZM23.0604 20V15.6364H23.983V19.2393H25.8538V20H23.0604ZM31.9248 17.8182C31.9248 18.294 31.8346 18.6989 31.6542 19.0327C31.4752 19.3665 31.2309 19.6214 30.9212 19.7976C30.613 19.9723 30.2664 20.0597 29.8814 20.0597C29.4936 20.0597 29.1456 19.9716 28.8374 19.7955C28.5292 19.6193 28.2855 19.3643 28.1066 19.0305C27.9276 18.6967 27.8381 18.2926 27.8381 17.8182C27.8381 17.3423 27.9276 16.9375 28.1066 16.6037C28.2855 16.2699 28.5292 16.0156 28.8374 15.8409C29.1456 15.6648 29.4936 15.5767 29.8814 15.5767C30.2664 15.5767 30.613 15.6648 30.9212 15.8409C31.2309 16.0156 31.4752 16.2699 31.6542 16.6037C31.8346 16.9375 31.9248 17.3423 31.9248 17.8182ZM30.9894 17.8182C30.9894 17.5099 30.9432 17.25 30.8509 17.0384C30.76 16.8267 30.6314 16.6662 30.4652 16.5568C30.299 16.4474 30.1044 16.3928 29.8814 16.3928C29.6584 16.3928 29.4638 16.4474 29.2976 16.5568C29.1314 16.6662 29.0022 16.8267 28.9098 17.0384C28.8189 17.25 28.7735 17.5099 28.7735 17.8182C28.7735 18.1264 28.8189 18.3864 28.9098 18.598C29.0022 18.8097 29.1314 18.9702 29.2976 19.0795C29.4638 19.1889 29.6584 19.2436 29.8814 19.2436C30.1044 19.2436 30.299 19.1889 30.4652 19.0795C30.6314 18.9702 30.76 18.8097 30.8509 18.598C30.9432 18.3864 30.9894 18.1264 30.9894 17.8182ZM34.2282 20V15.6364H35.9498C36.2807 15.6364 36.5627 15.6996 36.7956 15.826C37.0286 15.951 37.2062 16.125 37.3283 16.348C37.4519 16.5696 37.5137 16.8253 37.5137 17.1151C37.5137 17.4048 37.4512 17.6605 37.3262 17.8821C37.2012 18.1037 37.0201 18.2763 36.7829 18.3999C36.5471 18.5234 36.2615 18.5852 35.9263 18.5852H34.829V17.8459H35.7772C35.9547 17.8459 36.101 17.8153 36.2161 17.7543C36.3326 17.6918 36.4192 17.6058 36.476 17.4964C36.5343 17.3857 36.5634 17.2585 36.5634 17.1151C36.5634 16.9702 36.5343 16.8437 36.476 16.7358C36.4192 16.6264 36.3326 16.5419 36.2161 16.4822C36.0996 16.4212 35.9519 16.3906 35.7729 16.3906H35.1508V20H34.2282ZM39.7329 20V15.6364H42.6733V16.397H40.6555V17.4368H42.522V18.1974H40.6555V19.2393H42.6818V20H39.7329ZM45.0268 20V15.6364H46.7484C47.0779 15.6364 47.3591 15.6953 47.5921 15.8132C47.8265 15.9297 48.0047 16.0952 48.1269 16.3097C48.2505 16.5227 48.3123 16.7734 48.3123 17.0618C48.3123 17.3516 48.2498 17.6009 48.1248 17.8097C47.9998 18.017 47.8187 18.1761 47.5814 18.2869C47.3457 18.3977 47.0601 18.4531 46.7249 18.4531H45.5722V17.7116H46.5758C46.7519 17.7116 46.8982 17.6875 47.0147 17.6392C47.1312 17.5909 47.2178 17.5185 47.2746 17.4219C47.3329 17.3253 47.362 17.2053 47.362 17.0618C47.362 16.9169 47.3329 16.7947 47.2746 16.6953C47.2178 16.5959 47.1305 16.5206 47.0126 16.4695C46.8961 16.4169 46.7491 16.3906 46.5715 16.3906H45.9493V20H45.0268ZM47.3833 18.0142L48.4678 20H47.4493L46.3883 18.0142H47.3833ZM52.9515 16.8913C52.9344 16.7195 52.8613 16.5859 52.732 16.4908C52.6027 16.3956 52.4273 16.348 52.2057 16.348C52.0551 16.348 51.928 16.3693 51.8243 16.4119C51.7206 16.4531 51.6411 16.5107 51.5857 16.5845C51.5317 16.6584 51.5047 16.7422 51.5047 16.8359C51.5019 16.9141 51.5182 16.9822 51.5537 17.0405C51.5907 17.0987 51.6411 17.1491 51.705 17.1918C51.7689 17.233 51.8428 17.2692 51.9266 17.3004C52.0104 17.3303 52.0999 17.3558 52.1951 17.3771L52.5871 17.4709C52.7774 17.5135 52.9522 17.5703 53.1113 17.6413C53.2703 17.7124 53.4081 17.7997 53.5246 17.9034C53.6411 18.0071 53.7313 18.1293 53.7952 18.2699C53.8605 18.4105 53.8939 18.5717 53.8953 18.7536C53.8939 19.0206 53.8257 19.2521 53.6908 19.4482C53.5573 19.6428 53.3641 19.794 53.1113 19.902C52.8598 20.0085 52.5566 20.0618 52.2015 20.0618C51.8492 20.0618 51.5424 20.0078 51.281 19.8999C51.0211 19.7919 50.8179 19.6321 50.6716 19.4205C50.5267 19.2074 50.4507 18.9439 50.4436 18.63H51.3364C51.3463 18.7763 51.3882 18.8984 51.4621 18.9964C51.5374 19.093 51.6375 19.1662 51.7625 19.2159C51.889 19.2642 52.0317 19.2884 52.1908 19.2884C52.347 19.2884 52.4827 19.2656 52.5978 19.2202C52.7142 19.1747 52.8044 19.1115 52.8684 19.0305C52.9323 18.9496 52.9642 18.8565 52.9642 18.7514C52.9642 18.6534 52.9351 18.571 52.8769 18.5043C52.8201 18.4375 52.7363 18.3807 52.6255 18.3338C52.5161 18.2869 52.3818 18.2443 52.2228 18.206L51.7476 18.0866C51.3797 17.9972 51.0892 17.8572 50.8762 17.6669C50.6631 17.4766 50.5573 17.2202 50.5587 16.8977C50.5573 16.6335 50.6276 16.4027 50.7696 16.2053C50.9131 16.0078 51.1098 15.8537 51.3598 15.7429C51.6098 15.6321 51.8939 15.5767 52.2121 15.5767C52.536 15.5767 52.8186 15.6321 53.0601 15.7429C53.303 15.8537 53.4919 16.0078 53.6269 16.2053C53.7618 16.4027 53.8314 16.6314 53.8357 16.8913H52.9515Z" fill="white"/>
</svg>
