<svg width="252" height="36" viewBox="0 0 252 36" fill="none" xmlns="http://www.w3.org/2000/svg">
<path d="M19.978 13.1323H34.4914V15.2867H25.4205V18.4615H32.904V22.5056H25.4205V26.4363H34.756V30.9339H19.978V13.1323Z" fill="#26156E" stroke="#F8ED0D"/>
<path fill-rule="evenodd" clip-rule="evenodd" d="M52.6706 13.1323H37.7793V30.9339H43.2218V22.8457H43.6754C44.1667 22.8457 44.6202 22.9969 45.036 23.337C45.3006 23.5638 45.6407 24.0552 46.0187 24.8489L48.8911 30.9339H55.0517L52.4061 25.189C52.2549 24.8867 52.0281 24.4709 51.6502 23.9418C51.2722 23.4126 50.9698 23.0347 50.7809 22.8835C50.4785 22.6567 50.025 22.3922 49.3824 22.1654C50.1761 21.9386 50.8187 21.6741 51.2722 21.3717C51.9903 20.8804 52.5572 20.2378 52.973 19.4063C53.3887 18.6126 53.6155 17.6678 53.6155 16.5717C53.6155 15.2867 53.3509 14.1906 52.784 13.3213C52.7462 13.2457 52.7084 13.1701 52.6706 13.1323ZM46.2458 19.1042H43.2222V15.0601H46.3592C47.3419 15.0601 48.0222 15.2112 48.4001 15.5892C48.7403 15.9293 48.9293 16.4207 48.9293 17.0632C48.9293 17.5923 48.7403 18.1593 48.2867 18.4994C47.7576 18.953 46.8505 19.1042 46.2458 19.1042Z" fill="#26156E"/>
<path d="M37.7793 13.1323V12.6323H37.2793V13.1323H37.7793ZM52.6706 13.1323L53.0242 12.7788L52.8777 12.6323H52.6706V13.1323ZM37.7793 30.9339H37.2793V31.4339H37.7793V30.9339ZM43.2218 30.9339V31.4339H43.7218V30.9339H43.2218ZM43.2218 22.8457V22.3457H42.7218V22.8457H43.2218ZM45.036 23.337L45.3615 22.9573L45.3526 22.9501L45.036 23.337ZM46.0187 24.8489L46.4708 24.6354L46.4701 24.6339L46.0187 24.8489ZM48.8911 30.9339L48.439 31.1473L48.5742 31.4339H48.8911V30.9339ZM55.0517 30.9339V31.4339H55.8325L55.5059 30.7247L55.0517 30.9339ZM52.4061 25.189L52.8602 24.9799L52.8569 24.9726L52.8533 24.9654L52.4061 25.189ZM50.7809 22.8835L51.0932 22.4931L51.0871 22.4882L51.0809 22.4835L50.7809 22.8835ZM49.3824 22.1654L49.2451 21.6846L47.738 22.1152L49.216 22.6369L49.3824 22.1654ZM51.2722 21.3717L51.5496 21.7877L51.5546 21.7843L51.2722 21.3717ZM52.973 19.4063L52.53 19.1743L52.5258 19.1827L52.973 19.4063ZM52.784 13.3213L52.3368 13.5449L52.3496 13.5705L52.3652 13.5944L52.784 13.3213ZM43.2222 19.1042H42.7222V19.6042H43.2222V19.1042ZM43.2222 15.0601V14.5601H42.7222V15.0601H43.2222ZM48.2867 18.4994L47.9867 18.0994L47.9737 18.1092L47.9613 18.1198L48.2867 18.4994ZM37.7793 13.6323H52.6706V12.6323H37.7793V13.6323ZM38.2793 30.9339V13.1323H37.2793V30.9339H38.2793ZM43.2218 30.4339H37.7793V31.4339H43.2218V30.4339ZM42.7218 22.8457V30.9339H43.7218V22.8457H42.7218ZM43.6754 22.3457H43.2218V23.3457H43.6754V22.3457ZM45.3526 22.9501C44.8462 22.5357 44.2804 22.3457 43.6754 22.3457V23.3457C44.053 23.3457 44.3943 23.4581 44.7194 23.724L45.3526 22.9501ZM46.4701 24.6339C46.0858 23.827 45.7091 23.2555 45.3614 22.9574L44.7106 23.7167C44.892 23.8722 45.1956 24.2834 45.5672 25.0638L46.4701 24.6339ZM49.3433 30.7205L46.4708 24.6354L45.5665 25.0623L48.439 31.1473L49.3433 30.7205ZM55.0517 30.4339H48.8911V31.4339H55.0517V30.4339ZM51.9519 25.3982L54.5976 31.143L55.5059 30.7247L52.8602 24.9799L51.9519 25.3982ZM51.2433 24.2324C51.603 24.736 51.8168 25.1284 51.9589 25.4126L52.8533 24.9654C52.693 24.6449 52.4532 24.2058 52.057 23.6512L51.2433 24.2324ZM50.4685 23.2739C50.5192 23.3145 50.6143 23.4118 50.7572 23.587C50.8943 23.755 51.0575 23.9722 51.2433 24.2324L52.057 23.6512C51.8649 23.3822 51.6879 23.1459 51.5321 22.9548C51.3821 22.7709 51.2315 22.6037 51.0932 22.4931L50.4685 23.2739ZM49.216 22.6369C49.8129 22.8476 50.221 23.0886 50.4809 23.2835L51.0809 22.4835C50.736 22.2248 50.237 21.9368 49.5489 21.6939L49.216 22.6369ZM50.9949 20.9557C50.6028 21.2171 50.0161 21.4643 49.2451 21.6846L49.5198 22.6462C50.3362 22.4129 51.0345 22.1311 51.5496 21.7877L50.9949 20.9557ZM52.5258 19.1827C52.1476 19.9391 51.637 20.5162 50.9899 20.959L51.5546 21.7843C52.3436 21.2445 52.9669 20.5365 53.4202 19.6299L52.5258 19.1827ZM53.1155 16.5717C53.1155 17.5977 52.9036 18.4612 52.5301 19.1743L53.4159 19.6383C53.8738 18.7641 54.1155 17.7378 54.1155 16.5717H53.1155ZM52.3652 13.5944C52.8644 14.3598 53.1155 15.3524 53.1155 16.5717H54.1155C54.1155 15.2209 53.8375 14.0214 53.2028 13.0482L52.3652 13.5944ZM52.3171 13.4859C52.2988 13.4676 52.2895 13.454 52.2885 13.4527C52.2869 13.4504 52.2884 13.4523 52.2932 13.4607C52.2978 13.4688 52.3037 13.4797 52.3114 13.4945C52.3191 13.5095 52.3271 13.5255 52.3368 13.5449L53.2312 13.0977C53.2138 13.0629 53.1885 13.012 53.1614 12.9646C53.1378 12.9232 53.0921 12.8467 53.0242 12.7788L52.3171 13.4859ZM43.2222 19.6042H46.2458V18.6042H43.2222V19.6042ZM42.7222 15.0601V19.1042H43.7222V15.0601H42.7222ZM46.3592 14.5601H43.2222V15.5601H46.3592V14.5601ZM48.7537 15.2356C48.2203 14.7022 47.3493 14.5601 46.3592 14.5601V15.5601C47.3344 15.5601 47.8241 15.7202 48.0466 15.9427L48.7537 15.2356ZM49.4293 17.0632C49.4293 16.3202 49.2081 15.6901 48.7537 15.2356L48.0466 15.9427C48.2724 16.1686 48.4293 16.5212 48.4293 17.0632H49.4293ZM48.5867 18.8994C49.2051 18.4357 49.4293 17.6938 49.4293 17.0632H48.4293C48.4293 17.4909 48.2755 17.8829 47.9867 18.0994L48.5867 18.8994ZM46.2458 19.6042C46.5853 19.6042 47.0054 19.5622 47.4188 19.4562C47.8269 19.3516 48.2673 19.1746 48.6121 18.8791L47.9613 18.1198C47.7771 18.2778 47.4993 18.4032 47.1704 18.4875C46.8468 18.5705 46.511 18.6042 46.2458 18.6042V19.6042Z" fill="#F8ED0D"/>
<path d="M75.386 3.22998L70.586 30.8961H61.5151L56.564 13.1323H63.1403L66.2018 28.0237L69.0742 3.26778L75.386 3.22998Z" fill="#26156E" stroke="#F8ED0D"/>
<path d="M80.564 13.1323H86.0065V30.6693H80.564V13.1323Z" fill="#26156E" stroke="#F8ED0D"/>
<path d="M91.0333 13.1323H103.468C104.413 14.493 105.169 16.5717 105.169 18.0835H100.671C100.482 17.4788 100.293 17.063 100.142 16.7607C99.8018 16.3071 99.4616 15.9292 99.0081 15.7024C98.5545 15.4378 98.0632 15.3244 97.534 15.3244C96.2868 15.3244 95.3419 15.8914 94.6994 16.9874C94.2081 17.8189 93.9435 19.1418 93.9435 20.9182C93.9435 23.1103 94.2459 24.6221 94.8506 25.4158C95.4553 26.2473 96.249 26.663 97.3451 26.663C98.3655 26.663 99.1592 26.3229 99.6884 25.6426C100.218 25 100.52 24.5465 100.747 23.2615L105.433 23.2993C105.584 25.1512 104.791 27.1922 104.11 28.2126C103.392 29.1953 102.561 29.989 101.54 30.4804C100.52 31.0095 99.2348 31.2741 97.6474 31.2741C95.7199 31.2741 94.1703 30.9339 92.9608 30.3292C91.7514 29.6867 90.6931 28.5906 89.8238 27.0032C88.9545 25.4158 88.501 23.4126 88.501 20.9182C88.501 17.63 89.2947 15.1355 90.8443 13.3591C90.8821 13.2835 90.9577 13.2079 91.0333 13.1323Z" fill="#26156E" stroke="#F8ED0D"/>
<path d="M107.021 13.1323H112.463V23.1859C112.463 24.2441 112.728 25.1134 113.257 25.7181C113.786 26.3229 114.504 26.6252 115.449 26.6252C116.394 26.6252 117.112 26.3229 117.641 25.7181C118.17 25.1134 118.435 24.2819 118.435 23.1859V13.1323H122.063H123.877V22.8835C123.877 24.0552 123.688 25.189 123.386 26.2095C123.046 27.2678 122.554 28.1748 121.836 28.9685C121.156 29.7244 120.438 30.2914 119.682 30.5937C118.624 31.0473 117.376 31.2741 115.865 31.2741C115.033 31.2741 114.088 31.1985 113.068 31.0473C112.085 30.9339 111.216 30.6693 110.535 30.2536C109.855 29.8378 109.25 29.2709 108.683 28.5528C108.117 27.7969 107.739 27.041 107.55 26.2473C107.209 25 107.021 23.8662 107.021 22.8835V13.1323Z" fill="#26156E" stroke="#F8ED0D"/>
<path d="M146.063 13.1323H151.506V18.2347H157.439V13.1323H162.882V31.1985H157.439V23.1481H151.506V31.1985H146.063V13.1323Z" fill="#26156E" stroke="#F8ED0D"/>
<path d="M166.208 13.1323H171.651V30.9339H166.208V13.1323Z" fill="#26156E" stroke="#F8ED0D"/>
<path d="M175.052 13.1323H180.003V26.0205H187.789V30.9339H175.052V13.1323Z" fill="#26156E" stroke="#F8ED0D"/>
<path d="M191.417 13.1323H196.18V26.0205H203.701V30.9339H191.417V13.1323Z" fill="#26156E" stroke="#F8ED0D"/>
<path d="M210.466 13.1323H217.798L223.657 30.9339H217.987L217.118 27.6457H210.957L210.088 30.9339H204.532L210.466 13.1323ZM215.946 23.337L214.057 16.1937L212.129 23.337H215.946Z" fill="#26156E" stroke="#F8ED0D"/>
<path d="M226.227 13.1323H238.661C239.266 14.0016 239.644 15.1733 239.833 16.6095L234.693 16.9874C234.579 16.0804 234.277 15.4 233.861 14.9843C233.408 14.6063 232.803 14.3796 232.047 14.3796C231.442 14.3796 230.951 14.5307 230.611 14.8331C230.308 15.1355 230.157 15.5134 230.157 15.9292C230.157 16.2693 230.271 16.5339 230.535 16.7985C230.8 17.063 231.405 17.2898 232.349 17.5166C234.731 18.1213 236.431 18.6882 237.452 19.293C238.472 19.8977 239.228 20.6158 239.682 21.4851C240.135 22.3544 240.362 23.337 240.362 24.4331C240.362 25.7182 240.06 26.8898 239.455 27.9859C238.812 29.0441 237.943 29.8756 236.847 30.4048C235.713 30.9717 234.315 31.2363 232.614 31.2363C229.628 31.2363 227.549 30.5937 226.416 29.3087C225.244 27.9859 224.601 26.3607 224.45 24.3197L229.59 23.9796C229.704 24.9245 229.931 25.6426 230.308 26.1339C230.838 26.9276 231.631 27.3433 232.69 27.3433C233.445 27.3433 234.05 27.1166 234.466 26.7008C234.882 26.3229 235.108 25.8315 235.108 25.3024C235.108 24.7733 234.919 24.3197 234.504 23.904C234.126 23.4882 233.181 23.1103 231.745 22.7323C229.364 22.1654 227.663 21.3339 226.642 20.3512C225.622 19.3307 225.131 18.0457 225.131 16.4961C225.131 15.4756 225.395 14.5307 225.886 13.6237C226 13.4347 226.113 13.2835 226.227 13.1323Z" fill="#26156E" stroke="#F8ED0D"/>
<path d="M79.1648 35.2975L79.1722 35.2945L79.1791 35.2904C79.357 35.1836 79.51 35.0416 79.6026 34.8618L80.3386 34.9796C80.1999 35.2321 80.0059 35.4061 79.7295 35.529C79.406 35.6728 79.0051 35.7472 78.4851 35.7472C77.8542 35.7472 77.3468 35.6358 76.9532 35.386C76.5989 35.1373 76.393 34.7885 76.393 34.3731C76.393 33.9216 76.5974 33.6099 76.9532 33.3603C77.349 33.109 77.8954 32.9613 78.5607 32.9613C79.1141 32.9613 79.5859 33.0719 79.907 33.2492C80.0864 33.369 80.2245 33.4788 80.3053 33.6148L79.5701 33.7324C79.496 33.5844 79.3433 33.4815 79.2135 33.4161C79.003 33.2909 78.7563 33.2527 78.4851 33.2527C78.1314 33.2527 77.808 33.3311 77.5603 33.4962C77.2972 33.6717 77.1756 33.9736 77.1756 34.3353C77.1756 34.7326 77.2957 35.0359 77.5603 35.2122C77.8072 35.3768 78.0923 35.4558 78.4851 35.4558C78.7689 35.4558 78.973 35.3742 79.1613 35.2988L79.1648 35.2975Z" fill="#26156E" stroke="#F8ED0D" stroke-width="0.2"/>
<path d="M84.2061 35.0607L84.2093 35.0543L84.2115 35.0476C84.2545 34.9186 84.2545 34.7532 84.2545 34.5422C84.2545 34.5364 84.2545 34.5305 84.2545 34.5246V32.9994H85.0371V34.449C85.0371 34.7733 85.002 34.9892 84.9672 35.1322C84.899 35.2671 84.8333 35.3628 84.7063 35.4597C84.5636 35.5304 84.3845 35.6021 84.1681 35.6745C83.9461 35.7112 83.652 35.7474 83.2852 35.7474C82.8427 35.7474 82.51 35.711 82.25 35.6741C82.0246 35.5986 81.8615 35.5296 81.7685 35.4366L81.7635 35.4316L81.7578 35.4273C81.6888 35.3756 81.6368 35.3237 81.5922 35.2747C81.5773 35.2583 81.5616 35.2402 81.5458 35.222C81.5263 35.1996 81.5066 35.177 81.4878 35.1568C81.4529 34.9778 81.4198 34.7637 81.4198 34.449V32.9994H82.2025V34.4868V34.4891C82.2025 34.6007 82.2025 34.7069 82.2074 34.7947C82.2098 34.8391 82.2137 34.8809 82.2198 34.9178C82.2253 34.951 82.2336 34.9855 82.2475 35.0159C82.2974 35.1598 82.3975 35.2508 82.5601 35.3322C82.7316 35.4179 82.9765 35.4561 83.2474 35.4561C83.384 35.4561 83.5131 35.4464 83.6243 35.4261C83.7309 35.4068 83.8293 35.3764 83.9021 35.3295C84.0614 35.249 84.1558 35.1612 84.2061 35.0607Z" fill="#26156E" stroke="#F8ED0D" stroke-width="0.2"/>
<path d="M88.8778 35.2975L88.8853 35.2945L88.8922 35.2904C89.0769 35.1795 89.1969 35.0352 89.2793 34.8621L90.0139 34.9796C89.8752 35.2321 89.6812 35.4061 89.4048 35.529C89.0813 35.6728 88.6804 35.7472 88.1604 35.7472C87.5298 35.7472 87.0591 35.636 86.6645 35.3848C86.2735 35.136 86.0683 34.7879 86.0683 34.3731C86.0683 34.1437 86.1209 33.9541 86.2192 33.7918C86.3179 33.6288 86.4659 33.4878 86.6645 33.3614C87.0613 33.1089 87.5709 32.9613 88.236 32.9613C88.7873 32.9613 89.2608 33.0711 89.6219 33.2504C89.7905 33.3633 89.9107 33.4735 90.0045 33.6161L89.2478 33.7325C89.1835 33.5889 89.057 33.4842 88.8852 33.414C88.6763 33.2909 88.4319 33.2527 88.1982 33.2527C87.813 33.2527 87.4848 33.3286 87.2698 33.4986C87.0092 33.6744 86.8887 33.9752 86.8887 34.3353C86.8887 34.7308 87.0077 35.0331 87.2698 35.2098C87.4841 35.3793 87.8114 35.4558 88.1604 35.4558C88.444 35.4558 88.6849 35.3746 88.8778 35.2975Z" fill="#26156E" stroke="#F8ED0D" stroke-width="0.2"/>
<path d="M91.8778 34.5246V35.7097H91.0951V32.9994H91.8778V34.0333V34.1333H91.9778H93.8676H93.9676V34.0333V32.9994H94.7502V35.7097H93.9676V34.5246V34.4246H93.8676H91.9778H91.8778V34.5246Z" fill="#26156E" stroke="#F8ED0D" stroke-width="0.2"/>
<path d="M95.8954 35.7097V32.9994H96.6781V35.7097H95.8954Z" fill="#26156E" stroke="#F8ED0D" stroke-width="0.2"/>
<path d="M98.7053 35.4181H101.024V35.7095H97.8227V33.037H98.6053V35.3181V35.4181H98.7053Z" fill="#26156E" stroke="#F8ED0D" stroke-width="0.2"/>
<path d="M102.787 35.4181H105.106V35.7095H101.942V33.037H102.687V35.3181V35.4181H102.787Z" fill="#26156E" stroke="#F8ED0D" stroke-width="0.2"/>
<path d="M108.844 35.0772L108.815 35.0293H108.759H106.831H106.772L106.744 35.0808L106.394 35.7097H105.579L107.339 32.9994H108.252L110.047 35.7097H109.231L108.844 35.0772ZM108.456 34.738H108.64L108.541 34.5839L107.86 33.5257L107.774 33.391L107.691 33.5278L107.048 34.5861L106.956 34.738H107.134H108.456Z" fill="#26156E" stroke="#F8ED0D" stroke-width="0.2"/>
<path d="M111.731 35.3282L111.738 35.3323L111.745 35.3353C111.95 35.4171 112.19 35.4558 112.501 35.4558C112.808 35.4558 113.054 35.4179 113.226 35.3319C113.313 35.2882 113.382 35.2322 113.429 35.1726C113.475 35.115 113.508 35.0462 113.508 34.9779C113.508 34.9763 113.508 34.9747 113.508 34.973C113.508 34.9387 113.508 34.8886 113.494 34.8417C113.479 34.7859 113.443 34.7327 113.377 34.6994C113.292 34.6571 113.172 34.6175 113.02 34.5794C112.955 34.5582 112.854 34.5385 112.726 34.5156C112.674 34.5063 112.617 34.4964 112.554 34.4856C112.456 34.4685 112.344 34.4492 112.216 34.4259L112.216 34.4259L112.212 34.4253C111.685 34.3499 111.36 34.2762 111.149 34.1715C110.907 34.0323 110.787 33.8348 110.787 33.655C110.787 33.5883 110.795 33.5366 110.816 33.4865C110.838 33.4369 110.875 33.3825 110.941 33.315C111.084 33.2086 111.256 33.1078 111.494 33.0737L111.495 33.0746L111.508 33.0709C111.761 32.9985 112.054 32.9613 112.425 32.9613C113.022 32.9613 113.455 33.0361 113.737 33.1754C113.98 33.328 114.099 33.4673 114.131 33.6349L113.365 33.6655C113.305 33.521 113.191 33.4152 113.085 33.3451L113.071 33.3354L113.054 33.3312C112.898 33.2921 112.7 33.2527 112.425 33.2527C112.121 33.2527 111.878 33.2896 111.707 33.3734C111.649 33.3929 111.595 33.4174 111.556 33.4568C111.509 33.5037 111.494 33.5601 111.494 33.6172C111.494 33.6718 111.507 33.731 111.545 33.784C111.581 33.8343 111.634 33.8723 111.701 33.8968C111.74 33.9202 111.786 33.9379 111.836 33.9528C111.892 33.9695 111.958 33.9845 112.033 33.9989C112.133 34.0183 112.254 34.0378 112.391 34.06C112.456 34.0705 112.525 34.0817 112.598 34.0938L112.598 34.0938L112.599 34.094C113.088 34.1693 113.422 34.2439 113.641 34.3168C113.867 34.3921 114.031 34.4607 114.126 34.5525C114.23 34.6926 114.29 34.8214 114.29 34.9779C114.29 35.0932 114.233 35.2204 114.093 35.3607C113.963 35.4908 113.762 35.561 113.494 35.6376C113.242 35.7095 112.875 35.7472 112.463 35.7472C111.864 35.7472 111.431 35.6718 111.113 35.4952L111.113 35.4951L111.109 35.4931C110.874 35.3755 110.714 35.1822 110.63 34.9542L111.364 34.8955C111.388 34.9824 111.426 35.056 111.478 35.1206C111.545 35.205 111.632 35.2689 111.731 35.3282Z" fill="#26156E" stroke="#F8ED0D" stroke-width="0.2"/>
<path d="M117.136 35.7097V32.9994H117.919V35.7097H117.136Z" fill="#26156E" stroke="#F8ED0D" stroke-width="0.2"/>
<path d="M121.974 34.8648V32.9994H122.681V35.7097H121.839L119.902 33.8478L119.733 33.685V33.9199V35.7097H119.064V32.9994H119.83L121.804 34.9361L121.974 35.103V34.8648Z" fill="#26156E" stroke="#F8ED0D" stroke-width="0.2"/>
<path d="M126.469 33.0736L126.469 33.0737L126.471 33.074C126.716 33.109 126.928 33.2135 127.155 33.3273C127.329 33.432 127.467 33.5707 127.571 33.7446C127.671 33.9112 127.708 34.117 127.708 34.3734C127.708 34.6269 127.672 34.7961 127.571 34.9645C127.466 35.1394 127.289 35.3166 127.114 35.4215C126.939 35.5268 126.725 35.5988 126.471 35.6351L126.471 35.635L126.469 35.6354C126.245 35.6726 125.949 35.7097 125.616 35.7097H123.902V32.9994H125.578C125.949 32.9994 126.246 33.0365 126.469 33.0736ZM124.747 33.2908H124.647V33.3908V35.3183V35.4183H124.747H125.503H125.505C125.635 35.4183 125.751 35.4183 125.848 35.4135C125.942 35.4087 126.028 35.3991 126.097 35.3767C126.171 35.3581 126.247 35.3391 126.314 35.32C126.381 35.301 126.445 35.28 126.492 35.2566L126.492 35.2573L126.503 35.2503C126.627 35.1674 126.712 35.0824 126.795 34.958L126.796 34.9585L126.801 34.9473C126.885 34.7794 126.925 34.5744 126.925 34.3734C126.925 34.1407 126.887 33.9272 126.795 33.7888L126.793 33.7859C126.757 33.7312 126.716 33.6694 126.668 33.6168C126.622 33.5655 126.565 33.517 126.492 33.4895C126.362 33.4063 126.196 33.3669 126.013 33.3305L126.004 33.3285H125.994C125.939 33.3285 125.869 33.3233 125.778 33.3164C125.75 33.3144 125.721 33.3122 125.689 33.3099C125.556 33.3004 125.393 33.2908 125.2 33.2908H124.747Z" fill="#26156E" stroke="#F8ED0D" stroke-width="0.2"/>
<path d="M131.525 35.0607L131.529 35.0543L131.531 35.0476C131.574 34.9186 131.574 34.7532 131.574 34.5422C131.574 34.5364 131.574 34.5305 131.574 34.5246V32.9994H132.356V34.449C132.356 34.7733 132.321 34.9892 132.287 35.1322C132.218 35.2671 132.153 35.3628 132.026 35.4597C131.883 35.5304 131.704 35.6021 131.487 35.6745C131.265 35.7112 130.971 35.7474 130.605 35.7474C130.162 35.7474 129.829 35.711 129.569 35.6741C129.344 35.5986 129.181 35.5296 129.088 35.4366L129.083 35.4316L129.077 35.4273C129.008 35.3756 128.956 35.3237 128.912 35.2747C128.897 35.2583 128.881 35.2402 128.865 35.222C128.846 35.1996 128.826 35.177 128.807 35.1568C128.772 34.9778 128.739 34.7637 128.739 34.449V32.9994H129.522V34.4868V34.4891C129.522 34.6007 129.522 34.7069 129.527 34.7947C129.529 34.8391 129.533 34.8809 129.539 34.9178C129.545 34.951 129.553 34.9855 129.567 35.0159C129.617 35.1598 129.717 35.2508 129.879 35.3322C130.051 35.4179 130.296 35.4561 130.567 35.4561C130.703 35.4561 130.832 35.4464 130.944 35.4261C131.05 35.4068 131.149 35.3764 131.221 35.3295C131.381 35.249 131.475 35.1612 131.525 35.0607Z" fill="#26156E" stroke="#F8ED0D" stroke-width="0.2"/>
<path d="M134.437 35.3224L134.448 35.3304L134.46 35.3353C134.665 35.4171 134.905 35.4558 135.216 35.4558C135.526 35.4558 135.766 35.4171 135.971 35.3353L135.971 35.3356L135.978 35.3319C136.066 35.2882 136.134 35.2322 136.182 35.1726C136.228 35.115 136.26 35.0462 136.26 34.9779C136.26 34.8699 136.206 34.7565 136.092 34.6994C136.007 34.6571 135.886 34.6175 135.735 34.5794C135.67 34.5583 135.569 34.5385 135.446 34.5158C135.416 34.5101 135.384 34.5042 135.35 34.498C135.241 34.4781 135.114 34.455 134.971 34.4263L134.971 34.4261L134.965 34.4253C134.701 34.3876 134.478 34.3503 134.298 34.3088C134.116 34.2668 133.987 34.2223 133.906 34.174L133.907 34.1738L133.9 34.1703C133.62 34.0305 133.501 33.8329 133.501 33.655C133.501 33.5458 133.552 33.4573 133.699 33.31C133.795 33.2143 134.001 33.1085 134.212 33.0734L134.212 33.074L134.223 33.0709C134.476 32.9986 134.806 32.9613 135.14 32.9613C135.737 32.9613 136.17 33.0361 136.452 33.1754C136.689 33.3242 136.814 33.4642 136.868 33.6353L136.082 33.6655C136.032 33.5273 135.943 33.4155 135.789 33.3388L135.783 33.3356L135.776 33.3334C135.65 33.2912 135.412 33.2527 135.14 33.2527C134.872 33.2527 134.63 33.2899 134.459 33.3734C134.402 33.3929 134.348 33.4174 134.309 33.4568C134.262 33.5037 134.246 33.5601 134.246 33.6172C134.246 33.7252 134.301 33.8386 134.415 33.8957C134.504 33.9399 134.619 33.9703 134.767 33.9989C134.9 34.0247 135.068 34.0505 135.277 34.0827C135.301 34.0863 135.326 34.0901 135.351 34.0939C135.803 34.1693 136.172 34.2435 136.391 34.3159C136.576 34.3901 136.747 34.4592 136.883 34.5581C136.984 34.696 137.043 34.8235 137.043 34.9779C137.043 35.0921 136.987 35.218 136.85 35.3568C136.678 35.493 136.505 35.5634 136.212 35.6368L136.212 35.6367L136.209 35.6376C135.956 35.7097 135.626 35.7472 135.216 35.7472C134.613 35.7472 134.147 35.6707 133.87 35.4978L133.871 35.4969L133.858 35.4912C133.592 35.3731 133.429 35.1807 133.345 34.9542L134.09 34.8946C134.173 35.0991 134.293 35.2138 134.437 35.3224Z" fill="#26156E" stroke="#F8ED0D" stroke-width="0.2"/>
<path d="M139.916 33.3908V35.7097H139.133V33.3908V33.2908H139.033H137.697V32.9994H141.314V33.2908H140.016H139.916V33.3908Z" fill="#26156E" stroke="#F8ED0D" stroke-width="0.2"/>
<path d="M144.671 34.6195C144.896 34.6946 145.072 34.7662 145.174 34.8331C145.322 34.9443 145.506 35.092 145.728 35.3134L146.124 35.7097H145.233L144.582 35.0944L144.582 35.0943L144.578 35.0912C144.52 35.0412 144.466 34.9933 144.416 34.9494C144.356 34.8969 144.302 34.85 144.256 34.8116C144.18 34.7484 144.108 34.6938 144.038 34.6649C143.949 34.5848 143.829 34.543 143.736 34.5384C143.61 34.5001 143.449 34.5002 143.246 34.5002C143.24 34.5002 143.234 34.5002 143.228 34.5002H143.039H142.939V34.6002V35.7097H142.157V32.9994H144.098C144.58 32.9994 144.95 33.0363 145.172 33.0727C145.435 33.1482 145.59 33.2169 145.681 33.3374L145.689 33.3488L145.701 33.3574C145.827 33.4519 145.887 33.5734 145.887 33.7309C145.887 33.8259 145.864 33.9008 145.819 33.9684C145.773 34.038 145.7 34.1049 145.592 34.1768L145.592 34.1765L145.585 34.182C145.421 34.3127 145.146 34.3873 144.694 34.425L144.671 34.6195ZM142.939 34.1467V34.2467H143.039H143.757C143.987 34.2467 144.178 34.2371 144.326 34.2276C144.379 34.2241 144.425 34.2208 144.465 34.218C144.54 34.2126 144.593 34.2089 144.627 34.2089H144.643L144.658 34.2037C144.778 34.1637 144.859 34.1233 144.935 34.0853L144.936 34.0849L144.951 34.0777L144.962 34.0662C145.067 33.9612 145.067 33.8495 145.067 33.7725L145.067 33.7687C145.067 33.638 145.023 33.5227 144.912 33.4601C144.859 33.4121 144.79 33.3807 144.72 33.3607C144.65 33.3407 144.573 33.3303 144.496 33.3288C144.468 33.3183 144.436 33.3121 144.404 33.3077C144.362 33.3017 144.311 33.298 144.253 33.2956C144.137 33.2908 143.985 33.2908 143.798 33.2908H143.795H143.039H142.939V33.3908V34.1467Z" fill="#26156E" stroke="#F8ED0D" stroke-width="0.2"/>
<path d="M146.956 35.7097V32.9994H147.739V35.7097H146.956Z" fill="#26156E" stroke="#F8ED0D" stroke-width="0.2"/>
<path d="M151.704 35.0772L151.675 35.0293H151.619H149.691H149.632L149.604 35.0808L149.254 35.7097H148.439L150.199 32.9994H151.111L152.906 35.7097H152.09L151.704 35.0772ZM151.316 34.738H151.499L151.4 34.5839L150.72 33.5257L150.634 33.391L150.551 33.5278L149.908 34.5861L149.816 34.738H149.993H151.316Z" fill="#26156E" stroke="#F8ED0D" stroke-width="0.2"/>
<path d="M154.605 35.4181H156.924V35.7095H153.722V33.037H154.505V35.3181V35.4181H154.605Z" fill="#26156E" stroke="#F8ED0D" stroke-width="0.2"/>
<path d="M158.687 35.4183H161.232V35.7097H157.804V32.9994H161.157V33.2908H158.687H158.587V33.3908V34.0333V34.1333H158.687H160.968V34.4246H158.687H158.587V34.5246V35.3183V35.4183H158.687Z" fill="#26156E" stroke="#F8ED0D" stroke-width="0.2"/>
<path d="M163.171 35.3282L163.171 35.3284L163.178 35.3319C163.35 35.4179 163.595 35.4558 163.903 35.4558C164.208 35.4558 164.492 35.4184 164.665 35.3319C164.753 35.2882 164.821 35.2322 164.869 35.1726C164.915 35.115 164.947 35.0462 164.947 34.9779C164.947 34.8741 164.897 34.7652 164.792 34.7062C164.755 34.6758 164.703 34.6544 164.652 34.6373C164.591 34.617 164.513 34.5975 164.419 34.5786C164.354 34.5578 164.255 34.5382 164.133 34.5158C164.103 34.5101 164.071 34.5042 164.037 34.498C163.928 34.4781 163.801 34.455 163.658 34.4263L163.658 34.4261L163.652 34.4253C163.388 34.3876 163.165 34.3503 162.985 34.3088C162.803 34.2668 162.674 34.2223 162.593 34.174L162.594 34.1738L162.587 34.1703C162.307 34.0305 162.188 33.8329 162.188 33.655C162.188 33.5458 162.239 33.4573 162.386 33.31C162.48 33.2154 162.685 33.1092 162.934 33.0737L162.943 33.0724L162.952 33.0696C163.163 32.999 163.491 32.9613 163.865 32.9613C164.423 32.9613 164.857 33.0359 165.139 33.1755C165.388 33.3321 165.529 33.4718 165.568 33.6348L164.769 33.6655C164.719 33.5273 164.63 33.4155 164.476 33.3388L164.47 33.3356L164.463 33.3334C164.337 33.2912 164.099 33.2527 163.827 33.2527C163.559 33.2527 163.317 33.2899 163.146 33.3734C163.089 33.3929 163.035 33.4174 162.996 33.4568C162.949 33.5037 162.933 33.5601 162.933 33.6172C162.933 33.6718 162.947 33.731 162.985 33.784C163.021 33.8343 163.074 33.8723 163.141 33.8968C163.179 33.9202 163.226 33.9379 163.276 33.9528C163.332 33.9695 163.398 33.9845 163.473 33.9989C163.573 34.0183 163.693 34.0378 163.83 34.06C163.896 34.0705 163.965 34.0817 164.037 34.0938L164.037 34.0938L164.039 34.094C164.528 34.1693 164.862 34.2439 165.08 34.3168C165.294 34.3879 165.433 34.4572 165.57 34.558C165.671 34.696 165.73 34.8235 165.73 34.9779C165.73 35.0932 165.673 35.2204 165.533 35.3607C165.403 35.4906 165.202 35.5607 164.935 35.6372C164.643 35.71 164.311 35.7472 163.903 35.7472C163.304 35.7472 162.871 35.6718 162.553 35.4952L162.553 35.4948L162.545 35.4912C162.279 35.3731 162.116 35.1809 162.032 34.9546L162.803 34.8952C162.828 34.9823 162.866 35.0559 162.917 35.1206C162.985 35.205 163.072 35.2689 163.171 35.3282Z" fill="#26156E" stroke="#F8ED0D" stroke-width="0.2"/>
<path d="M79.5434 34.7511L80.4882 34.9023C80.3371 35.2424 80.1103 35.4692 79.7701 35.6204C79.43 35.7716 79.0142 35.8472 78.4851 35.8472C77.8426 35.8472 77.3134 35.7338 76.8977 35.4692C76.5197 35.2046 76.293 34.8267 76.293 34.3731C76.293 33.8818 76.5197 33.5416 76.8977 33.2771C77.3134 33.0125 77.8804 32.8613 78.5607 32.8613C79.1276 32.8613 79.619 32.9747 79.9591 33.1637C80.1859 33.3149 80.3749 33.4661 80.4504 33.6928L79.5056 33.844C79.4678 33.6928 79.3166 33.5794 79.1654 33.5038C78.9764 33.3905 78.7497 33.3527 78.4851 33.3527C78.1449 33.3527 77.8426 33.4283 77.6158 33.5794C77.389 33.7306 77.2756 33.9952 77.2756 34.3353C77.2756 34.7133 77.389 34.9779 77.6158 35.129C77.8426 35.2802 78.1071 35.3558 78.4851 35.3558C78.7497 35.3558 78.9386 35.2802 79.1276 35.2046C79.3166 35.0912 79.4678 34.9401 79.5434 34.7511Z" stroke="#F8ED0D" stroke-width="0.2"/>
<path d="M81.3198 32.8994H82.3025V34.4868C82.3025 34.7136 82.3025 34.9026 82.3403 34.9782C82.3781 35.0915 82.4537 35.1671 82.6049 35.2427C82.756 35.3183 82.9828 35.3561 83.2474 35.3561C83.512 35.3561 83.7387 35.3183 83.8521 35.2427C84.0033 35.1671 84.0789 35.0915 84.1167 35.0159C84.1545 34.9026 84.1545 34.7514 84.1545 34.5246V32.8994H85.1371V34.449C85.1371 34.7892 85.0994 35.0159 85.0616 35.1671C84.986 35.3183 84.9104 35.4317 84.7592 35.5451C84.608 35.6207 84.419 35.6963 84.1923 35.7719C83.9655 35.8097 83.6631 35.8474 83.2852 35.8474C82.8316 35.8474 82.4915 35.8097 82.2269 35.7719C82.0001 35.6963 81.8112 35.6207 81.6978 35.5073C81.5466 35.3939 81.471 35.2805 81.3954 35.2049C81.3576 35.0159 81.3198 34.7892 81.3198 34.449V32.8994Z" stroke="#F8ED0D" stroke-width="0.2"/>
<path d="M89.2187 34.7511L90.1635 34.9023C90.0124 35.2424 89.7856 35.4692 89.4454 35.6204C89.1053 35.7716 88.6895 35.8472 88.1604 35.8472C87.5179 35.8472 87.0265 35.7338 86.6108 35.4692C86.195 35.2046 85.9683 34.8267 85.9683 34.3731C85.9683 33.8818 86.195 33.5416 86.6108 33.2771C87.0265 33.0125 87.5557 32.8613 88.236 32.8613C88.8029 32.8613 89.2942 32.9747 89.6722 33.1637C89.899 33.3149 90.0502 33.4661 90.1635 33.6928L89.1809 33.844C89.1431 33.6928 89.0297 33.5794 88.8407 33.5038C88.6517 33.3905 88.425 33.3527 88.1982 33.3527C87.8202 33.3527 87.5179 33.4283 87.3289 33.5794C87.1021 33.7306 86.9887 33.9952 86.9887 34.3353C86.9887 34.7133 87.1021 34.9779 87.3289 35.129C87.5179 35.2802 87.8202 35.3558 88.1604 35.3558C88.425 35.3558 88.6517 35.2802 88.8407 35.2046C89.0297 35.0912 89.1431 34.9401 89.2187 34.7511Z" stroke="#F8ED0D" stroke-width="0.2"/>
<path d="M90.9951 35.8097V32.8994H91.9778V34.0333H93.8676V32.8994H94.8502V35.8097H93.8676V34.5246H91.9778V35.8097H90.9951Z" stroke="#F8ED0D" stroke-width="0.2"/>
<path d="M95.7954 35.8097V32.8994H96.7781V35.8097H95.7954Z" stroke="#F8ED0D" stroke-width="0.2"/>
<path d="M97.7227 35.8095V32.937H98.7053V35.3181H101.124V35.8095H97.7227Z" stroke="#F8ED0D" stroke-width="0.2"/>
<path d="M101.842 35.8095V32.937H102.787V35.3181H105.206V35.8095H101.842Z" stroke="#F8ED0D" stroke-width="0.2"/>
<path d="M110.233 35.8097H109.175L108.759 35.1293H106.831L106.453 35.8097H105.395L107.285 32.8994H108.305L110.233 35.8097ZM108.456 34.638L107.776 33.5797L107.134 34.638H108.456Z" stroke="#F8ED0D" stroke-width="0.2"/>
<path d="M110.498 34.8645L111.442 34.7889C111.48 35.0157 111.594 35.129 111.783 35.2424C111.972 35.318 112.198 35.3558 112.501 35.3558C112.803 35.3558 113.03 35.318 113.181 35.2424C113.332 35.1668 113.408 35.0535 113.408 34.9779C113.408 34.9023 113.408 34.8267 113.332 34.7889C113.257 34.7511 113.143 34.7133 112.992 34.6755C112.879 34.6377 112.614 34.5999 112.198 34.5243C111.669 34.4487 111.329 34.3731 111.102 34.2598C110.838 34.1086 110.687 33.8818 110.687 33.655C110.687 33.5038 110.724 33.3905 110.876 33.2393C111.027 33.1259 111.216 33.0125 111.48 32.9747C111.745 32.8991 112.047 32.8613 112.425 32.8613C113.03 32.8613 113.483 32.9369 113.786 33.0881C114.088 33.2771 114.239 33.4661 114.239 33.7306L113.294 33.7684C113.257 33.6172 113.143 33.5038 113.03 33.4283C112.879 33.3905 112.69 33.3527 112.425 33.3527C112.123 33.3527 111.896 33.3905 111.745 33.4661C111.631 33.5038 111.594 33.5416 111.594 33.6172C111.594 33.6928 111.631 33.7684 111.745 33.8062C111.858 33.8818 112.161 33.9196 112.614 33.9952C113.105 34.0708 113.446 34.1464 113.672 34.222C113.899 34.2975 114.088 34.3731 114.201 34.4865C114.315 34.6377 114.39 34.7889 114.39 34.9779C114.39 35.129 114.315 35.2802 114.164 35.4314C114.013 35.5826 113.786 35.6582 113.521 35.7338C113.257 35.8094 112.879 35.8472 112.463 35.8472C111.858 35.8472 111.405 35.7716 111.064 35.5826C110.762 35.4314 110.573 35.1668 110.498 34.8645Z" stroke="#F8ED0D" stroke-width="0.2"/>
<path d="M117.036 35.8097V32.8994H118.019V35.8097H117.036Z" stroke="#F8ED0D" stroke-width="0.2"/>
<path d="M118.964 35.8097V32.8994H119.871L121.874 34.8648V32.8994H122.781V35.8097H121.799L119.833 33.9199V35.8097H118.964Z" stroke="#F8ED0D" stroke-width="0.2"/>
<path d="M123.802 32.8994H125.578C125.956 32.8994 126.258 32.9372 126.485 32.975C126.75 33.0128 126.977 33.1262 127.203 33.2396C127.392 33.353 127.543 33.5041 127.657 33.6931C127.77 33.8821 127.808 34.1089 127.808 34.3734C127.808 34.638 127.77 34.827 127.657 35.0159C127.543 35.2049 127.355 35.3939 127.166 35.5073C126.977 35.6207 126.75 35.6963 126.485 35.7341C126.258 35.7719 125.956 35.8097 125.616 35.8097H123.802V32.8994ZM124.747 33.3908V35.3183H125.503C125.767 35.3183 125.956 35.3183 126.069 35.2805C126.221 35.2427 126.372 35.2049 126.447 35.1671C126.561 35.0915 126.636 35.0159 126.712 34.9026C126.788 34.7514 126.825 34.5624 126.825 34.3734C126.825 34.1467 126.788 33.9577 126.712 33.8443C126.636 33.7309 126.561 33.6175 126.447 33.5797C126.334 33.5041 126.183 33.4663 125.994 33.4285C125.843 33.4285 125.578 33.3908 125.2 33.3908H124.747Z" stroke="#F8ED0D" stroke-width="0.2"/>
<path d="M128.639 32.8994H129.622V34.4868C129.622 34.7136 129.622 34.9026 129.66 34.9782C129.697 35.0915 129.773 35.1671 129.924 35.2427C130.075 35.3183 130.302 35.3561 130.567 35.3561C130.831 35.3561 131.058 35.3183 131.171 35.2427C131.323 35.1671 131.398 35.0915 131.436 35.0159C131.474 34.9026 131.474 34.7514 131.474 34.5246V32.8994H132.456V34.449C132.456 34.7892 132.419 35.0159 132.381 35.1671C132.305 35.3183 132.23 35.4317 132.079 35.5451C131.927 35.6207 131.738 35.6963 131.512 35.7719C131.285 35.8097 130.982 35.8474 130.605 35.8474C130.151 35.8474 129.811 35.8097 129.546 35.7719C129.319 35.6963 129.13 35.6207 129.017 35.5073C128.866 35.3939 128.79 35.2805 128.715 35.2049C128.677 35.0159 128.639 34.7892 128.639 34.449V32.8994Z" stroke="#F8ED0D" stroke-width="0.2"/>
<path d="M133.212 34.8645L134.157 34.7889C134.233 35.0157 134.346 35.129 134.497 35.2424C134.686 35.318 134.913 35.3558 135.216 35.3558C135.518 35.3558 135.745 35.318 135.934 35.2424C136.085 35.1668 136.16 35.0535 136.16 34.9779C136.16 34.9023 136.123 34.8267 136.047 34.7889C135.971 34.7511 135.858 34.7133 135.707 34.6755C135.594 34.6377 135.329 34.5999 134.951 34.5243C134.422 34.4487 134.044 34.3731 133.855 34.2598C133.553 34.1086 133.401 33.8818 133.401 33.655C133.401 33.5038 133.477 33.3905 133.628 33.2393C133.742 33.1259 133.968 33.0125 134.195 32.9747C134.46 32.8991 134.8 32.8613 135.14 32.8613C135.745 32.8613 136.198 32.9369 136.501 33.0881C136.803 33.2771 136.954 33.4661 136.992 33.7306L136.009 33.7684C135.971 33.6172 135.896 33.5038 135.745 33.4283C135.631 33.3905 135.405 33.3527 135.14 33.3527C134.875 33.3527 134.649 33.3905 134.497 33.4661C134.384 33.5038 134.346 33.5416 134.346 33.6172C134.346 33.6928 134.384 33.7684 134.46 33.8062C134.611 33.8818 134.875 33.9196 135.367 33.9952C135.82 34.0708 136.198 34.1464 136.425 34.222C136.614 34.2975 136.803 34.3731 136.954 34.4865C137.068 34.6377 137.143 34.7889 137.143 34.9779C137.143 35.129 137.068 35.2802 136.916 35.4314C136.727 35.5826 136.538 35.6582 136.236 35.7338C135.971 35.8094 135.631 35.8472 135.216 35.8472C134.611 35.8472 134.119 35.7716 133.817 35.5826C133.477 35.4314 133.288 35.1668 133.212 34.8645Z" stroke="#F8ED0D" stroke-width="0.2"/>
<path d="M139.033 35.8097V33.3908H137.597V32.8994H141.414V33.3908H140.016V35.8097H139.033Z" stroke="#F8ED0D" stroke-width="0.2"/>
<path d="M142.057 35.8097V32.8994H144.098C144.589 32.8994 144.967 32.9372 145.194 32.975C145.458 33.0506 145.647 33.1262 145.761 33.2774C145.912 33.3908 145.987 33.5419 145.987 33.7309C145.987 33.9577 145.874 34.1089 145.647 34.26C145.458 34.4112 145.156 34.4868 144.702 34.5246C144.929 34.6002 145.118 34.6758 145.231 34.7514C145.383 34.8648 145.572 35.0159 145.798 35.2427L146.365 35.8097H145.194L144.513 35.1671C144.249 34.9404 144.098 34.7892 143.984 34.7514C143.909 34.6758 143.795 34.638 143.72 34.638C143.606 34.6002 143.455 34.6002 143.228 34.6002H143.039V35.8097H142.057ZM143.039 34.1467H143.757C144.211 34.1467 144.513 34.1089 144.627 34.1089C144.74 34.0711 144.816 34.0333 144.891 33.9955C144.967 33.9199 144.967 33.8443 144.967 33.7687C144.967 33.6553 144.929 33.5797 144.853 33.5419C144.778 33.4663 144.627 33.4285 144.476 33.4285C144.4 33.3908 144.173 33.3908 143.795 33.3908H143.039V34.1467Z" stroke="#F8ED0D" stroke-width="0.2"/>
<path d="M146.856 35.8097V32.8994H147.839V35.8097H146.856Z" stroke="#F8ED0D" stroke-width="0.2"/>
<path d="M153.093 35.8097H152.034L151.619 35.1293H149.691L149.313 35.8097H148.255L150.145 32.8994H151.165L153.093 35.8097ZM151.316 34.638L150.636 33.5797L149.993 34.638H151.316Z" stroke="#F8ED0D" stroke-width="0.2"/>
<path d="M153.622 35.8095V32.937H154.605V35.3181H157.024V35.8095H153.622Z" stroke="#F8ED0D" stroke-width="0.2"/>
<path d="M157.704 35.8097V32.8994H161.257V33.3908H158.687V34.0333H161.068V34.5246H158.687V35.3183H161.332V35.8097H157.704Z" stroke="#F8ED0D" stroke-width="0.2"/>
<path d="M161.899 34.8645L162.882 34.7889C162.92 35.0157 163.033 35.129 163.222 35.2424C163.373 35.318 163.6 35.3558 163.903 35.3558C164.205 35.3558 164.469 35.318 164.621 35.2424C164.772 35.1668 164.847 35.0535 164.847 34.9779C164.847 34.9023 164.81 34.8267 164.734 34.7889C164.696 34.7511 164.583 34.7133 164.394 34.6755C164.281 34.6377 164.016 34.5999 163.638 34.5243C163.109 34.4487 162.731 34.3731 162.542 34.2598C162.24 34.1086 162.088 33.8818 162.088 33.655C162.088 33.5038 162.164 33.3905 162.315 33.2393C162.429 33.1259 162.655 33.0125 162.92 32.9747C163.147 32.8991 163.487 32.8613 163.865 32.8613C164.432 32.8613 164.885 32.9369 165.188 33.0881C165.49 33.2771 165.679 33.4661 165.679 33.7306L164.696 33.7684C164.658 33.6172 164.583 33.5038 164.432 33.4283C164.318 33.3905 164.092 33.3527 163.827 33.3527C163.562 33.3527 163.336 33.3905 163.184 33.4661C163.071 33.5038 163.033 33.5416 163.033 33.6172C163.033 33.6928 163.071 33.7684 163.184 33.8062C163.298 33.8818 163.6 33.9196 164.054 33.9952C164.545 34.0708 164.885 34.1464 165.112 34.222C165.339 34.2975 165.49 34.3731 165.641 34.4865C165.755 34.6377 165.83 34.7889 165.83 34.9779C165.83 35.129 165.755 35.2802 165.603 35.4314C165.452 35.5826 165.225 35.6582 164.961 35.7338C164.658 35.8094 164.318 35.8472 163.903 35.8472C163.298 35.8472 162.844 35.7716 162.504 35.5826C162.164 35.4314 161.975 35.1668 161.899 34.8645Z" stroke="#F8ED0D" stroke-width="0.2"/>
<path d="M251.738 31.7653H247.165V31.1606H251.209V28.9307H251.738V31.7653Z" fill="#FEFEFE"/>
<path d="M251.738 26.9652H247.694V28.4392H247.165V24.8486H247.694V26.3604H251.738V26.9652Z" fill="#FEFEFE"/>
<path d="M251.738 23.6394H247.165V22.0898C247.165 21.7118 247.203 21.4473 247.241 21.2583C247.278 20.9937 247.392 20.7669 247.543 20.578C247.77 20.3512 248.034 20.1622 248.337 20.0488C248.639 19.9355 249.017 19.8599 249.433 19.8599C249.773 19.8599 250.075 19.9355 250.34 20.011C250.604 20.0866 250.831 20.2 251.02 20.3134C251.171 20.4268 251.323 20.578 251.436 20.7292C251.511 20.8803 251.587 21.0693 251.663 21.2583C251.7 21.4851 251.738 21.7118 251.738 22.0142V23.6394ZM251.209 23.0347V22.0898C251.209 21.7874 251.171 21.5229 251.096 21.3717C251.058 21.1827 250.982 21.0693 250.869 20.9559C250.718 20.8047 250.529 20.6914 250.302 20.6158C250.037 20.5402 249.773 20.5024 249.395 20.5024C248.941 20.5024 248.563 20.578 248.299 20.7292C248.034 20.8803 247.883 21.0693 247.808 21.2961C247.732 21.4851 247.694 21.7118 247.694 22.0898V23.0347H251.209Z" fill="#FEFEFE"/>
<path d="M251.738 18.9906L247.165 17.2142V16.5717L251.738 14.7197V15.4L250.34 15.9292V17.8567L251.738 18.3481V18.9906ZM249.849 17.6678V16.1182L248.601 16.5717C248.223 16.7229 247.883 16.8363 247.619 16.9119C247.921 16.9874 248.223 17.063 248.526 17.1764L249.849 17.6678Z" fill="#FEFEFE"/>
<path d="M251.738 31.7653H247.165V31.1606H251.209V28.9307H251.738V31.7653Z" stroke="#FEFEFE" stroke-width="0.288"/>
<path d="M251.738 26.9652H247.694V28.4392H247.165V24.8486H247.694V26.3604H251.738V26.9652Z" stroke="#FEFEFE" stroke-width="0.288"/>
<path d="M251.738 23.6394H247.165V22.0898C247.165 21.7118 247.203 21.4473 247.241 21.2583C247.278 20.9937 247.392 20.7669 247.543 20.578C247.77 20.3512 248.034 20.1622 248.337 20.0488C248.639 19.9355 249.017 19.8599 249.433 19.8599C249.773 19.8599 250.075 19.9355 250.34 20.011C250.604 20.0866 250.831 20.2 251.02 20.3134C251.171 20.4268 251.323 20.578 251.436 20.7292C251.511 20.8803 251.587 21.0693 251.663 21.2583C251.7 21.4851 251.738 21.7118 251.738 22.0142V23.6394ZM251.209 23.0347V22.0898C251.209 21.7874 251.171 21.5229 251.096 21.3717C251.058 21.1827 250.982 21.0693 250.869 20.9559C250.718 20.8047 250.529 20.6914 250.302 20.6158C250.037 20.5402 249.773 20.5024 249.395 20.5024C248.941 20.5024 248.563 20.578 248.299 20.7292C248.034 20.8803 247.883 21.0693 247.808 21.2961C247.732 21.4851 247.694 21.7118 247.694 22.0898V23.0347H251.209Z" stroke="#FEFEFE" stroke-width="0.288"/>
<path d="M251.738 18.9906L247.165 17.2142V16.5717L251.738 14.7197V15.4L250.34 15.9292V17.8567L251.738 18.3481V18.9906ZM249.849 17.6678V16.1182L248.601 16.5717C248.223 16.7229 247.883 16.8363 247.619 16.9119C247.921 16.9874 248.223 17.063 248.526 17.1764L249.849 17.6678Z" stroke="#FEFEFE" stroke-width="0.288"/>
<path fill-rule="evenodd" clip-rule="evenodd" d="M129.093 12.9434H141.527C142.51 14.304 143.228 16.3827 143.266 17.8945H138.73C138.579 17.2898 138.39 16.8741 138.201 16.5717C137.899 16.1182 137.521 15.7402 137.105 15.5134C136.652 15.2489 136.16 15.1355 135.631 15.1355C134.384 15.1355 133.439 15.7024 132.797 16.7985C132.267 17.63 132.041 18.9528 132.041 20.7292C132.041 22.9213 132.343 24.4331 132.91 25.2268C133.515 26.0583 134.346 26.4741 135.404 26.4741C136.463 26.4741 137.256 26.1339 137.786 25.4914C138.315 24.8111 138.579 24.3575 138.844 23.0725L143.53 23.1103C143.682 24.9623 142.85 27.0032 142.17 28.0237C141.489 29.0441 140.658 29.8001 139.6 30.2914C138.617 30.8205 137.294 31.0851 135.745 31.0851C133.817 31.0851 132.267 30.7449 131.058 30.1402C129.849 29.4977 128.79 28.4016 127.921 26.8142C127.014 25.2268 126.598 23.2237 126.598 20.767C126.598 17.4788 127.354 14.9465 128.904 13.1701C128.979 13.0945 129.055 13.0189 129.093 12.9434Z" fill="#26156E" stroke="#F8ED0D"/>
<path d="M15.5179 13.2834C15.2534 12.8676 14.951 12.5652 14.5731 12.2629C13.4014 11.318 11.7006 10.8267 9.4707 10.8267C7.61873 10.8267 6.18251 11.0912 5.12424 11.6204C4.29275 12.0361 3.61243 12.603 3.12109 13.2834H15.5179Z" fill="#F8ED0D" stroke="#F8ED0D"/>
<path d="M34.4914 13.1322V11.0156H19.978V13.1322H34.4914Z" fill="#F8ED0D" stroke="#F8ED0D"/>
<path d="M52.6706 13.1322C52.1415 12.3385 51.4612 11.8093 50.6675 11.507C49.7604 11.1668 48.4754 11.0156 46.8124 11.0156H37.7793V13.1322H52.6706Z" fill="#F8ED0D" stroke="#F8ED0D"/>
<path d="M75.3856 3.22992L69.0737 3.26772L69.3383 1.0378L75.8013 1L75.3856 3.22992ZM63.1399 13.1323L62.7241 11.0157H55.9966L56.5635 13.1323H63.1399Z" fill="#F8ED0D" stroke="#F8ED0D"/>
<path d="M86.0065 13.1321V10.751H80.564V13.1321H86.0065Z" fill="#F8ED0D" stroke="#F8ED0D"/>
<path d="M103.468 13.1323C103.203 12.7543 102.901 12.452 102.599 12.2252C101.351 11.2047 99.6127 10.7134 97.3828 10.7134C94.6993 10.7134 92.5828 11.5071 91.0332 13.1323H103.468Z" fill="#F8ED0D" stroke="#F8ED0D"/>
<path d="M123.877 13.1322V11.0156H118.435V13.1322H122.063H123.877ZM112.463 13.1322V11.0156H107.021V13.1322H112.463Z" fill="#F8ED0D" stroke="#F8ED0D"/>
<path d="M151.506 13.1322V11.2803H146.063V13.1322H151.506ZM162.882 13.1322V11.2803H157.439V13.1322H162.882Z" fill="#F8ED0D" stroke="#F8ED0D"/>
<path d="M171.651 13.1322V11.0156H166.208V13.1322H171.651Z" fill="#F8ED0D" stroke="#F8ED0D"/>
<path d="M180.003 13.1322V11.0156H175.052V13.1322H180.003Z" fill="#F8ED0D" stroke="#F8ED0D"/>
<path d="M196.18 13.1322V11.0156H191.417V13.1322H196.18Z" fill="#F8ED0D" stroke="#F8ED0D"/>
<path d="M217.799 13.1322L217.08 11.0156H211.147L210.466 13.1322H217.799Z" fill="#F8ED0D" stroke="#F8ED0D"/>
<path d="M238.661 13.1325C238.397 12.7167 238.056 12.3766 237.716 12.112C236.545 11.1671 234.844 10.6758 232.576 10.6758C230.762 10.6758 229.326 10.9403 228.268 11.4695C227.398 11.8852 226.718 12.4522 226.227 13.1325H238.661Z" fill="#F8ED0D" stroke="#F8ED0D"/>
<path fill-rule="evenodd" clip-rule="evenodd" d="M129.093 12.9433H141.527C141.263 12.5654 140.998 12.263 140.696 12.0362C139.411 11.0158 137.672 10.5244 135.48 10.5244C132.759 10.5244 130.642 11.3181 129.093 12.9433Z" fill="#F8ED0D" stroke="#F8ED0D"/>
<path d="M3.00782 13.1323H15.4047C16.0472 14.0394 16.4251 15.2111 16.5763 16.6473L11.474 16.9874C11.3606 16.0804 11.0582 15.4378 10.6425 15.0221C10.1889 14.6063 9.5842 14.4174 8.8283 14.4174C8.18578 14.4174 7.73223 14.5685 7.39208 14.8709C7.08971 15.1355 6.93853 15.5134 6.93853 15.967C6.93853 16.2693 7.05192 16.5717 7.31648 16.7985C7.54326 17.063 8.14798 17.3276 9.13066 17.5544C11.5118 18.1213 13.1748 18.726 14.233 19.293C15.2535 19.8977 15.9716 20.6158 16.4629 21.5229C16.9165 22.3922 17.1433 23.3748 17.1433 24.4709C17.1433 25.7181 16.8409 26.8898 16.2362 27.9859C15.5936 29.0441 14.7244 29.8756 13.6283 30.4426C12.4944 31.0095 11.096 31.2741 9.39522 31.2741C6.4094 31.2741 4.33066 30.6315 3.1968 29.3087C2.02515 28.0237 1.38263 26.3607 1.23145 24.3575L6.3716 23.9796C6.48499 24.9244 6.71176 25.6426 7.05192 26.1339C7.61885 26.9654 8.41255 27.3433 9.47082 27.3433C10.2267 27.3433 10.8314 27.1544 11.2472 26.7386C11.6629 26.3229 11.8897 25.8315 11.8897 25.3024C11.8897 24.7733 11.7007 24.3197 11.285 23.904C10.907 23.526 9.96215 23.1481 8.52593 22.7701C6.14483 22.1654 4.44404 21.3717 3.42357 20.3512C2.4031 19.3685 1.91176 18.0835 1.91176 16.5339C1.91176 15.5134 2.13853 14.5307 2.66767 13.6237C2.78105 13.4347 2.89444 13.2835 3.00782 13.1323Z" fill="#26156E" stroke="#F8ED0D"/>
<path d="M15.4047 13.1323C15.1401 12.7543 14.8377 12.4142 14.4976 12.1118C13.3259 11.1669 11.5873 10.7134 9.35742 10.7134C7.54325 10.7134 6.10703 10.9779 5.04876 11.4693C4.17947 11.885 3.49915 12.452 3.00781 13.1323H15.4047Z" fill="#F8ED0D" stroke="#F8ED0D"/>
</svg>
