<svg width="252" height="39" viewBox="0 0 252 39" fill="none" xmlns="http://www.w3.org/2000/svg">
<path d="M19.978 13.1323H34.4914V15.2867H25.4205V18.4615H32.904V22.5056H25.4205V26.4363H34.756V30.9339H19.978V13.1323Z" fill="#26156E" stroke="#F8ED0D"/>
<path fill-rule="evenodd" clip-rule="evenodd" d="M52.6706 13.1323H37.7793V30.9339H43.2218V22.8457H43.6754C44.1667 22.8457 44.6202 22.9969 45.036 23.337C45.3006 23.5638 45.6407 24.0552 46.0187 24.8489L48.8911 30.9339H55.0517L52.4061 25.189C52.2549 24.8867 52.0281 24.4709 51.6502 23.9418C51.2722 23.4126 50.9698 23.0347 50.7809 22.8835C50.4785 22.6567 50.025 22.3922 49.3824 22.1654C50.1761 21.9386 50.8187 21.6741 51.2722 21.3717C51.9903 20.8804 52.5572 20.2378 52.973 19.4063C53.3887 18.6126 53.6155 17.6678 53.6155 16.5717C53.6155 15.2867 53.3509 14.1906 52.784 13.3213C52.7462 13.2457 52.7084 13.1701 52.6706 13.1323ZM46.2458 19.1042H43.2222V15.0601H46.3592C47.3419 15.0601 48.0222 15.2112 48.4001 15.5892C48.7403 15.9293 48.9293 16.4207 48.9293 17.0632C48.9293 17.5923 48.7403 18.1593 48.2867 18.4994C47.7576 18.953 46.8505 19.1042 46.2458 19.1042Z" fill="#26156E"/>
<path d="M37.7793 13.1323V12.6323H37.2793V13.1323H37.7793ZM52.6706 13.1323L53.0242 12.7788L52.8777 12.6323H52.6706V13.1323ZM37.7793 30.9339H37.2793V31.4339H37.7793V30.9339ZM43.2218 30.9339V31.4339H43.7218V30.9339H43.2218ZM43.2218 22.8457V22.3457H42.7218V22.8457H43.2218ZM45.036 23.337L45.3615 22.9573L45.3526 22.9501L45.036 23.337ZM46.0187 24.8489L46.4708 24.6354L46.4701 24.6339L46.0187 24.8489ZM48.8911 30.9339L48.439 31.1473L48.5742 31.4339H48.8911V30.9339ZM55.0517 30.9339V31.4339H55.8325L55.5059 30.7247L55.0517 30.9339ZM52.4061 25.189L52.8602 24.9799L52.8569 24.9726L52.8533 24.9654L52.4061 25.189ZM50.7809 22.8835L51.0932 22.4931L51.0871 22.4882L51.0809 22.4835L50.7809 22.8835ZM49.3824 22.1654L49.2451 21.6846L47.738 22.1152L49.216 22.6369L49.3824 22.1654ZM51.2722 21.3717L51.5496 21.7877L51.5546 21.7843L51.2722 21.3717ZM52.973 19.4063L52.53 19.1743L52.5258 19.1827L52.973 19.4063ZM52.784 13.3213L52.3368 13.5449L52.3496 13.5705L52.3652 13.5944L52.784 13.3213ZM43.2222 19.1042H42.7222V19.6042H43.2222V19.1042ZM43.2222 15.0601V14.5601H42.7222V15.0601H43.2222ZM48.2867 18.4994L47.9867 18.0994L47.9737 18.1092L47.9613 18.1198L48.2867 18.4994ZM37.7793 13.6323H52.6706V12.6323H37.7793V13.6323ZM38.2793 30.9339V13.1323H37.2793V30.9339H38.2793ZM43.2218 30.4339H37.7793V31.4339H43.2218V30.4339ZM42.7218 22.8457V30.9339H43.7218V22.8457H42.7218ZM43.6754 22.3457H43.2218V23.3457H43.6754V22.3457ZM45.3526 22.9501C44.8462 22.5357 44.2804 22.3457 43.6754 22.3457V23.3457C44.053 23.3457 44.3943 23.4581 44.7194 23.724L45.3526 22.9501ZM46.4701 24.6339C46.0858 23.827 45.7091 23.2555 45.3614 22.9574L44.7106 23.7167C44.892 23.8722 45.1956 24.2834 45.5672 25.0638L46.4701 24.6339ZM49.3433 30.7205L46.4708 24.6354L45.5665 25.0623L48.439 31.1473L49.3433 30.7205ZM55.0517 30.4339H48.8911V31.4339H55.0517V30.4339ZM51.9519 25.3982L54.5976 31.143L55.5059 30.7247L52.8602 24.9799L51.9519 25.3982ZM51.2433 24.2324C51.603 24.736 51.8168 25.1284 51.9589 25.4126L52.8533 24.9654C52.693 24.6449 52.4532 24.2058 52.057 23.6512L51.2433 24.2324ZM50.4685 23.2739C50.5192 23.3145 50.6143 23.4118 50.7572 23.587C50.8943 23.755 51.0575 23.9722 51.2433 24.2324L52.057 23.6512C51.8649 23.3822 51.6879 23.1459 51.5321 22.9548C51.3821 22.7709 51.2315 22.6037 51.0932 22.4931L50.4685 23.2739ZM49.216 22.6369C49.8129 22.8476 50.221 23.0886 50.4809 23.2835L51.0809 22.4835C50.736 22.2248 50.237 21.9368 49.5489 21.6939L49.216 22.6369ZM50.9949 20.9557C50.6028 21.2171 50.0161 21.4643 49.2451 21.6846L49.5198 22.6462C50.3362 22.4129 51.0345 22.1311 51.5496 21.7877L50.9949 20.9557ZM52.5258 19.1827C52.1476 19.9391 51.637 20.5162 50.9899 20.959L51.5546 21.7843C52.3436 21.2445 52.9669 20.5365 53.4202 19.6299L52.5258 19.1827ZM53.1155 16.5717C53.1155 17.5977 52.9036 18.4612 52.5301 19.1743L53.4159 19.6383C53.8738 18.7641 54.1155 17.7378 54.1155 16.5717H53.1155ZM52.3652 13.5944C52.8644 14.3598 53.1155 15.3524 53.1155 16.5717H54.1155C54.1155 15.2209 53.8375 14.0214 53.2028 13.0482L52.3652 13.5944ZM52.3171 13.4859C52.2988 13.4676 52.2895 13.454 52.2885 13.4527C52.2869 13.4504 52.2884 13.4523 52.2932 13.4607C52.2978 13.4688 52.3037 13.4797 52.3114 13.4945C52.3191 13.5095 52.3271 13.5255 52.3368 13.5449L53.2312 13.0977C53.2138 13.0629 53.1885 13.012 53.1614 12.9646C53.1378 12.9232 53.0921 12.8467 53.0242 12.7788L52.3171 13.4859ZM43.2222 19.6042H46.2458V18.6042H43.2222V19.6042ZM42.7222 15.0601V19.1042H43.7222V15.0601H42.7222ZM46.3592 14.5601H43.2222V15.5601H46.3592V14.5601ZM48.7537 15.2356C48.2203 14.7022 47.3493 14.5601 46.3592 14.5601V15.5601C47.3344 15.5601 47.8241 15.7202 48.0466 15.9427L48.7537 15.2356ZM49.4293 17.0632C49.4293 16.3202 49.2081 15.6901 48.7537 15.2356L48.0466 15.9427C48.2724 16.1686 48.4293 16.5212 48.4293 17.0632H49.4293ZM48.5867 18.8994C49.2051 18.4357 49.4293 17.6938 49.4293 17.0632H48.4293C48.4293 17.4909 48.2755 17.8829 47.9867 18.0994L48.5867 18.8994ZM46.2458 19.6042C46.5853 19.6042 47.0054 19.5622 47.4188 19.4562C47.8269 19.3516 48.2673 19.1746 48.6121 18.8791L47.9613 18.1198C47.7771 18.2778 47.4993 18.4032 47.1704 18.4875C46.8468 18.5705 46.511 18.6042 46.2458 18.6042V19.6042Z" fill="#F8ED0D"/>
<path d="M75.386 3.22998L70.586 30.8961H61.5151L56.564 13.1323H63.1403L66.2018 28.0237L69.0742 3.26778L75.386 3.22998Z" fill="#26156E" stroke="#F8ED0D"/>
<path d="M80.564 13.1323H86.0065V30.6693H80.564V13.1323Z" fill="#26156E" stroke="#F8ED0D"/>
<path d="M91.0333 13.1323H103.468C104.413 14.493 105.169 16.5717 105.169 18.0835H100.671C100.482 17.4788 100.293 17.063 100.142 16.7607C99.8018 16.3071 99.4616 15.9292 99.0081 15.7024C98.5545 15.4378 98.0632 15.3244 97.534 15.3244C96.2868 15.3244 95.3419 15.8914 94.6994 16.9874C94.2081 17.8189 93.9435 19.1418 93.9435 20.9182C93.9435 23.1103 94.2459 24.6221 94.8506 25.4158C95.4553 26.2473 96.249 26.663 97.3451 26.663C98.3655 26.663 99.1592 26.3229 99.6884 25.6426C100.218 25 100.52 24.5465 100.747 23.2615L105.433 23.2993C105.584 25.1512 104.791 27.1922 104.11 28.2126C103.392 29.1953 102.561 29.989 101.54 30.4804C100.52 31.0095 99.2348 31.2741 97.6474 31.2741C95.7199 31.2741 94.1703 30.9339 92.9608 30.3292C91.7514 29.6867 90.6931 28.5906 89.8238 27.0032C88.9545 25.4158 88.501 23.4126 88.501 20.9182C88.501 17.63 89.2947 15.1355 90.8443 13.3591C90.8821 13.2835 90.9577 13.2079 91.0333 13.1323Z" fill="#26156E" stroke="#F8ED0D"/>
<path d="M107.021 13.1323H112.463V23.1859C112.463 24.2441 112.728 25.1134 113.257 25.7181C113.786 26.3229 114.504 26.6252 115.449 26.6252C116.394 26.6252 117.112 26.3229 117.641 25.7181C118.17 25.1134 118.435 24.2819 118.435 23.1859V13.1323H122.063H123.877V22.8835C123.877 24.0552 123.688 25.189 123.386 26.2095C123.046 27.2678 122.554 28.1748 121.836 28.9685C121.156 29.7244 120.438 30.2914 119.682 30.5937C118.624 31.0473 117.376 31.2741 115.865 31.2741C115.033 31.2741 114.088 31.1985 113.068 31.0473C112.085 30.9339 111.216 30.6693 110.535 30.2536C109.855 29.8378 109.25 29.2709 108.683 28.5528C108.117 27.7969 107.739 27.041 107.55 26.2473C107.209 25 107.021 23.8662 107.021 22.8835V13.1323Z" fill="#26156E" stroke="#F8ED0D"/>
<path d="M146.063 13.1323H151.506V18.2347H157.439V13.1323H162.882V31.1985H157.439V23.1481H151.506V31.1985H146.063V13.1323Z" fill="#26156E" stroke="#F8ED0D"/>
<path d="M166.208 13.1323H171.651V30.9339H166.208V13.1323Z" fill="#26156E" stroke="#F8ED0D"/>
<path d="M175.052 13.1323H180.003V26.0205H187.789V30.9339H175.052V13.1323Z" fill="#26156E" stroke="#F8ED0D"/>
<path d="M191.417 13.1323H196.18V26.0205H203.701V30.9339H191.417V13.1323Z" fill="#26156E" stroke="#F8ED0D"/>
<path d="M210.466 13.1323H217.798L223.657 30.9339H217.987L217.118 27.6457H210.957L210.088 30.9339H204.532L210.466 13.1323ZM215.946 23.337L214.057 16.1937L212.129 23.337H215.946Z" fill="#26156E" stroke="#F8ED0D"/>
<path d="M226.227 13.1323H238.661C239.266 14.0016 239.644 15.1733 239.833 16.6095L234.693 16.9874C234.579 16.0804 234.277 15.4 233.861 14.9843C233.408 14.6063 232.803 14.3796 232.047 14.3796C231.442 14.3796 230.951 14.5307 230.611 14.8331C230.308 15.1355 230.157 15.5134 230.157 15.9292C230.157 16.2693 230.271 16.5339 230.535 16.7985C230.8 17.063 231.405 17.2898 232.349 17.5166C234.731 18.1213 236.431 18.6882 237.452 19.293C238.472 19.8977 239.228 20.6158 239.682 21.4851C240.135 22.3544 240.362 23.337 240.362 24.4331C240.362 25.7182 240.06 26.8898 239.455 27.9859C238.812 29.0441 237.943 29.8756 236.847 30.4048C235.713 30.9717 234.315 31.2363 232.614 31.2363C229.628 31.2363 227.549 30.5937 226.416 29.3087C225.244 27.9859 224.601 26.3607 224.45 24.3197L229.59 23.9796C229.704 24.9245 229.931 25.6426 230.308 26.1339C230.838 26.9276 231.631 27.3433 232.69 27.3433C233.445 27.3433 234.05 27.1166 234.466 26.7008C234.882 26.3229 235.108 25.8315 235.108 25.3024C235.108 24.7733 234.919 24.3197 234.504 23.904C234.126 23.4882 233.181 23.1103 231.745 22.7323C229.364 22.1654 227.663 21.3339 226.642 20.3512C225.622 19.3307 225.131 18.0457 225.131 16.4961C225.131 15.4756 225.395 14.5307 225.886 13.6237C226 13.4347 226.113 13.2835 226.227 13.1323Z" fill="#26156E" stroke="#F8ED0D"/>
<path d="M79.1606 36.6588L80.0615 36.9626C79.9174 37.6461 79.7012 38.1018 79.3768 38.4056C79.0525 38.7094 78.6561 38.8613 78.1516 38.8613C77.539 38.8613 77.0345 38.6335 76.6381 38.1018C76.2777 37.5702 76.0615 36.8107 76.0615 35.8993C76.0615 34.912 76.2777 34.2284 76.6381 33.6968C77.0345 33.1651 77.575 32.8613 78.2237 32.8613C78.7642 32.8613 79.2327 33.0892 79.557 33.4689C79.7732 33.7727 79.9534 34.0765 80.0255 34.5322L79.1246 34.836C79.0886 34.5322 78.9444 34.3044 78.8003 34.1525C78.6201 33.9246 78.4039 33.8487 78.1516 33.8487C77.8273 33.8487 77.539 34.0006 77.3228 34.3044C77.1066 34.6082 76.9985 35.1398 76.9985 35.8234C76.9985 36.5828 77.1066 37.1145 77.3228 37.4183C77.539 37.7221 77.7913 37.874 78.1516 37.874C78.4039 37.874 78.584 37.7221 78.7642 37.5702C78.9444 37.3423 79.0886 37.0385 79.1606 36.6588Z" fill="white"/>
<path d="M81.0615 32.8613H82.0912V36.0921C82.0912 36.5536 82.0912 36.9383 82.1308 37.0921C82.1704 37.3229 82.2496 37.4767 82.4081 37.6306C82.5665 37.7844 82.8041 37.8613 83.0813 37.8613C83.3586 37.8613 83.5962 37.7844 83.715 37.6306C83.8734 37.4767 83.9526 37.3229 83.9922 37.169C84.0318 36.9383 84.0318 36.6306 84.0318 36.169V32.8613H85.0615V36.0152C85.0615 36.7075 85.0219 37.169 84.9823 37.4767C84.9031 37.7844 84.8239 38.0152 84.6655 38.2459C84.5071 38.3998 84.309 38.5536 84.0714 38.7075C83.8338 38.7844 83.517 38.8613 83.1209 38.8613C82.6457 38.8613 82.2892 38.7844 82.012 38.7075C81.7744 38.5536 81.5764 38.3998 81.4576 38.169C81.2991 37.9383 81.2199 37.7075 81.1407 37.5536C81.1011 37.169 81.0615 36.7075 81.0615 36.0152V32.8613Z" fill="white"/>
<path d="M89.1606 36.6588L90.0615 36.9626C89.9174 37.6461 89.7012 38.1018 89.3768 38.4056C89.0525 38.7094 88.6561 38.8613 88.1516 38.8613C87.539 38.8613 87.0705 38.6335 86.6741 38.1018C86.2777 37.5702 86.0615 36.8107 86.0615 35.8993C86.0615 34.912 86.2777 34.2284 86.6741 33.6968C87.0705 33.1651 87.575 32.8613 88.2237 32.8613C88.7642 32.8613 89.2327 33.0892 89.5931 33.4689C89.8093 33.7727 89.9534 34.0765 90.0615 34.5322L89.1246 34.836C89.0886 34.5322 88.9804 34.3044 88.8003 34.1525C88.6201 33.9246 88.4039 33.8487 88.1876 33.8487C87.8273 33.8487 87.539 34.0006 87.3588 34.3044C87.1426 34.6082 87.0345 35.1398 87.0345 35.8234C87.0345 36.5828 87.1426 37.1145 87.3588 37.4183C87.539 37.7221 87.8273 37.874 88.1516 37.874C88.4039 37.874 88.6201 37.7221 88.8003 37.5702C88.9804 37.3423 89.0886 37.0385 89.1606 36.6588Z" fill="white"/>
<path d="M91.0615 38.8613V32.8613H92.0811V35.199H94.0419V32.8613H95.0615V38.8613H94.0419V36.212H92.0811V38.8613H91.0615Z" fill="white"/>
<path d="M96.0615 38.8613V32.8613H97.0615V38.8613H96.0615Z" fill="white"/>
<path d="M98.0615 38.8613V32.8613H98.9282V37.835H101.062V38.8613H98.0615Z" fill="white"/>
<path d="M102.062 38.8613V32.8613H102.904V37.835H105.062V38.8613H102.062Z" fill="white"/>
<path d="M110.062 38.8613H108.968L108.538 37.4587H106.546L106.155 38.8613H105.062L107.015 32.8613H108.069L110.062 38.8613ZM108.226 36.4457L107.522 34.2639L106.858 36.4457H108.226Z" fill="white"/>
<path d="M110.062 36.8866L111.032 36.7347C111.071 37.1904 111.188 37.4183 111.382 37.6461C111.576 37.798 111.809 37.874 112.12 37.874C112.43 37.874 112.663 37.798 112.819 37.6461C112.974 37.4942 113.052 37.2664 113.052 37.1145C113.052 36.9626 113.052 36.8107 112.974 36.7347C112.896 36.6588 112.78 36.5828 112.625 36.5069C112.508 36.4309 112.236 36.355 111.809 36.2031C111.265 36.0512 110.916 35.8993 110.683 35.6715C110.411 35.3677 110.256 34.912 110.256 34.4563C110.256 34.1525 110.295 33.9246 110.45 33.6208C110.605 33.393 110.799 33.1651 111.071 33.0892C111.343 32.9373 111.654 32.8613 112.042 32.8613C112.663 32.8613 113.129 33.0132 113.44 33.317C113.751 33.6968 113.906 34.0765 113.906 34.6082L112.935 34.6841C112.896 34.3803 112.78 34.1525 112.663 34.0006C112.508 33.9246 112.314 33.8487 112.042 33.8487C111.731 33.8487 111.498 33.9246 111.343 34.0765C111.227 34.1525 111.188 34.2284 111.188 34.3803C111.188 34.5322 111.227 34.6841 111.343 34.7601C111.46 34.912 111.77 34.9879 112.236 35.1398C112.741 35.2917 113.091 35.4436 113.324 35.5955C113.557 35.7474 113.751 35.8993 113.867 36.1272C113.984 36.4309 114.062 36.7347 114.062 37.1145C114.062 37.4183 113.984 37.7221 113.829 38.0259C113.673 38.3297 113.44 38.4816 113.168 38.6335C112.896 38.7854 112.508 38.8613 112.081 38.8613C111.46 38.8613 110.994 38.7094 110.644 38.3297C110.333 38.0259 110.139 37.4942 110.062 36.8866Z" fill="white"/>
<path d="M117.062 38.8613V32.8613H118.062V38.8613H117.062Z" fill="white"/>
<path d="M119.062 38.8613V32.8613H120.012L122.111 36.9133V32.8613H123.062V38.8613H122.032L119.972 34.9652V38.8613H119.062Z" fill="white"/>
<path d="M124.062 32.8613H125.835C126.212 32.8613 126.514 32.9393 126.741 33.0172C127.005 33.0951 127.231 33.3289 127.458 33.5626C127.646 33.7964 127.797 34.1081 127.911 34.4977C128.024 34.8873 128.062 35.3548 128.062 35.9003C128.062 36.4457 128.024 36.8354 127.911 37.225C127.797 37.6146 127.609 38.0042 127.42 38.238C127.231 38.4717 127.005 38.6276 126.741 38.7055C126.514 38.7834 126.212 38.8613 125.873 38.8613H124.062V32.8613ZM125.005 33.8743V37.8483H125.76C126.024 37.8483 126.212 37.8483 126.326 37.7704C126.477 37.6925 126.628 37.6146 126.703 37.5367C126.816 37.3808 126.892 37.225 126.967 36.9912C127.043 36.6795 127.08 36.2899 127.08 35.9003C127.08 35.4328 127.043 35.0431 126.967 34.8094C126.892 34.5756 126.816 34.3418 126.703 34.2639C126.59 34.1081 126.439 34.0302 126.25 33.9522C126.099 33.9522 125.835 33.8743 125.458 33.8743H125.005Z" fill="white"/>
<path d="M129.062 32.8613H129.834V36.0921C129.834 36.5536 129.834 36.9383 129.864 37.0921C129.893 37.3229 129.953 37.4767 130.071 37.6306C130.19 37.7844 130.368 37.8613 130.576 37.8613C130.784 37.8613 130.963 37.7844 131.052 37.6306C131.17 37.4767 131.23 37.3229 131.26 37.169C131.289 36.9383 131.289 36.6306 131.289 36.169V32.8613H132.062V36.0152C132.062 36.7075 132.032 37.169 132.002 37.4767C131.943 37.7844 131.883 38.0152 131.764 38.2459C131.646 38.3998 131.497 38.5536 131.319 38.7075C131.141 38.7844 130.903 38.8613 130.606 38.8613C130.25 38.8613 129.982 38.7844 129.774 38.7075C129.596 38.5536 129.448 38.3998 129.359 38.169C129.24 37.9383 129.18 37.7075 129.121 37.5536C129.091 37.169 129.062 36.7075 129.062 36.0152V32.8613Z" fill="white"/>
<path d="M133.062 36.8866L134.023 36.7347C134.1 37.1904 134.215 37.4183 134.369 37.6461C134.562 37.798 134.792 37.874 135.1 37.874C135.408 37.874 135.638 37.798 135.831 37.6461C135.985 37.4942 136.062 37.2664 136.062 37.1145C136.062 36.9626 136.023 36.8107 135.946 36.7347C135.869 36.6588 135.754 36.5828 135.6 36.5069C135.485 36.4309 135.215 36.355 134.831 36.2031C134.292 36.0512 133.908 35.8993 133.715 35.6715C133.408 35.3677 133.254 34.912 133.254 34.4563C133.254 34.1525 133.331 33.9246 133.485 33.6208C133.6 33.393 133.831 33.1651 134.062 33.0892C134.331 32.9373 134.677 32.8613 135.023 32.8613C135.638 32.8613 136.1 33.0132 136.408 33.317C136.715 33.6968 136.869 34.0765 136.908 34.6082L135.908 34.6841C135.869 34.3803 135.792 34.1525 135.638 34.0006C135.523 33.9246 135.292 33.8487 135.023 33.8487C134.754 33.8487 134.523 33.9246 134.369 34.0765C134.254 34.1525 134.215 34.2284 134.215 34.3803C134.215 34.5322 134.254 34.6841 134.331 34.7601C134.485 34.912 134.754 34.9879 135.254 35.1398C135.715 35.2917 136.1 35.4436 136.331 35.5955C136.523 35.7474 136.715 35.8993 136.869 36.1272C136.985 36.4309 137.062 36.7347 137.062 37.1145C137.062 37.4183 136.985 37.7221 136.831 38.0259C136.638 38.3297 136.446 38.4816 136.138 38.6335C135.869 38.7854 135.523 38.8613 135.1 38.8613C134.485 38.8613 133.985 38.7094 133.677 38.3297C133.331 38.0259 133.138 37.4942 133.062 36.8866Z" fill="white"/>
<path d="M139.19 38.8613V33.8743H138.062V32.8613H141.062V33.8743H139.963V38.8613H139.19Z" fill="white"/>
<path d="M142.062 38.8613V32.8613H143.956C144.412 32.8613 144.763 32.9393 144.974 33.0172C145.219 33.173 145.395 33.3289 145.5 33.6405C145.64 33.8743 145.711 34.186 145.711 34.5756C145.711 35.0431 145.605 35.3548 145.395 35.6665C145.219 35.9782 144.939 36.1341 144.518 36.212C144.728 36.3678 144.904 36.5237 145.009 36.6795C145.149 36.9133 145.325 37.225 145.535 37.6925L146.062 38.8613H144.974L144.342 37.5367C144.097 37.0691 143.956 36.7574 143.851 36.6795C143.781 36.5237 143.676 36.4457 143.605 36.4457C143.5 36.3678 143.36 36.3678 143.149 36.3678H142.974V38.8613H142.062ZM142.974 35.4328H143.64C144.062 35.4328 144.342 35.3548 144.447 35.3548C144.553 35.2769 144.623 35.199 144.693 35.1211C144.763 34.9652 144.763 34.8094 144.763 34.6535C144.763 34.4198 144.728 34.2639 144.658 34.186C144.588 34.0302 144.447 33.9522 144.307 33.9522C144.237 33.8743 144.026 33.8743 143.676 33.8743H142.974V35.4328Z" fill="white"/>
<path d="M147.062 38.8613V32.8613H148.062V38.8613H147.062Z" fill="white"/>
<path d="M153.062 38.8613H151.968L151.538 37.4587H149.546L149.155 38.8613H148.062L150.015 32.8613H151.069L153.062 38.8613ZM151.226 36.4457L150.522 34.2639L149.858 36.4457H151.226Z" fill="white"/>
<path d="M154.062 38.8613V32.8613H154.928V37.835H157.062V38.8613H154.062Z" fill="white"/>
<path d="M158.062 38.8613V32.8613H160.999V33.8743H158.874V35.199H160.843V36.212H158.874V37.8483H161.062V38.8613H158.062Z" fill="white"/>
<path d="M162.062 36.8866L163.062 36.7347C163.1 37.1904 163.215 37.4183 163.408 37.6461C163.562 37.798 163.792 37.874 164.1 37.874C164.408 37.874 164.677 37.798 164.831 37.6461C164.985 37.4942 165.062 37.2664 165.062 37.1145C165.062 36.9626 165.023 36.8107 164.946 36.7347C164.908 36.6588 164.792 36.5828 164.6 36.5069C164.485 36.4309 164.215 36.355 163.831 36.2031C163.292 36.0512 162.908 35.8993 162.715 35.6715C162.408 35.3677 162.254 34.912 162.254 34.4563C162.254 34.1525 162.331 33.9246 162.485 33.6208C162.6 33.393 162.831 33.1651 163.1 33.0892C163.331 32.9373 163.677 32.8613 164.062 32.8613C164.638 32.8613 165.1 33.0132 165.408 33.317C165.715 33.6968 165.908 34.0765 165.908 34.6082L164.908 34.6841C164.869 34.3803 164.792 34.1525 164.638 34.0006C164.523 33.9246 164.292 33.8487 164.023 33.8487C163.754 33.8487 163.523 33.9246 163.369 34.0765C163.254 34.1525 163.215 34.2284 163.215 34.3803C163.215 34.5322 163.254 34.6841 163.369 34.7601C163.485 34.912 163.792 34.9879 164.254 35.1398C164.754 35.2917 165.1 35.4436 165.331 35.5955C165.562 35.7474 165.715 35.8993 165.869 36.1272C165.985 36.4309 166.062 36.7347 166.062 37.1145C166.062 37.4183 165.985 37.7221 165.831 38.0259C165.677 38.3297 165.446 38.4816 165.177 38.6335C164.869 38.7854 164.523 38.8613 164.1 38.8613C163.485 38.8613 163.023 38.7094 162.677 38.3297C162.331 38.0259 162.138 37.4942 162.062 36.8866Z" fill="white"/>
<path d="M79.1606 36.6588L80.0615 36.9626C79.9174 37.6461 79.7012 38.1018 79.3768 38.4056C79.0525 38.7094 78.6561 38.8613 78.1516 38.8613C77.539 38.8613 77.0345 38.6335 76.6381 38.1018C76.2777 37.5702 76.0615 36.8107 76.0615 35.8993C76.0615 34.912 76.2777 34.2284 76.6381 33.6968C77.0345 33.1651 77.575 32.8613 78.2237 32.8613C78.7642 32.8613 79.2327 33.0892 79.557 33.4689C79.7732 33.7727 79.9534 34.0765 80.0255 34.5322L79.1246 34.836C79.0886 34.5322 78.9444 34.3044 78.8003 34.1525C78.6201 33.9246 78.4039 33.8487 78.1516 33.8487C77.8273 33.8487 77.539 34.0006 77.3228 34.3044C77.1066 34.6082 76.9985 35.1398 76.9985 35.8234C76.9985 36.5828 77.1066 37.1145 77.3228 37.4183C77.539 37.7221 77.7913 37.874 78.1516 37.874C78.4039 37.874 78.584 37.7221 78.7642 37.5702C78.9444 37.3423 79.0886 37.0385 79.1606 36.6588Z" fill="white"/>
<path d="M81.0615 32.8613H82.0912V36.0921C82.0912 36.5536 82.0912 36.9383 82.1308 37.0921C82.1704 37.3229 82.2496 37.4767 82.4081 37.6306C82.5665 37.7844 82.8041 37.8613 83.0813 37.8613C83.3586 37.8613 83.5962 37.7844 83.715 37.6306C83.8734 37.4767 83.9526 37.3229 83.9922 37.169C84.0318 36.9383 84.0318 36.6306 84.0318 36.169V32.8613H85.0615V36.0152C85.0615 36.7075 85.0219 37.169 84.9823 37.4767C84.9031 37.7844 84.8239 38.0152 84.6655 38.2459C84.5071 38.3998 84.309 38.5536 84.0714 38.7075C83.8338 38.7844 83.517 38.8613 83.1209 38.8613C82.6457 38.8613 82.2892 38.7844 82.012 38.7075C81.7744 38.5536 81.5764 38.3998 81.4576 38.169C81.2991 37.9383 81.2199 37.7075 81.1407 37.5536C81.1011 37.169 81.0615 36.7075 81.0615 36.0152V32.8613Z" fill="white"/>
<path d="M89.1606 36.6588L90.0615 36.9626C89.9174 37.6461 89.7012 38.1018 89.3768 38.4056C89.0525 38.7094 88.6561 38.8613 88.1516 38.8613C87.539 38.8613 87.0705 38.6335 86.6741 38.1018C86.2777 37.5702 86.0615 36.8107 86.0615 35.8993C86.0615 34.912 86.2777 34.2284 86.6741 33.6968C87.0705 33.1651 87.575 32.8613 88.2237 32.8613C88.7642 32.8613 89.2327 33.0892 89.5931 33.4689C89.8093 33.7727 89.9534 34.0765 90.0615 34.5322L89.1246 34.836C89.0886 34.5322 88.9804 34.3044 88.8003 34.1525C88.6201 33.9246 88.4039 33.8487 88.1876 33.8487C87.8273 33.8487 87.539 34.0006 87.3588 34.3044C87.1426 34.6082 87.0345 35.1398 87.0345 35.8234C87.0345 36.5828 87.1426 37.1145 87.3588 37.4183C87.539 37.7221 87.8273 37.874 88.1516 37.874C88.4039 37.874 88.6201 37.7221 88.8003 37.5702C88.9804 37.3423 89.0886 37.0385 89.1606 36.6588Z" fill="white"/>
<path d="M91.0615 38.8613V32.8613H92.0811V35.199H94.0419V32.8613H95.0615V38.8613H94.0419V36.212H92.0811V38.8613H91.0615Z" fill="white"/>
<path d="M96.0615 38.8613V32.8613H97.0615V38.8613H96.0615Z" fill="white"/>
<path d="M98.0615 38.8613V32.8613H98.9282V37.835H101.062V38.8613H98.0615Z" fill="white"/>
<path d="M102.062 38.8613V32.8613H102.904V37.835H105.062V38.8613H102.062Z" fill="white"/>
<path d="M110.062 38.8613H108.968L108.538 37.4587H106.546L106.155 38.8613H105.062L107.015 32.8613H108.069L110.062 38.8613ZM108.226 36.4457L107.522 34.2639L106.858 36.4457H108.226Z" fill="white"/>
<path d="M110.062 36.8866L111.032 36.7347C111.071 37.1904 111.188 37.4183 111.382 37.6461C111.576 37.798 111.809 37.874 112.12 37.874C112.43 37.874 112.663 37.798 112.819 37.6461C112.974 37.4942 113.052 37.2664 113.052 37.1145C113.052 36.9626 113.052 36.8107 112.974 36.7347C112.896 36.6588 112.78 36.5828 112.625 36.5069C112.508 36.4309 112.236 36.355 111.809 36.2031C111.265 36.0512 110.916 35.8993 110.683 35.6715C110.411 35.3677 110.256 34.912 110.256 34.4563C110.256 34.1525 110.295 33.9246 110.45 33.6208C110.605 33.393 110.799 33.1651 111.071 33.0892C111.343 32.9373 111.654 32.8613 112.042 32.8613C112.663 32.8613 113.129 33.0132 113.44 33.317C113.751 33.6968 113.906 34.0765 113.906 34.6082L112.935 34.6841C112.896 34.3803 112.78 34.1525 112.663 34.0006C112.508 33.9246 112.314 33.8487 112.042 33.8487C111.731 33.8487 111.498 33.9246 111.343 34.0765C111.227 34.1525 111.188 34.2284 111.188 34.3803C111.188 34.5322 111.227 34.6841 111.343 34.7601C111.46 34.912 111.77 34.9879 112.236 35.1398C112.741 35.2917 113.091 35.4436 113.324 35.5955C113.557 35.7474 113.751 35.8993 113.867 36.1272C113.984 36.4309 114.062 36.7347 114.062 37.1145C114.062 37.4183 113.984 37.7221 113.829 38.0259C113.673 38.3297 113.44 38.4816 113.168 38.6335C112.896 38.7854 112.508 38.8613 112.081 38.8613C111.46 38.8613 110.994 38.7094 110.644 38.3297C110.333 38.0259 110.139 37.4942 110.062 36.8866Z" fill="white"/>
<path d="M117.062 38.8613V32.8613H118.062V38.8613H117.062Z" fill="white"/>
<path d="M119.062 38.8613V32.8613H120.012L122.111 36.9133V32.8613H123.062V38.8613H122.032L119.972 34.9652V38.8613H119.062Z" fill="white"/>
<path d="M124.062 32.8613H125.835C126.212 32.8613 126.514 32.9393 126.741 33.0172C127.005 33.0951 127.231 33.3289 127.458 33.5626C127.646 33.7964 127.797 34.1081 127.911 34.4977C128.024 34.8873 128.062 35.3548 128.062 35.9003C128.062 36.4457 128.024 36.8354 127.911 37.225C127.797 37.6146 127.609 38.0042 127.42 38.238C127.231 38.4717 127.005 38.6276 126.741 38.7055C126.514 38.7834 126.212 38.8613 125.873 38.8613H124.062V32.8613ZM125.005 33.8743V37.8483H125.76C126.024 37.8483 126.212 37.8483 126.326 37.7704C126.477 37.6925 126.628 37.6146 126.703 37.5367C126.816 37.3808 126.892 37.225 126.967 36.9912C127.043 36.6795 127.08 36.2899 127.08 35.9003C127.08 35.4328 127.043 35.0431 126.967 34.8094C126.892 34.5756 126.816 34.3418 126.703 34.2639C126.59 34.1081 126.439 34.0302 126.25 33.9522C126.099 33.9522 125.835 33.8743 125.458 33.8743H125.005Z" fill="white"/>
<path d="M129.062 32.8613H129.834V36.0921C129.834 36.5536 129.834 36.9383 129.864 37.0921C129.893 37.3229 129.953 37.4767 130.071 37.6306C130.19 37.7844 130.368 37.8613 130.576 37.8613C130.784 37.8613 130.963 37.7844 131.052 37.6306C131.17 37.4767 131.23 37.3229 131.26 37.169C131.289 36.9383 131.289 36.6306 131.289 36.169V32.8613H132.062V36.0152C132.062 36.7075 132.032 37.169 132.002 37.4767C131.943 37.7844 131.883 38.0152 131.764 38.2459C131.646 38.3998 131.497 38.5536 131.319 38.7075C131.141 38.7844 130.903 38.8613 130.606 38.8613C130.25 38.8613 129.982 38.7844 129.774 38.7075C129.596 38.5536 129.448 38.3998 129.359 38.169C129.24 37.9383 129.18 37.7075 129.121 37.5536C129.091 37.169 129.062 36.7075 129.062 36.0152V32.8613Z" fill="white"/>
<path d="M133.062 36.8866L134.023 36.7347C134.1 37.1904 134.215 37.4183 134.369 37.6461C134.562 37.798 134.792 37.874 135.1 37.874C135.408 37.874 135.638 37.798 135.831 37.6461C135.985 37.4942 136.062 37.2664 136.062 37.1145C136.062 36.9626 136.023 36.8107 135.946 36.7347C135.869 36.6588 135.754 36.5828 135.6 36.5069C135.485 36.4309 135.215 36.355 134.831 36.2031C134.292 36.0512 133.908 35.8993 133.715 35.6715C133.408 35.3677 133.254 34.912 133.254 34.4563C133.254 34.1525 133.331 33.9246 133.485 33.6208C133.6 33.393 133.831 33.1651 134.062 33.0892C134.331 32.9373 134.677 32.8613 135.023 32.8613C135.638 32.8613 136.1 33.0132 136.408 33.317C136.715 33.6968 136.869 34.0765 136.908 34.6082L135.908 34.6841C135.869 34.3803 135.792 34.1525 135.638 34.0006C135.523 33.9246 135.292 33.8487 135.023 33.8487C134.754 33.8487 134.523 33.9246 134.369 34.0765C134.254 34.1525 134.215 34.2284 134.215 34.3803C134.215 34.5322 134.254 34.6841 134.331 34.7601C134.485 34.912 134.754 34.9879 135.254 35.1398C135.715 35.2917 136.1 35.4436 136.331 35.5955C136.523 35.7474 136.715 35.8993 136.869 36.1272C136.985 36.4309 137.062 36.7347 137.062 37.1145C137.062 37.4183 136.985 37.7221 136.831 38.0259C136.638 38.3297 136.446 38.4816 136.138 38.6335C135.869 38.7854 135.523 38.8613 135.1 38.8613C134.485 38.8613 133.985 38.7094 133.677 38.3297C133.331 38.0259 133.138 37.4942 133.062 36.8866Z" fill="white"/>
<path d="M139.19 38.8613V33.8743H138.062V32.8613H141.062V33.8743H139.963V38.8613H139.19Z" fill="white"/>
<path d="M142.062 38.8613V32.8613H143.956C144.412 32.8613 144.763 32.9393 144.974 33.0172C145.219 33.173 145.395 33.3289 145.5 33.6405C145.64 33.8743 145.711 34.186 145.711 34.5756C145.711 35.0431 145.605 35.3548 145.395 35.6665C145.219 35.9782 144.939 36.1341 144.518 36.212C144.728 36.3678 144.904 36.5237 145.009 36.6795C145.149 36.9133 145.325 37.225 145.535 37.6925L146.062 38.8613H144.974L144.342 37.5367C144.097 37.0691 143.956 36.7574 143.851 36.6795C143.781 36.5237 143.676 36.4457 143.605 36.4457C143.5 36.3678 143.36 36.3678 143.149 36.3678H142.974V38.8613H142.062ZM142.974 35.4328H143.64C144.062 35.4328 144.342 35.3548 144.447 35.3548C144.553 35.2769 144.623 35.199 144.693 35.1211C144.763 34.9652 144.763 34.8094 144.763 34.6535C144.763 34.4198 144.728 34.2639 144.658 34.186C144.588 34.0302 144.447 33.9522 144.307 33.9522C144.237 33.8743 144.026 33.8743 143.676 33.8743H142.974V35.4328Z" fill="white"/>
<path d="M147.062 38.8613V32.8613H148.062V38.8613H147.062Z" fill="white"/>
<path d="M153.062 38.8613H151.968L151.538 37.4587H149.546L149.155 38.8613H148.062L150.015 32.8613H151.069L153.062 38.8613ZM151.226 36.4457L150.522 34.2639L149.858 36.4457H151.226Z" fill="white"/>
<path d="M154.062 38.8613V32.8613H154.928V37.835H157.062V38.8613H154.062Z" fill="white"/>
<path d="M158.062 38.8613V32.8613H160.999V33.8743H158.874V35.199H160.843V36.212H158.874V37.8483H161.062V38.8613H158.062Z" fill="white"/>
<path d="M162.062 36.8866L163.062 36.7347C163.1 37.1904 163.215 37.4183 163.408 37.6461C163.562 37.798 163.792 37.874 164.1 37.874C164.408 37.874 164.677 37.798 164.831 37.6461C164.985 37.4942 165.062 37.2664 165.062 37.1145C165.062 36.9626 165.023 36.8107 164.946 36.7347C164.908 36.6588 164.792 36.5828 164.6 36.5069C164.485 36.4309 164.215 36.355 163.831 36.2031C163.292 36.0512 162.908 35.8993 162.715 35.6715C162.408 35.3677 162.254 34.912 162.254 34.4563C162.254 34.1525 162.331 33.9246 162.485 33.6208C162.6 33.393 162.831 33.1651 163.1 33.0892C163.331 32.9373 163.677 32.8613 164.062 32.8613C164.638 32.8613 165.1 33.0132 165.408 33.317C165.715 33.6968 165.908 34.0765 165.908 34.6082L164.908 34.6841C164.869 34.3803 164.792 34.1525 164.638 34.0006C164.523 33.9246 164.292 33.8487 164.023 33.8487C163.754 33.8487 163.523 33.9246 163.369 34.0765C163.254 34.1525 163.215 34.2284 163.215 34.3803C163.215 34.5322 163.254 34.6841 163.369 34.7601C163.485 34.912 163.792 34.9879 164.254 35.1398C164.754 35.2917 165.1 35.4436 165.331 35.5955C165.562 35.7474 165.715 35.8993 165.869 36.1272C165.985 36.4309 166.062 36.7347 166.062 37.1145C166.062 37.4183 165.985 37.7221 165.831 38.0259C165.677 38.3297 165.446 38.4816 165.177 38.6335C164.869 38.7854 164.523 38.8613 164.1 38.8613C163.485 38.8613 163.023 38.7094 162.677 38.3297C162.331 38.0259 162.138 37.4942 162.062 36.8866Z" fill="white"/>
<path d="M251.738 31.7653H247.165V31.1606H251.209V28.9307H251.738V31.7653Z" fill="#FEFEFE"/>
<path d="M251.738 26.9652H247.694V28.4392H247.165V24.8486H247.694V26.3604H251.738V26.9652Z" fill="#FEFEFE"/>
<path d="M251.738 23.6394H247.165V22.0898C247.165 21.7118 247.203 21.4473 247.241 21.2583C247.278 20.9937 247.392 20.7669 247.543 20.578C247.77 20.3512 248.034 20.1622 248.337 20.0488C248.639 19.9355 249.017 19.8599 249.433 19.8599C249.773 19.8599 250.075 19.9355 250.34 20.011C250.604 20.0866 250.831 20.2 251.02 20.3134C251.171 20.4268 251.323 20.578 251.436 20.7292C251.511 20.8803 251.587 21.0693 251.663 21.2583C251.7 21.4851 251.738 21.7118 251.738 22.0142V23.6394ZM251.209 23.0347V22.0898C251.209 21.7874 251.171 21.5229 251.096 21.3717C251.058 21.1827 250.982 21.0693 250.869 20.9559C250.718 20.8047 250.529 20.6914 250.302 20.6158C250.037 20.5402 249.773 20.5024 249.395 20.5024C248.941 20.5024 248.563 20.578 248.299 20.7292C248.034 20.8803 247.883 21.0693 247.808 21.2961C247.732 21.4851 247.694 21.7118 247.694 22.0898V23.0347H251.209Z" fill="#FEFEFE"/>
<path d="M251.738 18.9906L247.165 17.2142V16.5717L251.738 14.7197V15.4L250.34 15.9292V17.8567L251.738 18.3481V18.9906ZM249.849 17.6678V16.1182L248.601 16.5717C248.223 16.7229 247.883 16.8363 247.619 16.9119C247.921 16.9874 248.223 17.063 248.526 17.1764L249.849 17.6678Z" fill="#FEFEFE"/>
<path d="M251.738 31.7653H247.165V31.1606H251.209V28.9307H251.738V31.7653Z" stroke="#FEFEFE" stroke-width="0.288"/>
<path d="M251.738 26.9652H247.694V28.4392H247.165V24.8486H247.694V26.3604H251.738V26.9652Z" stroke="#FEFEFE" stroke-width="0.288"/>
<path d="M251.738 23.6394H247.165V22.0898C247.165 21.7118 247.203 21.4473 247.241 21.2583C247.278 20.9937 247.392 20.7669 247.543 20.578C247.77 20.3512 248.034 20.1622 248.337 20.0488C248.639 19.9355 249.017 19.8599 249.433 19.8599C249.773 19.8599 250.075 19.9355 250.34 20.011C250.604 20.0866 250.831 20.2 251.02 20.3134C251.171 20.4268 251.323 20.578 251.436 20.7292C251.511 20.8803 251.587 21.0693 251.663 21.2583C251.7 21.4851 251.738 21.7118 251.738 22.0142V23.6394ZM251.209 23.0347V22.0898C251.209 21.7874 251.171 21.5229 251.096 21.3717C251.058 21.1827 250.982 21.0693 250.869 20.9559C250.718 20.8047 250.529 20.6914 250.302 20.6158C250.037 20.5402 249.773 20.5024 249.395 20.5024C248.941 20.5024 248.563 20.578 248.299 20.7292C248.034 20.8803 247.883 21.0693 247.808 21.2961C247.732 21.4851 247.694 21.7118 247.694 22.0898V23.0347H251.209Z" stroke="#FEFEFE" stroke-width="0.288"/>
<path d="M251.738 18.9906L247.165 17.2142V16.5717L251.738 14.7197V15.4L250.34 15.9292V17.8567L251.738 18.3481V18.9906ZM249.849 17.6678V16.1182L248.601 16.5717C248.223 16.7229 247.883 16.8363 247.619 16.9119C247.921 16.9874 248.223 17.063 248.526 17.1764L249.849 17.6678Z" stroke="#FEFEFE" stroke-width="0.288"/>
<path fill-rule="evenodd" clip-rule="evenodd" d="M129.093 12.9434H141.527C142.51 14.304 143.228 16.3827 143.266 17.8945H138.73C138.579 17.2898 138.39 16.8741 138.201 16.5717C137.899 16.1182 137.521 15.7402 137.105 15.5134C136.652 15.2489 136.16 15.1355 135.631 15.1355C134.384 15.1355 133.439 15.7024 132.797 16.7985C132.267 17.63 132.041 18.9528 132.041 20.7292C132.041 22.9213 132.343 24.4331 132.91 25.2268C133.515 26.0583 134.346 26.4741 135.404 26.4741C136.463 26.4741 137.256 26.1339 137.786 25.4914C138.315 24.8111 138.579 24.3575 138.844 23.0725L143.53 23.1103C143.682 24.9623 142.85 27.0032 142.17 28.0237C141.489 29.0441 140.658 29.8001 139.6 30.2914C138.617 30.8205 137.294 31.0851 135.745 31.0851C133.817 31.0851 132.267 30.7449 131.058 30.1402C129.849 29.4977 128.79 28.4016 127.921 26.8142C127.014 25.2268 126.598 23.2237 126.598 20.767C126.598 17.4788 127.354 14.9465 128.904 13.1701C128.979 13.0945 129.055 13.0189 129.093 12.9434Z" fill="#26156E" stroke="#F8ED0D"/>
<path d="M15.5179 13.2834C15.2534 12.8676 14.951 12.5652 14.5731 12.2629C13.4014 11.318 11.7006 10.8267 9.4707 10.8267C7.61873 10.8267 6.18251 11.0912 5.12424 11.6204C4.29275 12.0361 3.61243 12.603 3.12109 13.2834H15.5179Z" fill="#F8ED0D" stroke="#F8ED0D"/>
<path d="M34.4914 13.1322V11.0156H19.978V13.1322H34.4914Z" fill="#F8ED0D" stroke="#F8ED0D"/>
<path d="M52.6706 13.1322C52.1415 12.3385 51.4612 11.8093 50.6675 11.507C49.7604 11.1668 48.4754 11.0156 46.8124 11.0156H37.7793V13.1322H52.6706Z" fill="#F8ED0D" stroke="#F8ED0D"/>
<path d="M75.3856 3.22992L69.0737 3.26772L69.3383 1.0378L75.8013 1L75.3856 3.22992ZM63.1399 13.1323L62.7241 11.0157H55.9966L56.5635 13.1323H63.1399Z" fill="#F8ED0D" stroke="#F8ED0D"/>
<path d="M86.0065 13.1321V10.751H80.564V13.1321H86.0065Z" fill="#F8ED0D" stroke="#F8ED0D"/>
<path d="M103.468 13.1323C103.203 12.7543 102.901 12.452 102.599 12.2252C101.351 11.2047 99.6127 10.7134 97.3828 10.7134C94.6993 10.7134 92.5828 11.5071 91.0332 13.1323H103.468Z" fill="#F8ED0D" stroke="#F8ED0D"/>
<path d="M123.877 13.1322V11.0156H118.435V13.1322H122.063H123.877ZM112.463 13.1322V11.0156H107.021V13.1322H112.463Z" fill="#F8ED0D" stroke="#F8ED0D"/>
<path d="M151.506 13.1322V11.2803H146.063V13.1322H151.506ZM162.882 13.1322V11.2803H157.439V13.1322H162.882Z" fill="#F8ED0D" stroke="#F8ED0D"/>
<path d="M171.651 13.1322V11.0156H166.208V13.1322H171.651Z" fill="#F8ED0D" stroke="#F8ED0D"/>
<path d="M180.003 13.1322V11.0156H175.052V13.1322H180.003Z" fill="#F8ED0D" stroke="#F8ED0D"/>
<path d="M196.18 13.1322V11.0156H191.417V13.1322H196.18Z" fill="#F8ED0D" stroke="#F8ED0D"/>
<path d="M217.799 13.1322L217.08 11.0156H211.147L210.466 13.1322H217.799Z" fill="#F8ED0D" stroke="#F8ED0D"/>
<path d="M238.661 13.1325C238.397 12.7167 238.056 12.3766 237.716 12.112C236.545 11.1671 234.844 10.6758 232.576 10.6758C230.762 10.6758 229.326 10.9403 228.268 11.4695C227.398 11.8852 226.718 12.4522 226.227 13.1325H238.661Z" fill="#F8ED0D" stroke="#F8ED0D"/>
<path fill-rule="evenodd" clip-rule="evenodd" d="M129.093 12.9433H141.527C141.263 12.5654 140.998 12.263 140.696 12.0362C139.411 11.0158 137.672 10.5244 135.48 10.5244C132.759 10.5244 130.642 11.3181 129.093 12.9433Z" fill="#F8ED0D" stroke="#F8ED0D"/>
<path d="M3.00782 13.1323H15.4047C16.0472 14.0394 16.4251 15.2111 16.5763 16.6473L11.474 16.9874C11.3606 16.0804 11.0582 15.4378 10.6425 15.0221C10.1889 14.6063 9.5842 14.4174 8.8283 14.4174C8.18578 14.4174 7.73223 14.5685 7.39208 14.8709C7.08971 15.1355 6.93853 15.5134 6.93853 15.967C6.93853 16.2693 7.05192 16.5717 7.31648 16.7985C7.54326 17.063 8.14798 17.3276 9.13066 17.5544C11.5118 18.1213 13.1748 18.726 14.233 19.293C15.2535 19.8977 15.9716 20.6158 16.4629 21.5229C16.9165 22.3922 17.1433 23.3748 17.1433 24.4709C17.1433 25.7181 16.8409 26.8898 16.2362 27.9859C15.5936 29.0441 14.7244 29.8756 13.6283 30.4426C12.4944 31.0095 11.096 31.2741 9.39522 31.2741C6.4094 31.2741 4.33066 30.6315 3.1968 29.3087C2.02515 28.0237 1.38263 26.3607 1.23145 24.3575L6.3716 23.9796C6.48499 24.9244 6.71176 25.6426 7.05192 26.1339C7.61885 26.9654 8.41255 27.3433 9.47082 27.3433C10.2267 27.3433 10.8314 27.1544 11.2472 26.7386C11.6629 26.3229 11.8897 25.8315 11.8897 25.3024C11.8897 24.7733 11.7007 24.3197 11.285 23.904C10.907 23.526 9.96215 23.1481 8.52593 22.7701C6.14483 22.1654 4.44404 21.3717 3.42357 20.3512C2.4031 19.3685 1.91176 18.0835 1.91176 16.5339C1.91176 15.5134 2.13853 14.5307 2.66767 13.6237C2.78105 13.4347 2.89444 13.2835 3.00782 13.1323Z" fill="#26156E" stroke="#F8ED0D"/>
<path d="M15.4047 13.1323C15.1401 12.7543 14.8377 12.4142 14.4976 12.1118C13.3259 11.1669 11.5873 10.7134 9.35742 10.7134C7.54325 10.7134 6.10703 10.9779 5.04876 11.4693C4.17947 11.885 3.49915 12.452 3.00781 13.1323H15.4047Z" fill="#F8ED0D" stroke="#F8ED0D"/>
</svg>
